<?xml version="1.0" encoding="utf-8" standalone="no"?>
<!DOCTYPE svg PUBLIC "-//W3C//DTD SVG 1.1//EN"
  "http://www.w3.org/Graphics/SVG/1.1/DTD/svg11.dtd">
<!-- Created with matplotlib (https://matplotlib.org/) -->
<svg height="345.6pt" version="1.1" viewBox="0 0 460.8 345.6" width="460.8pt" xmlns="http://www.w3.org/2000/svg" xmlns:xlink="http://www.w3.org/1999/xlink">
 <metadata>
  <rdf:RDF xmlns:cc="http://creativecommons.org/ns#" xmlns:dc="http://purl.org/dc/elements/1.1/" xmlns:rdf="http://www.w3.org/1999/02/22-rdf-syntax-ns#">
   <cc:Work>
    <dc:type rdf:resource="http://purl.org/dc/dcmitype/StillImage"/>
    <dc:date>2022-01-04T20:26:35.604380</dc:date>
    <dc:format>image/svg+xml</dc:format>
    <dc:creator>
     <cc:Agent>
      <dc:title>Matplotlib v3.3.4, https://matplotlib.org/</dc:title>
     </cc:Agent>
    </dc:creator>
   </cc:Work>
  </rdf:RDF>
 </metadata>
 <defs>
  <style type="text/css">*{stroke-linecap:butt;stroke-linejoin:round;}</style>
 </defs>
 <g id="figure_1">
  <g id="patch_1">
   <path d="M 0 345.6 
L 460.8 345.6 
L 460.8 0 
L 0 0 
z
" style="fill:#ffffff;"/>
  </g>
  <g id="axes_1">
   <g id="patch_2">
    <path d="M 57.6 307.584 
L 414.72 307.584 
L 414.72 41.472 
L 57.6 41.472 
z
" style="fill:#ffffff;"/>
   </g>
   <g id="matplotlib.axis_1">
    <g id="xtick_1">
     <g id="line2d_1">
      <path clip-path="url(#paf0e3cae16)" d="M 73.832727 307.584 
L 73.832727 41.472 
" style="fill:none;stroke:#cccccc;stroke-linecap:round;stroke-width:0.8;"/>
     </g>
     <g id="line2d_2"/>
     <g id="text_1">
      <!-- 5.0 -->
      <g style="fill:#262626;" transform="translate(65.881165 318.682437)scale(0.1 -0.1)">
       <defs>
        <path d="M 10.796875 72.90625 
L 49.515625 72.90625 
L 49.515625 64.59375 
L 19.828125 64.59375 
L 19.828125 46.734375 
Q 21.96875 47.46875 24.109375 47.828125 
Q 26.265625 48.1875 28.421875 48.1875 
Q 40.625 48.1875 47.75 41.5 
Q 54.890625 34.8125 54.890625 23.390625 
Q 54.890625 11.625 47.5625 5.09375 
Q 40.234375 -1.421875 26.90625 -1.421875 
Q 22.3125 -1.421875 17.546875 -0.640625 
Q 12.796875 0.140625 7.71875 1.703125 
L 7.71875 11.625 
Q 12.109375 9.234375 16.796875 8.0625 
Q 21.484375 6.890625 26.703125 6.890625 
Q 35.15625 6.890625 40.078125 11.328125 
Q 45.015625 15.765625 45.015625 23.390625 
Q 45.015625 31 40.078125 35.4375 
Q 35.15625 39.890625 26.703125 39.890625 
Q 22.75 39.890625 18.8125 39.015625 
Q 14.890625 38.140625 10.796875 36.28125 
z
" id="DejaVuSans-53"/>
        <path d="M 10.6875 12.40625 
L 21 12.40625 
L 21 0 
L 10.6875 0 
z
" id="DejaVuSans-46"/>
        <path d="M 31.78125 66.40625 
Q 24.171875 66.40625 20.328125 58.90625 
Q 16.5 51.421875 16.5 36.375 
Q 16.5 21.390625 20.328125 13.890625 
Q 24.171875 6.390625 31.78125 6.390625 
Q 39.453125 6.390625 43.28125 13.890625 
Q 47.125 21.390625 47.125 36.375 
Q 47.125 51.421875 43.28125 58.90625 
Q 39.453125 66.40625 31.78125 66.40625 
z
M 31.78125 74.21875 
Q 44.046875 74.21875 50.515625 64.515625 
Q 56.984375 54.828125 56.984375 36.375 
Q 56.984375 17.96875 50.515625 8.265625 
Q 44.046875 -1.421875 31.78125 -1.421875 
Q 19.53125 -1.421875 13.0625 8.265625 
Q 6.59375 17.96875 6.59375 36.375 
Q 6.59375 54.828125 13.0625 64.515625 
Q 19.53125 74.21875 31.78125 74.21875 
z
" id="DejaVuSans-48"/>
       </defs>
       <use xlink:href="#DejaVuSans-53"/>
       <use x="63.623047" xlink:href="#DejaVuSans-46"/>
       <use x="95.410156" xlink:href="#DejaVuSans-48"/>
      </g>
     </g>
    </g>
    <g id="xtick_2">
     <g id="line2d_3">
      <path clip-path="url(#paf0e3cae16)" d="M 114.414545 307.584 
L 114.414545 41.472 
" style="fill:none;stroke:#cccccc;stroke-linecap:round;stroke-width:0.8;"/>
     </g>
     <g id="line2d_4"/>
     <g id="text_2">
      <!-- 5.5 -->
      <g style="fill:#262626;" transform="translate(106.462983 318.682437)scale(0.1 -0.1)">
       <use xlink:href="#DejaVuSans-53"/>
       <use x="63.623047" xlink:href="#DejaVuSans-46"/>
       <use x="95.410156" xlink:href="#DejaVuSans-53"/>
      </g>
     </g>
    </g>
    <g id="xtick_3">
     <g id="line2d_5">
      <path clip-path="url(#paf0e3cae16)" d="M 154.996364 307.584 
L 154.996364 41.472 
" style="fill:none;stroke:#cccccc;stroke-linecap:round;stroke-width:0.8;"/>
     </g>
     <g id="line2d_6"/>
     <g id="text_3">
      <!-- 6.0 -->
      <g style="fill:#262626;" transform="translate(147.044801 318.682437)scale(0.1 -0.1)">
       <defs>
        <path d="M 33.015625 40.375 
Q 26.375 40.375 22.484375 35.828125 
Q 18.609375 31.296875 18.609375 23.390625 
Q 18.609375 15.53125 22.484375 10.953125 
Q 26.375 6.390625 33.015625 6.390625 
Q 39.65625 6.390625 43.53125 10.953125 
Q 47.40625 15.53125 47.40625 23.390625 
Q 47.40625 31.296875 43.53125 35.828125 
Q 39.65625 40.375 33.015625 40.375 
z
M 52.59375 71.296875 
L 52.59375 62.3125 
Q 48.875 64.0625 45.09375 64.984375 
Q 41.3125 65.921875 37.59375 65.921875 
Q 27.828125 65.921875 22.671875 59.328125 
Q 17.53125 52.734375 16.796875 39.40625 
Q 19.671875 43.65625 24.015625 45.921875 
Q 28.375 48.1875 33.59375 48.1875 
Q 44.578125 48.1875 50.953125 41.515625 
Q 57.328125 34.859375 57.328125 23.390625 
Q 57.328125 12.15625 50.6875 5.359375 
Q 44.046875 -1.421875 33.015625 -1.421875 
Q 20.359375 -1.421875 13.671875 8.265625 
Q 6.984375 17.96875 6.984375 36.375 
Q 6.984375 53.65625 15.1875 63.9375 
Q 23.390625 74.21875 37.203125 74.21875 
Q 40.921875 74.21875 44.703125 73.484375 
Q 48.484375 72.75 52.59375 71.296875 
z
" id="DejaVuSans-54"/>
       </defs>
       <use xlink:href="#DejaVuSans-54"/>
       <use x="63.623047" xlink:href="#DejaVuSans-46"/>
       <use x="95.410156" xlink:href="#DejaVuSans-48"/>
      </g>
     </g>
    </g>
    <g id="xtick_4">
     <g id="line2d_7">
      <path clip-path="url(#paf0e3cae16)" d="M 195.578182 307.584 
L 195.578182 41.472 
" style="fill:none;stroke:#cccccc;stroke-linecap:round;stroke-width:0.8;"/>
     </g>
     <g id="line2d_8"/>
     <g id="text_4">
      <!-- 6.5 -->
      <g style="fill:#262626;" transform="translate(187.626619 318.682437)scale(0.1 -0.1)">
       <use xlink:href="#DejaVuSans-54"/>
       <use x="63.623047" xlink:href="#DejaVuSans-46"/>
       <use x="95.410156" xlink:href="#DejaVuSans-53"/>
      </g>
     </g>
    </g>
    <g id="xtick_5">
     <g id="line2d_9">
      <path clip-path="url(#paf0e3cae16)" d="M 236.16 307.584 
L 236.16 41.472 
" style="fill:none;stroke:#cccccc;stroke-linecap:round;stroke-width:0.8;"/>
     </g>
     <g id="line2d_10"/>
     <g id="text_5">
      <!-- 7.0 -->
      <g style="fill:#262626;" transform="translate(228.208438 318.682437)scale(0.1 -0.1)">
       <defs>
        <path d="M 8.203125 72.90625 
L 55.078125 72.90625 
L 55.078125 68.703125 
L 28.609375 0 
L 18.3125 0 
L 43.21875 64.59375 
L 8.203125 64.59375 
z
" id="DejaVuSans-55"/>
       </defs>
       <use xlink:href="#DejaVuSans-55"/>
       <use x="63.623047" xlink:href="#DejaVuSans-46"/>
       <use x="95.410156" xlink:href="#DejaVuSans-48"/>
      </g>
     </g>
    </g>
    <g id="xtick_6">
     <g id="line2d_11">
      <path clip-path="url(#paf0e3cae16)" d="M 276.741818 307.584 
L 276.741818 41.472 
" style="fill:none;stroke:#cccccc;stroke-linecap:round;stroke-width:0.8;"/>
     </g>
     <g id="line2d_12"/>
     <g id="text_6">
      <!-- 7.5 -->
      <g style="fill:#262626;" transform="translate(268.790256 318.682437)scale(0.1 -0.1)">
       <use xlink:href="#DejaVuSans-55"/>
       <use x="63.623047" xlink:href="#DejaVuSans-46"/>
       <use x="95.410156" xlink:href="#DejaVuSans-53"/>
      </g>
     </g>
    </g>
    <g id="xtick_7">
     <g id="line2d_13">
      <path clip-path="url(#paf0e3cae16)" d="M 317.323636 307.584 
L 317.323636 41.472 
" style="fill:none;stroke:#cccccc;stroke-linecap:round;stroke-width:0.8;"/>
     </g>
     <g id="line2d_14"/>
     <g id="text_7">
      <!-- 8.0 -->
      <g style="fill:#262626;" transform="translate(309.372074 318.682437)scale(0.1 -0.1)">
       <defs>
        <path d="M 31.78125 34.625 
Q 24.75 34.625 20.71875 30.859375 
Q 16.703125 27.09375 16.703125 20.515625 
Q 16.703125 13.921875 20.71875 10.15625 
Q 24.75 6.390625 31.78125 6.390625 
Q 38.8125 6.390625 42.859375 10.171875 
Q 46.921875 13.96875 46.921875 20.515625 
Q 46.921875 27.09375 42.890625 30.859375 
Q 38.875 34.625 31.78125 34.625 
z
M 21.921875 38.8125 
Q 15.578125 40.375 12.03125 44.71875 
Q 8.5 49.078125 8.5 55.328125 
Q 8.5 64.0625 14.71875 69.140625 
Q 20.953125 74.21875 31.78125 74.21875 
Q 42.671875 74.21875 48.875 69.140625 
Q 55.078125 64.0625 55.078125 55.328125 
Q 55.078125 49.078125 51.53125 44.71875 
Q 48 40.375 41.703125 38.8125 
Q 48.828125 37.15625 52.796875 32.3125 
Q 56.78125 27.484375 56.78125 20.515625 
Q 56.78125 9.90625 50.3125 4.234375 
Q 43.84375 -1.421875 31.78125 -1.421875 
Q 19.734375 -1.421875 13.25 4.234375 
Q 6.78125 9.90625 6.78125 20.515625 
Q 6.78125 27.484375 10.78125 32.3125 
Q 14.796875 37.15625 21.921875 38.8125 
z
M 18.3125 54.390625 
Q 18.3125 48.734375 21.84375 45.5625 
Q 25.390625 42.390625 31.78125 42.390625 
Q 38.140625 42.390625 41.71875 45.5625 
Q 45.3125 48.734375 45.3125 54.390625 
Q 45.3125 60.0625 41.71875 63.234375 
Q 38.140625 66.40625 31.78125 66.40625 
Q 25.390625 66.40625 21.84375 63.234375 
Q 18.3125 60.0625 18.3125 54.390625 
z
" id="DejaVuSans-56"/>
       </defs>
       <use xlink:href="#DejaVuSans-56"/>
       <use x="63.623047" xlink:href="#DejaVuSans-46"/>
       <use x="95.410156" xlink:href="#DejaVuSans-48"/>
      </g>
     </g>
    </g>
    <g id="xtick_8">
     <g id="line2d_15">
      <path clip-path="url(#paf0e3cae16)" d="M 357.905455 307.584 
L 357.905455 41.472 
" style="fill:none;stroke:#cccccc;stroke-linecap:round;stroke-width:0.8;"/>
     </g>
     <g id="line2d_16"/>
     <g id="text_8">
      <!-- 8.5 -->
      <g style="fill:#262626;" transform="translate(349.953892 318.682437)scale(0.1 -0.1)">
       <use xlink:href="#DejaVuSans-56"/>
       <use x="63.623047" xlink:href="#DejaVuSans-46"/>
       <use x="95.410156" xlink:href="#DejaVuSans-53"/>
      </g>
     </g>
    </g>
    <g id="xtick_9">
     <g id="line2d_17">
      <path clip-path="url(#paf0e3cae16)" d="M 398.487273 307.584 
L 398.487273 41.472 
" style="fill:none;stroke:#cccccc;stroke-linecap:round;stroke-width:0.8;"/>
     </g>
     <g id="line2d_18"/>
     <g id="text_9">
      <!-- 9.0 -->
      <g style="fill:#262626;" transform="translate(390.53571 318.682437)scale(0.1 -0.1)">
       <defs>
        <path d="M 10.984375 1.515625 
L 10.984375 10.5 
Q 14.703125 8.734375 18.5 7.8125 
Q 22.3125 6.890625 25.984375 6.890625 
Q 35.75 6.890625 40.890625 13.453125 
Q 46.046875 20.015625 46.78125 33.40625 
Q 43.953125 29.203125 39.59375 26.953125 
Q 35.25 24.703125 29.984375 24.703125 
Q 19.046875 24.703125 12.671875 31.3125 
Q 6.296875 37.9375 6.296875 49.421875 
Q 6.296875 60.640625 12.9375 67.421875 
Q 19.578125 74.21875 30.609375 74.21875 
Q 43.265625 74.21875 49.921875 64.515625 
Q 56.59375 54.828125 56.59375 36.375 
Q 56.59375 19.140625 48.40625 8.859375 
Q 40.234375 -1.421875 26.421875 -1.421875 
Q 22.703125 -1.421875 18.890625 -0.6875 
Q 15.09375 0.046875 10.984375 1.515625 
z
M 30.609375 32.421875 
Q 37.25 32.421875 41.125 36.953125 
Q 45.015625 41.5 45.015625 49.421875 
Q 45.015625 57.28125 41.125 61.84375 
Q 37.25 66.40625 30.609375 66.40625 
Q 23.96875 66.40625 20.09375 61.84375 
Q 16.21875 57.28125 16.21875 49.421875 
Q 16.21875 41.5 20.09375 36.953125 
Q 23.96875 32.421875 30.609375 32.421875 
z
" id="DejaVuSans-57"/>
       </defs>
       <use xlink:href="#DejaVuSans-57"/>
       <use x="63.623047" xlink:href="#DejaVuSans-46"/>
       <use x="95.410156" xlink:href="#DejaVuSans-48"/>
      </g>
     </g>
    </g>
    <g id="text_10">
     <!-- number of equations -->
     <g style="fill:#262626;" transform="translate(183.982656 332.360562)scale(0.1 -0.1)">
      <defs>
       <path d="M 54.890625 33.015625 
L 54.890625 0 
L 45.90625 0 
L 45.90625 32.71875 
Q 45.90625 40.484375 42.875 44.328125 
Q 39.84375 48.1875 33.796875 48.1875 
Q 26.515625 48.1875 22.3125 43.546875 
Q 18.109375 38.921875 18.109375 30.90625 
L 18.109375 0 
L 9.078125 0 
L 9.078125 54.6875 
L 18.109375 54.6875 
L 18.109375 46.1875 
Q 21.34375 51.125 25.703125 53.5625 
Q 30.078125 56 35.796875 56 
Q 45.21875 56 50.046875 50.171875 
Q 54.890625 44.34375 54.890625 33.015625 
z
" id="DejaVuSans-110"/>
       <path d="M 8.5 21.578125 
L 8.5 54.6875 
L 17.484375 54.6875 
L 17.484375 21.921875 
Q 17.484375 14.15625 20.5 10.265625 
Q 23.53125 6.390625 29.59375 6.390625 
Q 36.859375 6.390625 41.078125 11.03125 
Q 45.3125 15.671875 45.3125 23.6875 
L 45.3125 54.6875 
L 54.296875 54.6875 
L 54.296875 0 
L 45.3125 0 
L 45.3125 8.40625 
Q 42.046875 3.421875 37.71875 1 
Q 33.40625 -1.421875 27.6875 -1.421875 
Q 18.265625 -1.421875 13.375 4.4375 
Q 8.5 10.296875 8.5 21.578125 
z
M 31.109375 56 
z
" id="DejaVuSans-117"/>
       <path d="M 52 44.1875 
Q 55.375 50.25 60.0625 53.125 
Q 64.75 56 71.09375 56 
Q 79.640625 56 84.28125 50.015625 
Q 88.921875 44.046875 88.921875 33.015625 
L 88.921875 0 
L 79.890625 0 
L 79.890625 32.71875 
Q 79.890625 40.578125 77.09375 44.375 
Q 74.3125 48.1875 68.609375 48.1875 
Q 61.625 48.1875 57.5625 43.546875 
Q 53.515625 38.921875 53.515625 30.90625 
L 53.515625 0 
L 44.484375 0 
L 44.484375 32.71875 
Q 44.484375 40.625 41.703125 44.40625 
Q 38.921875 48.1875 33.109375 48.1875 
Q 26.21875 48.1875 22.15625 43.53125 
Q 18.109375 38.875 18.109375 30.90625 
L 18.109375 0 
L 9.078125 0 
L 9.078125 54.6875 
L 18.109375 54.6875 
L 18.109375 46.1875 
Q 21.1875 51.21875 25.484375 53.609375 
Q 29.78125 56 35.6875 56 
Q 41.65625 56 45.828125 52.96875 
Q 50 49.953125 52 44.1875 
z
" id="DejaVuSans-109"/>
       <path d="M 48.6875 27.296875 
Q 48.6875 37.203125 44.609375 42.84375 
Q 40.53125 48.484375 33.40625 48.484375 
Q 26.265625 48.484375 22.1875 42.84375 
Q 18.109375 37.203125 18.109375 27.296875 
Q 18.109375 17.390625 22.1875 11.75 
Q 26.265625 6.109375 33.40625 6.109375 
Q 40.53125 6.109375 44.609375 11.75 
Q 48.6875 17.390625 48.6875 27.296875 
z
M 18.109375 46.390625 
Q 20.953125 51.265625 25.265625 53.625 
Q 29.59375 56 35.59375 56 
Q 45.5625 56 51.78125 48.09375 
Q 58.015625 40.1875 58.015625 27.296875 
Q 58.015625 14.40625 51.78125 6.484375 
Q 45.5625 -1.421875 35.59375 -1.421875 
Q 29.59375 -1.421875 25.265625 0.953125 
Q 20.953125 3.328125 18.109375 8.203125 
L 18.109375 0 
L 9.078125 0 
L 9.078125 75.984375 
L 18.109375 75.984375 
z
" id="DejaVuSans-98"/>
       <path d="M 56.203125 29.59375 
L 56.203125 25.203125 
L 14.890625 25.203125 
Q 15.484375 15.921875 20.484375 11.0625 
Q 25.484375 6.203125 34.421875 6.203125 
Q 39.59375 6.203125 44.453125 7.46875 
Q 49.3125 8.734375 54.109375 11.28125 
L 54.109375 2.78125 
Q 49.265625 0.734375 44.1875 -0.34375 
Q 39.109375 -1.421875 33.890625 -1.421875 
Q 20.796875 -1.421875 13.15625 6.1875 
Q 5.515625 13.8125 5.515625 26.8125 
Q 5.515625 40.234375 12.765625 48.109375 
Q 20.015625 56 32.328125 56 
Q 43.359375 56 49.78125 48.890625 
Q 56.203125 41.796875 56.203125 29.59375 
z
M 47.21875 32.234375 
Q 47.125 39.59375 43.09375 43.984375 
Q 39.0625 48.390625 32.421875 48.390625 
Q 24.90625 48.390625 20.390625 44.140625 
Q 15.875 39.890625 15.1875 32.171875 
z
" id="DejaVuSans-101"/>
       <path d="M 41.109375 46.296875 
Q 39.59375 47.171875 37.8125 47.578125 
Q 36.03125 48 33.890625 48 
Q 26.265625 48 22.1875 43.046875 
Q 18.109375 38.09375 18.109375 28.8125 
L 18.109375 0 
L 9.078125 0 
L 9.078125 54.6875 
L 18.109375 54.6875 
L 18.109375 46.1875 
Q 20.953125 51.171875 25.484375 53.578125 
Q 30.03125 56 36.53125 56 
Q 37.453125 56 38.578125 55.875 
Q 39.703125 55.765625 41.0625 55.515625 
z
" id="DejaVuSans-114"/>
       <path id="DejaVuSans-32"/>
       <path d="M 30.609375 48.390625 
Q 23.390625 48.390625 19.1875 42.75 
Q 14.984375 37.109375 14.984375 27.296875 
Q 14.984375 17.484375 19.15625 11.84375 
Q 23.34375 6.203125 30.609375 6.203125 
Q 37.796875 6.203125 41.984375 11.859375 
Q 46.1875 17.53125 46.1875 27.296875 
Q 46.1875 37.015625 41.984375 42.703125 
Q 37.796875 48.390625 30.609375 48.390625 
z
M 30.609375 56 
Q 42.328125 56 49.015625 48.375 
Q 55.71875 40.765625 55.71875 27.296875 
Q 55.71875 13.875 49.015625 6.21875 
Q 42.328125 -1.421875 30.609375 -1.421875 
Q 18.84375 -1.421875 12.171875 6.21875 
Q 5.515625 13.875 5.515625 27.296875 
Q 5.515625 40.765625 12.171875 48.375 
Q 18.84375 56 30.609375 56 
z
" id="DejaVuSans-111"/>
       <path d="M 37.109375 75.984375 
L 37.109375 68.5 
L 28.515625 68.5 
Q 23.6875 68.5 21.796875 66.546875 
Q 19.921875 64.59375 19.921875 59.515625 
L 19.921875 54.6875 
L 34.71875 54.6875 
L 34.71875 47.703125 
L 19.921875 47.703125 
L 19.921875 0 
L 10.890625 0 
L 10.890625 47.703125 
L 2.296875 47.703125 
L 2.296875 54.6875 
L 10.890625 54.6875 
L 10.890625 58.5 
Q 10.890625 67.625 15.140625 71.796875 
Q 19.390625 75.984375 28.609375 75.984375 
z
" id="DejaVuSans-102"/>
       <path d="M 14.796875 27.296875 
Q 14.796875 17.390625 18.875 11.75 
Q 22.953125 6.109375 30.078125 6.109375 
Q 37.203125 6.109375 41.296875 11.75 
Q 45.40625 17.390625 45.40625 27.296875 
Q 45.40625 37.203125 41.296875 42.84375 
Q 37.203125 48.484375 30.078125 48.484375 
Q 22.953125 48.484375 18.875 42.84375 
Q 14.796875 37.203125 14.796875 27.296875 
z
M 45.40625 8.203125 
Q 42.578125 3.328125 38.25 0.953125 
Q 33.9375 -1.421875 27.875 -1.421875 
Q 17.96875 -1.421875 11.734375 6.484375 
Q 5.515625 14.40625 5.515625 27.296875 
Q 5.515625 40.1875 11.734375 48.09375 
Q 17.96875 56 27.875 56 
Q 33.9375 56 38.25 53.625 
Q 42.578125 51.265625 45.40625 46.390625 
L 45.40625 54.6875 
L 54.390625 54.6875 
L 54.390625 -20.796875 
L 45.40625 -20.796875 
z
" id="DejaVuSans-113"/>
       <path d="M 34.28125 27.484375 
Q 23.390625 27.484375 19.1875 25 
Q 14.984375 22.515625 14.984375 16.5 
Q 14.984375 11.71875 18.140625 8.90625 
Q 21.296875 6.109375 26.703125 6.109375 
Q 34.1875 6.109375 38.703125 11.40625 
Q 43.21875 16.703125 43.21875 25.484375 
L 43.21875 27.484375 
z
M 52.203125 31.203125 
L 52.203125 0 
L 43.21875 0 
L 43.21875 8.296875 
Q 40.140625 3.328125 35.546875 0.953125 
Q 30.953125 -1.421875 24.3125 -1.421875 
Q 15.921875 -1.421875 10.953125 3.296875 
Q 6 8.015625 6 15.921875 
Q 6 25.140625 12.171875 29.828125 
Q 18.359375 34.515625 30.609375 34.515625 
L 43.21875 34.515625 
L 43.21875 35.40625 
Q 43.21875 41.609375 39.140625 45 
Q 35.0625 48.390625 27.6875 48.390625 
Q 23 48.390625 18.546875 47.265625 
Q 14.109375 46.140625 10.015625 43.890625 
L 10.015625 52.203125 
Q 14.9375 54.109375 19.578125 55.046875 
Q 24.21875 56 28.609375 56 
Q 40.484375 56 46.34375 49.84375 
Q 52.203125 43.703125 52.203125 31.203125 
z
" id="DejaVuSans-97"/>
       <path d="M 18.3125 70.21875 
L 18.3125 54.6875 
L 36.8125 54.6875 
L 36.8125 47.703125 
L 18.3125 47.703125 
L 18.3125 18.015625 
Q 18.3125 11.328125 20.140625 9.421875 
Q 21.96875 7.515625 27.59375 7.515625 
L 36.8125 7.515625 
L 36.8125 0 
L 27.59375 0 
Q 17.1875 0 13.234375 3.875 
Q 9.28125 7.765625 9.28125 18.015625 
L 9.28125 47.703125 
L 2.6875 47.703125 
L 2.6875 54.6875 
L 9.28125 54.6875 
L 9.28125 70.21875 
z
" id="DejaVuSans-116"/>
       <path d="M 9.421875 54.6875 
L 18.40625 54.6875 
L 18.40625 0 
L 9.421875 0 
z
M 9.421875 75.984375 
L 18.40625 75.984375 
L 18.40625 64.59375 
L 9.421875 64.59375 
z
" id="DejaVuSans-105"/>
       <path d="M 44.28125 53.078125 
L 44.28125 44.578125 
Q 40.484375 46.53125 36.375 47.5 
Q 32.28125 48.484375 27.875 48.484375 
Q 21.1875 48.484375 17.84375 46.4375 
Q 14.5 44.390625 14.5 40.28125 
Q 14.5 37.15625 16.890625 35.375 
Q 19.28125 33.59375 26.515625 31.984375 
L 29.59375 31.296875 
Q 39.15625 29.25 43.1875 25.515625 
Q 47.21875 21.78125 47.21875 15.09375 
Q 47.21875 7.46875 41.1875 3.015625 
Q 35.15625 -1.421875 24.609375 -1.421875 
Q 20.21875 -1.421875 15.453125 -0.5625 
Q 10.6875 0.296875 5.421875 2 
L 5.421875 11.28125 
Q 10.40625 8.6875 15.234375 7.390625 
Q 20.0625 6.109375 24.8125 6.109375 
Q 31.15625 6.109375 34.5625 8.28125 
Q 37.984375 10.453125 37.984375 14.40625 
Q 37.984375 18.0625 35.515625 20.015625 
Q 33.0625 21.96875 24.703125 23.78125 
L 21.578125 24.515625 
Q 13.234375 26.265625 9.515625 29.90625 
Q 5.8125 33.546875 5.8125 39.890625 
Q 5.8125 47.609375 11.28125 51.796875 
Q 16.75 56 26.8125 56 
Q 31.78125 56 36.171875 55.265625 
Q 40.578125 54.546875 44.28125 53.078125 
z
" id="DejaVuSans-115"/>
      </defs>
      <use xlink:href="#DejaVuSans-110"/>
      <use x="63.378906" xlink:href="#DejaVuSans-117"/>
      <use x="126.757812" xlink:href="#DejaVuSans-109"/>
      <use x="224.169922" xlink:href="#DejaVuSans-98"/>
      <use x="287.646484" xlink:href="#DejaVuSans-101"/>
      <use x="349.169922" xlink:href="#DejaVuSans-114"/>
      <use x="390.283203" xlink:href="#DejaVuSans-32"/>
      <use x="422.070312" xlink:href="#DejaVuSans-111"/>
      <use x="483.251953" xlink:href="#DejaVuSans-102"/>
      <use x="518.457031" xlink:href="#DejaVuSans-32"/>
      <use x="550.244141" xlink:href="#DejaVuSans-101"/>
      <use x="611.767578" xlink:href="#DejaVuSans-113"/>
      <use x="675.244141" xlink:href="#DejaVuSans-117"/>
      <use x="738.623047" xlink:href="#DejaVuSans-97"/>
      <use x="799.902344" xlink:href="#DejaVuSans-116"/>
      <use x="839.111328" xlink:href="#DejaVuSans-105"/>
      <use x="866.894531" xlink:href="#DejaVuSans-111"/>
      <use x="928.076172" xlink:href="#DejaVuSans-110"/>
      <use x="991.455078" xlink:href="#DejaVuSans-115"/>
     </g>
    </g>
   </g>
   <g id="matplotlib.axis_2">
    <g id="ytick_1">
     <g id="line2d_19">
      <path clip-path="url(#paf0e3cae16)" d="M 57.6 269.3995 
L 414.72 269.3995 
" style="fill:none;stroke:#cccccc;stroke-linecap:round;stroke-width:0.8;"/>
     </g>
     <g id="line2d_20"/>
     <g id="text_11">
      <!-- $\mathdefault{10^{-3}}$ -->
      <g style="fill:#262626;" transform="translate(30.6 273.198719)scale(0.1 -0.1)">
       <defs>
        <path d="M 12.40625 8.296875 
L 28.515625 8.296875 
L 28.515625 63.921875 
L 10.984375 60.40625 
L 10.984375 69.390625 
L 28.421875 72.90625 
L 38.28125 72.90625 
L 38.28125 8.296875 
L 54.390625 8.296875 
L 54.390625 0 
L 12.40625 0 
z
" id="DejaVuSans-49"/>
        <path d="M 10.59375 35.5 
L 73.1875 35.5 
L 73.1875 27.203125 
L 10.59375 27.203125 
z
" id="DejaVuSans-8722"/>
        <path d="M 40.578125 39.3125 
Q 47.65625 37.796875 51.625 33 
Q 55.609375 28.21875 55.609375 21.1875 
Q 55.609375 10.40625 48.1875 4.484375 
Q 40.765625 -1.421875 27.09375 -1.421875 
Q 22.515625 -1.421875 17.65625 -0.515625 
Q 12.796875 0.390625 7.625 2.203125 
L 7.625 11.71875 
Q 11.71875 9.328125 16.59375 8.109375 
Q 21.484375 6.890625 26.8125 6.890625 
Q 36.078125 6.890625 40.9375 10.546875 
Q 45.796875 14.203125 45.796875 21.1875 
Q 45.796875 27.640625 41.28125 31.265625 
Q 36.765625 34.90625 28.71875 34.90625 
L 20.21875 34.90625 
L 20.21875 43.015625 
L 29.109375 43.015625 
Q 36.375 43.015625 40.234375 45.921875 
Q 44.09375 48.828125 44.09375 54.296875 
Q 44.09375 59.90625 40.109375 62.90625 
Q 36.140625 65.921875 28.71875 65.921875 
Q 24.65625 65.921875 20.015625 65.03125 
Q 15.375 64.15625 9.8125 62.3125 
L 9.8125 71.09375 
Q 15.4375 72.65625 20.34375 73.4375 
Q 25.25 74.21875 29.59375 74.21875 
Q 40.828125 74.21875 47.359375 69.109375 
Q 53.90625 64.015625 53.90625 55.328125 
Q 53.90625 49.265625 50.4375 45.09375 
Q 46.96875 40.921875 40.578125 39.3125 
z
" id="DejaVuSans-51"/>
       </defs>
       <use transform="translate(0 0.765625)" xlink:href="#DejaVuSans-49"/>
       <use transform="translate(63.623047 0.765625)" xlink:href="#DejaVuSans-48"/>
       <use transform="translate(128.203125 39.046875)scale(0.7)" xlink:href="#DejaVuSans-8722"/>
       <use transform="translate(186.855469 39.046875)scale(0.7)" xlink:href="#DejaVuSans-51"/>
      </g>
     </g>
    </g>
    <g id="ytick_2">
     <g id="line2d_21">
      <path clip-path="url(#paf0e3cae16)" d="M 57.6 206.883 
L 414.72 206.883 
" style="fill:none;stroke:#cccccc;stroke-linecap:round;stroke-width:0.8;"/>
     </g>
     <g id="line2d_22"/>
     <g id="text_12">
      <!-- $\mathdefault{10^{-2}}$ -->
      <g style="fill:#262626;" transform="translate(30.6 210.682219)scale(0.1 -0.1)">
       <defs>
        <path d="M 19.1875 8.296875 
L 53.609375 8.296875 
L 53.609375 0 
L 7.328125 0 
L 7.328125 8.296875 
Q 12.9375 14.109375 22.625 23.890625 
Q 32.328125 33.6875 34.8125 36.53125 
Q 39.546875 41.84375 41.421875 45.53125 
Q 43.3125 49.21875 43.3125 52.78125 
Q 43.3125 58.59375 39.234375 62.25 
Q 35.15625 65.921875 28.609375 65.921875 
Q 23.96875 65.921875 18.8125 64.3125 
Q 13.671875 62.703125 7.8125 59.421875 
L 7.8125 69.390625 
Q 13.765625 71.78125 18.9375 73 
Q 24.125 74.21875 28.421875 74.21875 
Q 39.75 74.21875 46.484375 68.546875 
Q 53.21875 62.890625 53.21875 53.421875 
Q 53.21875 48.921875 51.53125 44.890625 
Q 49.859375 40.875 45.40625 35.40625 
Q 44.1875 33.984375 37.640625 27.21875 
Q 31.109375 20.453125 19.1875 8.296875 
z
" id="DejaVuSans-50"/>
       </defs>
       <use transform="translate(0 0.765625)" xlink:href="#DejaVuSans-49"/>
       <use transform="translate(63.623047 0.765625)" xlink:href="#DejaVuSans-48"/>
       <use transform="translate(128.203125 39.046875)scale(0.7)" xlink:href="#DejaVuSans-8722"/>
       <use transform="translate(186.855469 39.046875)scale(0.7)" xlink:href="#DejaVuSans-50"/>
      </g>
     </g>
    </g>
    <g id="ytick_3">
     <g id="line2d_23">
      <path clip-path="url(#paf0e3cae16)" d="M 57.6 144.3665 
L 414.72 144.3665 
" style="fill:none;stroke:#cccccc;stroke-linecap:round;stroke-width:0.8;"/>
     </g>
     <g id="line2d_24"/>
     <g id="text_13">
      <!-- $\mathdefault{10^{-1}}$ -->
      <g style="fill:#262626;" transform="translate(30.6 148.165719)scale(0.1 -0.1)">
       <use transform="translate(0 0.684375)" xlink:href="#DejaVuSans-49"/>
       <use transform="translate(63.623047 0.684375)" xlink:href="#DejaVuSans-48"/>
       <use transform="translate(128.203125 38.965625)scale(0.7)" xlink:href="#DejaVuSans-8722"/>
       <use transform="translate(186.855469 38.965625)scale(0.7)" xlink:href="#DejaVuSans-49"/>
      </g>
     </g>
    </g>
    <g id="ytick_4">
     <g id="line2d_25">
      <path clip-path="url(#paf0e3cae16)" d="M 57.6 81.85 
L 414.72 81.85 
" style="fill:none;stroke:#cccccc;stroke-linecap:round;stroke-width:0.8;"/>
     </g>
     <g id="line2d_26"/>
     <g id="text_14">
      <!-- $\mathdefault{10^{0}}$ -->
      <g style="fill:#262626;" transform="translate(36.5 85.649218)scale(0.1 -0.1)">
       <use transform="translate(0 0.765625)" xlink:href="#DejaVuSans-49"/>
       <use transform="translate(63.623047 0.765625)" xlink:href="#DejaVuSans-48"/>
       <use transform="translate(128.203125 39.046875)scale(0.7)" xlink:href="#DejaVuSans-48"/>
      </g>
     </g>
    </g>
    <g id="ytick_5">
     <g id="line2d_27"/>
    </g>
    <g id="ytick_6">
     <g id="line2d_28"/>
    </g>
    <g id="ytick_7">
     <g id="line2d_29"/>
    </g>
    <g id="ytick_8">
     <g id="line2d_30"/>
    </g>
    <g id="ytick_9">
     <g id="line2d_31"/>
    </g>
    <g id="ytick_10">
     <g id="line2d_32"/>
    </g>
    <g id="ytick_11">
     <g id="line2d_33"/>
    </g>
    <g id="ytick_12">
     <g id="line2d_34"/>
    </g>
    <g id="ytick_13">
     <g id="line2d_35"/>
    </g>
    <g id="ytick_14">
     <g id="line2d_36"/>
    </g>
    <g id="ytick_15">
     <g id="line2d_37"/>
    </g>
    <g id="ytick_16">
     <g id="line2d_38"/>
    </g>
    <g id="ytick_17">
     <g id="line2d_39"/>
    </g>
    <g id="ytick_18">
     <g id="line2d_40"/>
    </g>
    <g id="ytick_19">
     <g id="line2d_41"/>
    </g>
    <g id="ytick_20">
     <g id="line2d_42"/>
    </g>
    <g id="ytick_21">
     <g id="line2d_43"/>
    </g>
    <g id="ytick_22">
     <g id="line2d_44"/>
    </g>
    <g id="ytick_23">
     <g id="line2d_45"/>
    </g>
    <g id="ytick_24">
     <g id="line2d_46"/>
    </g>
    <g id="ytick_25">
     <g id="line2d_47"/>
    </g>
    <g id="ytick_26">
     <g id="line2d_48"/>
    </g>
    <g id="ytick_27">
     <g id="line2d_49"/>
    </g>
    <g id="ytick_28">
     <g id="line2d_50"/>
    </g>
    <g id="ytick_29">
     <g id="line2d_51"/>
    </g>
    <g id="ytick_30">
     <g id="line2d_52"/>
    </g>
    <g id="ytick_31">
     <g id="line2d_53"/>
    </g>
    <g id="ytick_32">
     <g id="line2d_54"/>
    </g>
    <g id="ytick_33">
     <g id="line2d_55"/>
    </g>
    <g id="ytick_34">
     <g id="line2d_56"/>
    </g>
    <g id="ytick_35">
     <g id="line2d_57"/>
    </g>
    <g id="ytick_36">
     <g id="line2d_58"/>
    </g>
    <g id="ytick_37">
     <g id="line2d_59"/>
    </g>
    <g id="ytick_38">
     <g id="line2d_60"/>
    </g>
    <g id="text_15">
     <!-- time [s] -->
     <g style="fill:#262626;" transform="translate(24.520312 193.919406)rotate(-90)scale(0.1 -0.1)">
      <defs>
       <path d="M 8.59375 75.984375 
L 29.296875 75.984375 
L 29.296875 69 
L 17.578125 69 
L 17.578125 -6.203125 
L 29.296875 -6.203125 
L 29.296875 -13.1875 
L 8.59375 -13.1875 
z
" id="DejaVuSans-91"/>
       <path d="M 30.421875 75.984375 
L 30.421875 -13.1875 
L 9.71875 -13.1875 
L 9.71875 -6.203125 
L 21.390625 -6.203125 
L 21.390625 69 
L 9.71875 69 
L 9.71875 75.984375 
z
" id="DejaVuSans-93"/>
      </defs>
      <use xlink:href="#DejaVuSans-116"/>
      <use x="39.208984" xlink:href="#DejaVuSans-105"/>
      <use x="66.992188" xlink:href="#DejaVuSans-109"/>
      <use x="164.404297" xlink:href="#DejaVuSans-101"/>
      <use x="225.927734" xlink:href="#DejaVuSans-32"/>
      <use x="257.714844" xlink:href="#DejaVuSans-91"/>
      <use x="296.728516" xlink:href="#DejaVuSans-115"/>
      <use x="348.828125" xlink:href="#DejaVuSans-93"/>
     </g>
    </g>
   </g>
   <g id="LineCollection_1">
    <path clip-path="url(#paf0e3cae16)" d="M 73.832727 102.409917 
L 73.832727 101.800246 
" style="fill:none;stroke:#1f77b4;stroke-width:1.5;"/>
    <path clip-path="url(#paf0e3cae16)" d="M 154.996364 88.271508 
L 154.996364 87.711758 
" style="fill:none;stroke:#1f77b4;stroke-width:1.5;"/>
    <path clip-path="url(#paf0e3cae16)" d="M 236.16 76.734726 
L 236.16 76.088224 
" style="fill:none;stroke:#1f77b4;stroke-width:1.5;"/>
    <path clip-path="url(#paf0e3cae16)" d="M 317.323636 63.311251 
L 317.323636 62.871403 
" style="fill:none;stroke:#1f77b4;stroke-width:1.5;"/>
    <path clip-path="url(#paf0e3cae16)" d="M 398.487273 54.371825 
L 398.487273 53.85253 
" style="fill:none;stroke:#1f77b4;stroke-width:1.5;"/>
   </g>
   <g id="LineCollection_2">
    <path clip-path="url(#paf0e3cae16)" d="M 73.832727 252.843424 
L 73.832727 251.676201 
" style="fill:none;stroke:#9467bd;stroke-width:1.5;"/>
    <path clip-path="url(#paf0e3cae16)" d="M 154.996364 249.715985 
L 154.996364 246.196451 
" style="fill:none;stroke:#9467bd;stroke-width:1.5;"/>
    <path clip-path="url(#paf0e3cae16)" d="M 236.16 249.508588 
L 236.16 246.40769 
" style="fill:none;stroke:#9467bd;stroke-width:1.5;"/>
    <path clip-path="url(#paf0e3cae16)" d="M 317.323636 244.847985 
L 317.323636 243.705139 
" style="fill:none;stroke:#9467bd;stroke-width:1.5;"/>
    <path clip-path="url(#paf0e3cae16)" d="M 398.487273 242.935836 
L 398.487273 241.93114 
" style="fill:none;stroke:#9467bd;stroke-width:1.5;"/>
   </g>
   <g id="LineCollection_3">
    <path clip-path="url(#paf0e3cae16)" d="M 73.832727 295.481905 
L 73.832727 292.985345 
" style="fill:none;stroke:#bcbd22;stroke-width:1.5;"/>
    <path clip-path="url(#paf0e3cae16)" d="M 154.996364 293.408482 
L 154.996364 292.607835 
" style="fill:none;stroke:#bcbd22;stroke-width:1.5;"/>
    <path clip-path="url(#paf0e3cae16)" d="M 236.16 292.684976 
L 236.16 292.292866 
" style="fill:none;stroke:#bcbd22;stroke-width:1.5;"/>
    <path clip-path="url(#paf0e3cae16)" d="M 317.323636 290.407045 
L 317.323636 288.57218 
" style="fill:none;stroke:#bcbd22;stroke-width:1.5;"/>
    <path clip-path="url(#paf0e3cae16)" d="M 398.487273 286.850502 
L 398.487273 283.622014 
" style="fill:none;stroke:#bcbd22;stroke-width:1.5;"/>
   </g>
   <g id="LineCollection_4">
    <path clip-path="url(#paf0e3cae16)" d="M 73.832727 254.42837 
L 73.832727 251.97837 
" style="fill:none;stroke:#2ca02c;stroke-width:1.5;"/>
    <path clip-path="url(#paf0e3cae16)" d="M 154.996364 252.466635 
L 154.996364 251.300872 
" style="fill:none;stroke:#2ca02c;stroke-width:1.5;"/>
    <path clip-path="url(#paf0e3cae16)" d="M 236.16 250.586002 
L 236.16 249.131356 
" style="fill:none;stroke:#2ca02c;stroke-width:1.5;"/>
    <path clip-path="url(#paf0e3cae16)" d="M 317.323636 245.183558 
L 317.323636 243.493741 
" style="fill:none;stroke:#2ca02c;stroke-width:1.5;"/>
    <path clip-path="url(#paf0e3cae16)" d="M 398.487273 243.401285 
L 398.487273 240.261284 
" style="fill:none;stroke:#2ca02c;stroke-width:1.5;"/>
   </g>
   <g id="line2d_61">
    <defs>
     <path d="M 3 0 
L -3 -0 
" id="m700bd57d06" style="stroke:#1f77b4;"/>
    </defs>
    <g clip-path="url(#paf0e3cae16)">
     <use style="fill:#1f77b4;stroke:#1f77b4;" x="73.832727" xlink:href="#m700bd57d06" y="102.409917"/>
     <use style="fill:#1f77b4;stroke:#1f77b4;" x="154.996364" xlink:href="#m700bd57d06" y="88.271508"/>
     <use style="fill:#1f77b4;stroke:#1f77b4;" x="236.16" xlink:href="#m700bd57d06" y="76.734726"/>
     <use style="fill:#1f77b4;stroke:#1f77b4;" x="317.323636" xlink:href="#m700bd57d06" y="63.311251"/>
     <use style="fill:#1f77b4;stroke:#1f77b4;" x="398.487273" xlink:href="#m700bd57d06" y="54.371825"/>
    </g>
   </g>
   <g id="line2d_62">
    <g clip-path="url(#paf0e3cae16)">
     <use style="fill:#1f77b4;stroke:#1f77b4;" x="73.832727" xlink:href="#m700bd57d06" y="101.800246"/>
     <use style="fill:#1f77b4;stroke:#1f77b4;" x="154.996364" xlink:href="#m700bd57d06" y="87.711758"/>
     <use style="fill:#1f77b4;stroke:#1f77b4;" x="236.16" xlink:href="#m700bd57d06" y="76.088224"/>
     <use style="fill:#1f77b4;stroke:#1f77b4;" x="317.323636" xlink:href="#m700bd57d06" y="62.871403"/>
     <use style="fill:#1f77b4;stroke:#1f77b4;" x="398.487273" xlink:href="#m700bd57d06" y="53.85253"/>
    </g>
   </g>
   <g id="line2d_63">
    <path clip-path="url(#paf0e3cae16)" d="M 73.832727 98.56529 
L 154.996364 87.315967 
L 236.16 76.066645 
L 317.323636 64.817322 
L 398.487273 53.568 
" style="fill:none;stroke:#ff7f0e;stroke-linecap:round;stroke-width:1.5;"/>
   </g>
   <g id="line2d_64">
    <path clip-path="url(#paf0e3cae16)" d="M 73.832727 102.150551 
L 154.996364 88.512421 
L 236.16 75.309443 
L 317.323636 63.809693 
L 398.487273 53.938823 
" style="fill:none;stroke:#2ca02c;stroke-linecap:round;stroke-width:1.5;"/>
   </g>
   <g id="line2d_65">
    <path clip-path="url(#paf0e3cae16)" d="M 73.832727 101.625536 
L 154.996364 89.16171 
L 236.16 75.309443 
L 317.323636 63.552619 
L 398.487273 54.028755 
" style="fill:none;stroke:#d62728;stroke-linecap:round;stroke-width:1.5;"/>
   </g>
   <g id="line2d_66">
    <defs>
     <path d="M 3 0 
L -3 -0 
" id="m74d7b8749b" style="stroke:#9467bd;"/>
    </defs>
    <g clip-path="url(#paf0e3cae16)">
     <use style="fill:#9467bd;stroke:#9467bd;" x="73.832727" xlink:href="#m74d7b8749b" y="252.843424"/>
     <use style="fill:#9467bd;stroke:#9467bd;" x="154.996364" xlink:href="#m74d7b8749b" y="249.715985"/>
     <use style="fill:#9467bd;stroke:#9467bd;" x="236.16" xlink:href="#m74d7b8749b" y="249.508588"/>
     <use style="fill:#9467bd;stroke:#9467bd;" x="317.323636" xlink:href="#m74d7b8749b" y="244.847985"/>
     <use style="fill:#9467bd;stroke:#9467bd;" x="398.487273" xlink:href="#m74d7b8749b" y="242.935836"/>
    </g>
   </g>
   <g id="line2d_67">
    <g clip-path="url(#paf0e3cae16)">
     <use style="fill:#9467bd;stroke:#9467bd;" x="73.832727" xlink:href="#m74d7b8749b" y="251.676201"/>
     <use style="fill:#9467bd;stroke:#9467bd;" x="154.996364" xlink:href="#m74d7b8749b" y="246.196451"/>
     <use style="fill:#9467bd;stroke:#9467bd;" x="236.16" xlink:href="#m74d7b8749b" y="246.40769"/>
     <use style="fill:#9467bd;stroke:#9467bd;" x="317.323636" xlink:href="#m74d7b8749b" y="243.705139"/>
     <use style="fill:#9467bd;stroke:#9467bd;" x="398.487273" xlink:href="#m74d7b8749b" y="241.93114"/>
    </g>
   </g>
   <g id="line2d_68">
    <path clip-path="url(#paf0e3cae16)" d="M 73.832727 251.543356 
L 154.996364 249.240425 
L 236.16 246.937495 
L 317.323636 244.634565 
L 398.487273 242.331635 
" style="fill:none;stroke:#8c564b;stroke-linecap:round;stroke-width:1.5;"/>
   </g>
   <g id="line2d_69">
    <path clip-path="url(#paf0e3cae16)" d="M 73.832727 251.758121 
L 154.996364 249.168195 
L 236.16 246.773554 
L 317.323636 244.545103 
L 398.487273 242.459832 
" style="fill:none;stroke:#e377c2;stroke-linecap:round;stroke-width:1.5;"/>
   </g>
   <g id="line2d_70">
    <path clip-path="url(#paf0e3cae16)" d="M 73.832727 252.026743 
L 154.996364 248.686533 
L 236.16 246.773553 
L 317.323636 244.958099 
L 398.487273 242.270705 
" style="fill:none;stroke:#7f7f7f;stroke-linecap:round;stroke-width:1.5;"/>
   </g>
   <g id="line2d_71">
    <defs>
     <path d="M 3 0 
L -3 -0 
" id="me440036867" style="stroke:#bcbd22;"/>
    </defs>
    <g clip-path="url(#paf0e3cae16)">
     <use style="fill:#bcbd22;stroke:#bcbd22;" x="73.832727" xlink:href="#me440036867" y="295.481905"/>
     <use style="fill:#bcbd22;stroke:#bcbd22;" x="154.996364" xlink:href="#me440036867" y="293.408482"/>
     <use style="fill:#bcbd22;stroke:#bcbd22;" x="236.16" xlink:href="#me440036867" y="292.684976"/>
     <use style="fill:#bcbd22;stroke:#bcbd22;" x="317.323636" xlink:href="#me440036867" y="290.407045"/>
     <use style="fill:#bcbd22;stroke:#bcbd22;" x="398.487273" xlink:href="#me440036867" y="286.850502"/>
    </g>
   </g>
   <g id="line2d_72">
    <g clip-path="url(#paf0e3cae16)">
     <use style="fill:#bcbd22;stroke:#bcbd22;" x="73.832727" xlink:href="#me440036867" y="292.985345"/>
     <use style="fill:#bcbd22;stroke:#bcbd22;" x="154.996364" xlink:href="#me440036867" y="292.607835"/>
     <use style="fill:#bcbd22;stroke:#bcbd22;" x="236.16" xlink:href="#me440036867" y="292.292866"/>
     <use style="fill:#bcbd22;stroke:#bcbd22;" x="317.323636" xlink:href="#me440036867" y="288.57218"/>
     <use style="fill:#bcbd22;stroke:#bcbd22;" x="398.487273" xlink:href="#me440036867" y="283.622014"/>
    </g>
   </g>
   <g id="line2d_73">
    <path clip-path="url(#paf0e3cae16)" d="M 73.832727 295.488 
L 154.996364 293.181404 
L 236.16 290.874808 
L 317.323636 288.568212 
L 398.487273 286.261616 
" style="fill:none;stroke:#17becf;stroke-linecap:round;stroke-width:1.5;"/>
   </g>
   <g id="line2d_74">
    <defs>
     <path d="M 0 1.5 
C 0.397805 1.5 0.77937 1.341951 1.06066 1.06066 
C 1.341951 0.77937 1.5 0.397805 1.5 0 
C 1.5 -0.397805 1.341951 -0.77937 1.06066 -1.06066 
C 0.77937 -1.341951 0.397805 -1.5 0 -1.5 
C -0.397805 -1.5 -0.77937 -1.341951 -1.06066 -1.06066 
C -1.341951 -0.77937 -1.5 -0.397805 -1.5 0 
C -1.5 0.397805 -1.341951 0.77937 -1.06066 1.06066 
C -0.77937 1.341951 -0.397805 1.5 0 1.5 
z
" id="m78f123b9b5" style="stroke:#1f77b4;"/>
    </defs>
    <g clip-path="url(#paf0e3cae16)">
     <use style="fill:#1f77b4;stroke:#1f77b4;" x="73.832727" xlink:href="#m78f123b9b5" y="293.865185"/>
     <use style="fill:#1f77b4;stroke:#1f77b4;" x="154.996364" xlink:href="#m78f123b9b5" y="293.786786"/>
     <use style="fill:#1f77b4;stroke:#1f77b4;" x="236.16" xlink:href="#m78f123b9b5" y="292.148284"/>
     <use style="fill:#1f77b4;stroke:#1f77b4;" x="317.323636" xlink:href="#m78f123b9b5" y="289.207119"/>
     <use style="fill:#1f77b4;stroke:#1f77b4;" x="398.487273" xlink:href="#m78f123b9b5" y="285.346898"/>
    </g>
   </g>
   <g id="line2d_75">
    <path clip-path="url(#paf0e3cae16)" d="M 73.832727 294.144275 
L 154.996364 293.238636 
L 236.16 292.148284 
L 317.323636 289.678969 
L 398.487273 285.144763 
" style="fill:none;stroke:#ff7f0e;stroke-linecap:round;stroke-width:1.5;"/>
   </g>
   <g id="line2d_76">
    <defs>
     <path d="M 3 0 
L -3 -0 
" id="m0bc7def56d" style="stroke:#2ca02c;"/>
    </defs>
    <g clip-path="url(#paf0e3cae16)">
     <use style="fill:#2ca02c;stroke:#2ca02c;" x="73.832727" xlink:href="#m0bc7def56d" y="254.42837"/>
     <use style="fill:#2ca02c;stroke:#2ca02c;" x="154.996364" xlink:href="#m0bc7def56d" y="252.466635"/>
     <use style="fill:#2ca02c;stroke:#2ca02c;" x="236.16" xlink:href="#m0bc7def56d" y="250.586002"/>
     <use style="fill:#2ca02c;stroke:#2ca02c;" x="317.323636" xlink:href="#m0bc7def56d" y="245.183558"/>
     <use style="fill:#2ca02c;stroke:#2ca02c;" x="398.487273" xlink:href="#m0bc7def56d" y="243.401285"/>
    </g>
   </g>
   <g id="line2d_77">
    <g clip-path="url(#paf0e3cae16)">
     <use style="fill:#2ca02c;stroke:#2ca02c;" x="73.832727" xlink:href="#m0bc7def56d" y="251.97837"/>
     <use style="fill:#2ca02c;stroke:#2ca02c;" x="154.996364" xlink:href="#m0bc7def56d" y="251.300872"/>
     <use style="fill:#2ca02c;stroke:#2ca02c;" x="236.16" xlink:href="#m0bc7def56d" y="249.131356"/>
     <use style="fill:#2ca02c;stroke:#2ca02c;" x="317.323636" xlink:href="#m0bc7def56d" y="243.493741"/>
     <use style="fill:#2ca02c;stroke:#2ca02c;" x="398.487273" xlink:href="#m0bc7def56d" y="240.261284"/>
    </g>
   </g>
   <g id="line2d_78">
    <path clip-path="url(#paf0e3cae16)" d="M 73.832727 254.51552 
L 154.996364 251.363294 
L 236.16 248.211067 
L 317.323636 245.05884 
L 398.487273 241.906614 
" style="fill:none;stroke:#d62728;stroke-linecap:round;stroke-width:1.5;"/>
   </g>
   <g id="line2d_79">
    <defs>
     <path d="M 0 1.5 
C 0.397805 1.5 0.77937 1.341951 1.06066 1.06066 
C 1.341951 0.77937 1.5 0.397805 1.5 0 
C 1.5 -0.397805 1.341951 -0.77937 1.06066 -1.06066 
C 0.77937 -1.341951 0.397805 -1.5 0 -1.5 
C -0.397805 -1.5 -0.77937 -1.341951 -1.06066 -1.06066 
C -1.341951 -0.77937 -1.5 -0.397805 -1.5 0 
C -1.5 0.397805 -1.341951 0.77937 -1.06066 1.06066 
C -0.77937 1.341951 -0.397805 1.5 0 1.5 
z
" id="m7f918cfeda" style="stroke:#9467bd;"/>
    </defs>
    <g clip-path="url(#paf0e3cae16)">
     <use style="fill:#9467bd;stroke:#9467bd;" x="73.832727" xlink:href="#m7f918cfeda" y="253.420025"/>
     <use style="fill:#9467bd;stroke:#9467bd;" x="154.996364" xlink:href="#m7f918cfeda" y="251.735203"/>
     <use style="fill:#9467bd;stroke:#9467bd;" x="236.16" xlink:href="#m7f918cfeda" y="248.969678"/>
     <use style="fill:#9467bd;stroke:#9467bd;" x="317.323636" xlink:href="#m7f918cfeda" y="245.427808"/>
     <use style="fill:#9467bd;stroke:#9467bd;" x="398.487273" xlink:href="#m7f918cfeda" y="241.407358"/>
    </g>
   </g>
   <g id="line2d_80">
    <path clip-path="url(#paf0e3cae16)" d="M 73.832727 253.007907 
L 154.996364 252.527194 
L 236.16 248.969678 
L 317.323636 244.816012 
L 398.487273 241.675467 
" style="fill:none;stroke:#8c564b;stroke-linecap:round;stroke-width:1.5;"/>
   </g>
   <g id="line2d_81">
    <g clip-path="url(#paf0e3cae16)">
     <use style="fill:#1f77b4;stroke:#1f77b4;" x="73.832727" xlink:href="#m78f123b9b5" y="102.10337"/>
     <use style="fill:#1f77b4;stroke:#1f77b4;" x="154.996364" xlink:href="#m78f123b9b5" y="87.99019"/>
     <use style="fill:#1f77b4;stroke:#1f77b4;" x="236.16" xlink:href="#m78f123b9b5" y="76.409551"/>
     <use style="fill:#1f77b4;stroke:#1f77b4;" x="317.323636" xlink:href="#m78f123b9b5" y="63.090436"/>
     <use style="fill:#1f77b4;stroke:#1f77b4;" x="398.487273" xlink:href="#m78f123b9b5" y="54.110936"/>
    </g>
   </g>
   <g id="line2d_82">
    <g clip-path="url(#paf0e3cae16)">
     <use style="fill:#9467bd;stroke:#9467bd;" x="73.832727" xlink:href="#m7f918cfeda" y="252.253541"/>
     <use style="fill:#9467bd;stroke:#9467bd;" x="154.996364" xlink:href="#m7f918cfeda" y="247.899228"/>
     <use style="fill:#9467bd;stroke:#9467bd;" x="236.16" xlink:href="#m7f918cfeda" y="247.913893"/>
     <use style="fill:#9467bd;stroke:#9467bd;" x="317.323636" xlink:href="#m7f918cfeda" y="244.270549"/>
     <use style="fill:#9467bd;stroke:#9467bd;" x="398.487273" xlink:href="#m7f918cfeda" y="242.428841"/>
    </g>
   </g>
   <g id="line2d_83">
    <defs>
     <path d="M 0 1.5 
C 0.397805 1.5 0.77937 1.341951 1.06066 1.06066 
C 1.341951 0.77937 1.5 0.397805 1.5 0 
C 1.5 -0.397805 1.341951 -0.77937 1.06066 -1.06066 
C 0.77937 -1.341951 0.397805 -1.5 0 -1.5 
C -0.397805 -1.5 -0.77937 -1.341951 -1.06066 -1.06066 
C -1.341951 -0.77937 -1.5 -0.397805 -1.5 0 
C -1.5 0.397805 -1.341951 0.77937 -1.06066 1.06066 
C -0.77937 1.341951 -0.397805 1.5 0 1.5 
z
" id="m6513cf7ff4" style="stroke:#bcbd22;"/>
    </defs>
    <g clip-path="url(#paf0e3cae16)">
     <use style="fill:#bcbd22;stroke:#bcbd22;" x="73.832727" xlink:href="#m6513cf7ff4" y="294.20494"/>
     <use style="fill:#bcbd22;stroke:#bcbd22;" x="154.996364" xlink:href="#m6513cf7ff4" y="293.005207"/>
     <use style="fill:#bcbd22;stroke:#bcbd22;" x="236.16" xlink:href="#m6513cf7ff4" y="292.488213"/>
     <use style="fill:#bcbd22;stroke:#bcbd22;" x="317.323636" xlink:href="#m6513cf7ff4" y="289.474115"/>
     <use style="fill:#bcbd22;stroke:#bcbd22;" x="398.487273" xlink:href="#m6513cf7ff4" y="285.188299"/>
    </g>
   </g>
   <g id="line2d_84">
    <defs>
     <path d="M 0 1.5 
C 0.397805 1.5 0.77937 1.341951 1.06066 1.06066 
C 1.341951 0.77937 1.5 0.397805 1.5 0 
C 1.5 -0.397805 1.341951 -0.77937 1.06066 -1.06066 
C 0.77937 -1.341951 0.397805 -1.5 0 -1.5 
C -0.397805 -1.5 -0.77937 -1.341951 -1.06066 -1.06066 
C -1.341951 -0.77937 -1.5 -0.397805 -1.5 0 
C -1.5 0.397805 -1.341951 0.77937 -1.06066 1.06066 
C -0.77937 1.341951 -0.397805 1.5 0 1.5 
z
" id="mb9d5c54efb" style="stroke:#2ca02c;"/>
    </defs>
    <g clip-path="url(#paf0e3cae16)">
     <use style="fill:#2ca02c;stroke:#2ca02c;" x="73.832727" xlink:href="#mb9d5c54efb" y="253.175744"/>
     <use style="fill:#2ca02c;stroke:#2ca02c;" x="154.996364" xlink:href="#mb9d5c54efb" y="251.877497"/>
     <use style="fill:#2ca02c;stroke:#2ca02c;" x="236.16" xlink:href="#mb9d5c54efb" y="249.848939"/>
     <use style="fill:#2ca02c;stroke:#2ca02c;" x="317.323636" xlink:href="#mb9d5c54efb" y="244.325505"/>
     <use style="fill:#2ca02c;stroke:#2ca02c;" x="398.487273" xlink:href="#mb9d5c54efb" y="241.785916"/>
    </g>
   </g>
   <g id="patch_3">
    <path d="M 57.6 307.584 
L 57.6 41.472 
" style="fill:none;stroke:#cccccc;stroke-linecap:square;stroke-linejoin:miter;"/>
   </g>
   <g id="patch_4">
    <path d="M 414.72 307.584 
L 414.72 41.472 
" style="fill:none;stroke:#cccccc;stroke-linecap:square;stroke-linejoin:miter;"/>
   </g>
   <g id="patch_5">
    <path d="M 57.6 307.584 
L 414.72 307.584 
" style="fill:none;stroke:#cccccc;stroke-linecap:square;stroke-linejoin:miter;"/>
   </g>
   <g id="patch_6">
    <path d="M 57.6 41.472 
L 414.72 41.472 
" style="fill:none;stroke:#cccccc;stroke-linecap:square;stroke-linejoin:miter;"/>
   </g>
   <g id="legend_1">
    <g id="line2d_85">
     <path d="M 66.6 54.570437 
L 86.6 54.570437 
" style="fill:none;stroke:#ff7f0e;stroke-linecap:round;stroke-width:1.5;"/>
    </g>
    <g id="line2d_86"/>
    <g id="text_16">
     <!-- Exponential fit symbolic -->
     <g style="fill:#262626;" transform="translate(94.6 58.070437)scale(0.1 -0.1)">
      <defs>
       <path d="M 9.8125 72.90625 
L 55.90625 72.90625 
L 55.90625 64.59375 
L 19.671875 64.59375 
L 19.671875 43.015625 
L 54.390625 43.015625 
L 54.390625 34.71875 
L 19.671875 34.71875 
L 19.671875 8.296875 
L 56.78125 8.296875 
L 56.78125 0 
L 9.8125 0 
z
" id="DejaVuSans-69"/>
       <path d="M 54.890625 54.6875 
L 35.109375 28.078125 
L 55.90625 0 
L 45.3125 0 
L 29.390625 21.484375 
L 13.484375 0 
L 2.875 0 
L 24.125 28.609375 
L 4.6875 54.6875 
L 15.28125 54.6875 
L 29.78125 35.203125 
L 44.28125 54.6875 
z
" id="DejaVuSans-120"/>
       <path d="M 18.109375 8.203125 
L 18.109375 -20.796875 
L 9.078125 -20.796875 
L 9.078125 54.6875 
L 18.109375 54.6875 
L 18.109375 46.390625 
Q 20.953125 51.265625 25.265625 53.625 
Q 29.59375 56 35.59375 56 
Q 45.5625 56 51.78125 48.09375 
Q 58.015625 40.1875 58.015625 27.296875 
Q 58.015625 14.40625 51.78125 6.484375 
Q 45.5625 -1.421875 35.59375 -1.421875 
Q 29.59375 -1.421875 25.265625 0.953125 
Q 20.953125 3.328125 18.109375 8.203125 
z
M 48.6875 27.296875 
Q 48.6875 37.203125 44.609375 42.84375 
Q 40.53125 48.484375 33.40625 48.484375 
Q 26.265625 48.484375 22.1875 42.84375 
Q 18.109375 37.203125 18.109375 27.296875 
Q 18.109375 17.390625 22.1875 11.75 
Q 26.265625 6.109375 33.40625 6.109375 
Q 40.53125 6.109375 44.609375 11.75 
Q 48.6875 17.390625 48.6875 27.296875 
z
" id="DejaVuSans-112"/>
       <path d="M 9.421875 75.984375 
L 18.40625 75.984375 
L 18.40625 0 
L 9.421875 0 
z
" id="DejaVuSans-108"/>
       <path d="M 32.171875 -5.078125 
Q 28.375 -14.84375 24.75 -17.8125 
Q 21.140625 -20.796875 15.09375 -20.796875 
L 7.90625 -20.796875 
L 7.90625 -13.28125 
L 13.1875 -13.28125 
Q 16.890625 -13.28125 18.9375 -11.515625 
Q 21 -9.765625 23.484375 -3.21875 
L 25.09375 0.875 
L 2.984375 54.6875 
L 12.5 54.6875 
L 29.59375 11.921875 
L 46.6875 54.6875 
L 56.203125 54.6875 
z
" id="DejaVuSans-121"/>
       <path d="M 48.78125 52.59375 
L 48.78125 44.1875 
Q 44.96875 46.296875 41.140625 47.34375 
Q 37.3125 48.390625 33.40625 48.390625 
Q 24.65625 48.390625 19.8125 42.84375 
Q 14.984375 37.3125 14.984375 27.296875 
Q 14.984375 17.28125 19.8125 11.734375 
Q 24.65625 6.203125 33.40625 6.203125 
Q 37.3125 6.203125 41.140625 7.25 
Q 44.96875 8.296875 48.78125 10.40625 
L 48.78125 2.09375 
Q 45.015625 0.34375 40.984375 -0.53125 
Q 36.96875 -1.421875 32.421875 -1.421875 
Q 20.0625 -1.421875 12.78125 6.34375 
Q 5.515625 14.109375 5.515625 27.296875 
Q 5.515625 40.671875 12.859375 48.328125 
Q 20.21875 56 33.015625 56 
Q 37.15625 56 41.109375 55.140625 
Q 45.0625 54.296875 48.78125 52.59375 
z
" id="DejaVuSans-99"/>
      </defs>
      <use xlink:href="#DejaVuSans-69"/>
      <use x="63.183594" xlink:href="#DejaVuSans-120"/>
      <use x="122.363281" xlink:href="#DejaVuSans-112"/>
      <use x="185.839844" xlink:href="#DejaVuSans-111"/>
      <use x="247.021484" xlink:href="#DejaVuSans-110"/>
      <use x="310.400391" xlink:href="#DejaVuSans-101"/>
      <use x="371.923828" xlink:href="#DejaVuSans-110"/>
      <use x="435.302734" xlink:href="#DejaVuSans-116"/>
      <use x="474.511719" xlink:href="#DejaVuSans-105"/>
      <use x="502.294922" xlink:href="#DejaVuSans-97"/>
      <use x="563.574219" xlink:href="#DejaVuSans-108"/>
      <use x="591.357422" xlink:href="#DejaVuSans-32"/>
      <use x="623.144531" xlink:href="#DejaVuSans-102"/>
      <use x="658.349609" xlink:href="#DejaVuSans-105"/>
      <use x="686.132812" xlink:href="#DejaVuSans-116"/>
      <use x="725.341797" xlink:href="#DejaVuSans-32"/>
      <use x="757.128906" xlink:href="#DejaVuSans-115"/>
      <use x="809.228516" xlink:href="#DejaVuSans-121"/>
      <use x="868.408203" xlink:href="#DejaVuSans-109"/>
      <use x="965.820312" xlink:href="#DejaVuSans-98"/>
      <use x="1029.296875" xlink:href="#DejaVuSans-111"/>
      <use x="1090.478516" xlink:href="#DejaVuSans-108"/>
      <use x="1118.261719" xlink:href="#DejaVuSans-105"/>
      <use x="1146.044922" xlink:href="#DejaVuSans-99"/>
     </g>
    </g>
    <g id="line2d_87">
     <path d="M 66.6 69.248562 
L 86.6 69.248562 
" style="fill:none;stroke:#2ca02c;stroke-linecap:round;stroke-width:1.5;"/>
    </g>
    <g id="line2d_88"/>
    <g id="text_17">
     <!-- Quadratic fit symbolic -->
     <g style="fill:#262626;" transform="translate(94.6 72.748562)scale(0.1 -0.1)">
      <defs>
       <path d="M 39.40625 66.21875 
Q 28.65625 66.21875 22.328125 58.203125 
Q 16.015625 50.203125 16.015625 36.375 
Q 16.015625 22.609375 22.328125 14.59375 
Q 28.65625 6.59375 39.40625 6.59375 
Q 50.140625 6.59375 56.421875 14.59375 
Q 62.703125 22.609375 62.703125 36.375 
Q 62.703125 50.203125 56.421875 58.203125 
Q 50.140625 66.21875 39.40625 66.21875 
z
M 53.21875 1.3125 
L 66.21875 -12.890625 
L 54.296875 -12.890625 
L 43.5 -1.21875 
Q 41.890625 -1.3125 41.03125 -1.359375 
Q 40.1875 -1.421875 39.40625 -1.421875 
Q 24.03125 -1.421875 14.8125 8.859375 
Q 5.609375 19.140625 5.609375 36.375 
Q 5.609375 53.65625 14.8125 63.9375 
Q 24.03125 74.21875 39.40625 74.21875 
Q 54.734375 74.21875 63.90625 63.9375 
Q 73.09375 53.65625 73.09375 36.375 
Q 73.09375 23.6875 67.984375 14.640625 
Q 62.890625 5.609375 53.21875 1.3125 
z
" id="DejaVuSans-81"/>
       <path d="M 45.40625 46.390625 
L 45.40625 75.984375 
L 54.390625 75.984375 
L 54.390625 0 
L 45.40625 0 
L 45.40625 8.203125 
Q 42.578125 3.328125 38.25 0.953125 
Q 33.9375 -1.421875 27.875 -1.421875 
Q 17.96875 -1.421875 11.734375 6.484375 
Q 5.515625 14.40625 5.515625 27.296875 
Q 5.515625 40.1875 11.734375 48.09375 
Q 17.96875 56 27.875 56 
Q 33.9375 56 38.25 53.625 
Q 42.578125 51.265625 45.40625 46.390625 
z
M 14.796875 27.296875 
Q 14.796875 17.390625 18.875 11.75 
Q 22.953125 6.109375 30.078125 6.109375 
Q 37.203125 6.109375 41.296875 11.75 
Q 45.40625 17.390625 45.40625 27.296875 
Q 45.40625 37.203125 41.296875 42.84375 
Q 37.203125 48.484375 30.078125 48.484375 
Q 22.953125 48.484375 18.875 42.84375 
Q 14.796875 37.203125 14.796875 27.296875 
z
" id="DejaVuSans-100"/>
      </defs>
      <use xlink:href="#DejaVuSans-81"/>
      <use x="78.710938" xlink:href="#DejaVuSans-117"/>
      <use x="142.089844" xlink:href="#DejaVuSans-97"/>
      <use x="203.369141" xlink:href="#DejaVuSans-100"/>
      <use x="266.845703" xlink:href="#DejaVuSans-114"/>
      <use x="307.958984" xlink:href="#DejaVuSans-97"/>
      <use x="369.238281" xlink:href="#DejaVuSans-116"/>
      <use x="408.447266" xlink:href="#DejaVuSans-105"/>
      <use x="436.230469" xlink:href="#DejaVuSans-99"/>
      <use x="491.210938" xlink:href="#DejaVuSans-32"/>
      <use x="522.998047" xlink:href="#DejaVuSans-102"/>
      <use x="558.203125" xlink:href="#DejaVuSans-105"/>
      <use x="585.986328" xlink:href="#DejaVuSans-116"/>
      <use x="625.195312" xlink:href="#DejaVuSans-32"/>
      <use x="656.982422" xlink:href="#DejaVuSans-115"/>
      <use x="709.082031" xlink:href="#DejaVuSans-121"/>
      <use x="768.261719" xlink:href="#DejaVuSans-109"/>
      <use x="865.673828" xlink:href="#DejaVuSans-98"/>
      <use x="929.150391" xlink:href="#DejaVuSans-111"/>
      <use x="990.332031" xlink:href="#DejaVuSans-108"/>
      <use x="1018.115234" xlink:href="#DejaVuSans-105"/>
      <use x="1045.898438" xlink:href="#DejaVuSans-99"/>
     </g>
    </g>
    <g id="line2d_89">
     <path d="M 66.6 83.926688 
L 86.6 83.926688 
" style="fill:none;stroke:#d62728;stroke-linecap:round;stroke-width:1.5;"/>
    </g>
    <g id="line2d_90"/>
    <g id="text_18">
     <!-- Cubic fit symbolic -->
     <g style="fill:#262626;" transform="translate(94.6 87.426688)scale(0.1 -0.1)">
      <defs>
       <path d="M 64.40625 67.28125 
L 64.40625 56.890625 
Q 59.421875 61.53125 53.78125 63.8125 
Q 48.140625 66.109375 41.796875 66.109375 
Q 29.296875 66.109375 22.65625 58.46875 
Q 16.015625 50.828125 16.015625 36.375 
Q 16.015625 21.96875 22.65625 14.328125 
Q 29.296875 6.6875 41.796875 6.6875 
Q 48.140625 6.6875 53.78125 8.984375 
Q 59.421875 11.28125 64.40625 15.921875 
L 64.40625 5.609375 
Q 59.234375 2.09375 53.4375 0.328125 
Q 47.65625 -1.421875 41.21875 -1.421875 
Q 24.65625 -1.421875 15.125 8.703125 
Q 5.609375 18.84375 5.609375 36.375 
Q 5.609375 53.953125 15.125 64.078125 
Q 24.65625 74.21875 41.21875 74.21875 
Q 47.75 74.21875 53.53125 72.484375 
Q 59.328125 70.75 64.40625 67.28125 
z
" id="DejaVuSans-67"/>
      </defs>
      <use xlink:href="#DejaVuSans-67"/>
      <use x="69.824219" xlink:href="#DejaVuSans-117"/>
      <use x="133.203125" xlink:href="#DejaVuSans-98"/>
      <use x="196.679688" xlink:href="#DejaVuSans-105"/>
      <use x="224.462891" xlink:href="#DejaVuSans-99"/>
      <use x="279.443359" xlink:href="#DejaVuSans-32"/>
      <use x="311.230469" xlink:href="#DejaVuSans-102"/>
      <use x="346.435547" xlink:href="#DejaVuSans-105"/>
      <use x="374.21875" xlink:href="#DejaVuSans-116"/>
      <use x="413.427734" xlink:href="#DejaVuSans-32"/>
      <use x="445.214844" xlink:href="#DejaVuSans-115"/>
      <use x="497.314453" xlink:href="#DejaVuSans-121"/>
      <use x="556.494141" xlink:href="#DejaVuSans-109"/>
      <use x="653.90625" xlink:href="#DejaVuSans-98"/>
      <use x="717.382812" xlink:href="#DejaVuSans-111"/>
      <use x="778.564453" xlink:href="#DejaVuSans-108"/>
      <use x="806.347656" xlink:href="#DejaVuSans-105"/>
      <use x="834.130859" xlink:href="#DejaVuSans-99"/>
     </g>
    </g>
    <g id="line2d_91">
     <path d="M 66.6 98.604812 
L 86.6 98.604812 
" style="fill:none;stroke:#8c564b;stroke-linecap:round;stroke-width:1.5;"/>
    </g>
    <g id="line2d_92"/>
    <g id="text_19">
     <!-- Exponential fit symbolic math -->
     <g style="fill:#262626;" transform="translate(94.6 102.104812)scale(0.1 -0.1)">
      <defs>
       <path d="M 54.890625 33.015625 
L 54.890625 0 
L 45.90625 0 
L 45.90625 32.71875 
Q 45.90625 40.484375 42.875 44.328125 
Q 39.84375 48.1875 33.796875 48.1875 
Q 26.515625 48.1875 22.3125 43.546875 
Q 18.109375 38.921875 18.109375 30.90625 
L 18.109375 0 
L 9.078125 0 
L 9.078125 75.984375 
L 18.109375 75.984375 
L 18.109375 46.1875 
Q 21.34375 51.125 25.703125 53.5625 
Q 30.078125 56 35.796875 56 
Q 45.21875 56 50.046875 50.171875 
Q 54.890625 44.34375 54.890625 33.015625 
z
" id="DejaVuSans-104"/>
      </defs>
      <use xlink:href="#DejaVuSans-69"/>
      <use x="63.183594" xlink:href="#DejaVuSans-120"/>
      <use x="122.363281" xlink:href="#DejaVuSans-112"/>
      <use x="185.839844" xlink:href="#DejaVuSans-111"/>
      <use x="247.021484" xlink:href="#DejaVuSans-110"/>
      <use x="310.400391" xlink:href="#DejaVuSans-101"/>
      <use x="371.923828" xlink:href="#DejaVuSans-110"/>
      <use x="435.302734" xlink:href="#DejaVuSans-116"/>
      <use x="474.511719" xlink:href="#DejaVuSans-105"/>
      <use x="502.294922" xlink:href="#DejaVuSans-97"/>
      <use x="563.574219" xlink:href="#DejaVuSans-108"/>
      <use x="591.357422" xlink:href="#DejaVuSans-32"/>
      <use x="623.144531" xlink:href="#DejaVuSans-102"/>
      <use x="658.349609" xlink:href="#DejaVuSans-105"/>
      <use x="686.132812" xlink:href="#DejaVuSans-116"/>
      <use x="725.341797" xlink:href="#DejaVuSans-32"/>
      <use x="757.128906" xlink:href="#DejaVuSans-115"/>
      <use x="809.228516" xlink:href="#DejaVuSans-121"/>
      <use x="868.408203" xlink:href="#DejaVuSans-109"/>
      <use x="965.820312" xlink:href="#DejaVuSans-98"/>
      <use x="1029.296875" xlink:href="#DejaVuSans-111"/>
      <use x="1090.478516" xlink:href="#DejaVuSans-108"/>
      <use x="1118.261719" xlink:href="#DejaVuSans-105"/>
      <use x="1146.044922" xlink:href="#DejaVuSans-99"/>
      <use x="1201.025391" xlink:href="#DejaVuSans-32"/>
      <use x="1232.8125" xlink:href="#DejaVuSans-109"/>
      <use x="1330.224609" xlink:href="#DejaVuSans-97"/>
      <use x="1391.503906" xlink:href="#DejaVuSans-116"/>
      <use x="1430.712891" xlink:href="#DejaVuSans-104"/>
     </g>
    </g>
    <g id="line2d_93">
     <path d="M 66.6 113.282937 
L 86.6 113.282937 
" style="fill:none;stroke:#e377c2;stroke-linecap:round;stroke-width:1.5;"/>
    </g>
    <g id="line2d_94"/>
    <g id="text_20">
     <!-- Quadratic fit symbolic math -->
     <g style="fill:#262626;" transform="translate(94.6 116.782937)scale(0.1 -0.1)">
      <use xlink:href="#DejaVuSans-81"/>
      <use x="78.710938" xlink:href="#DejaVuSans-117"/>
      <use x="142.089844" xlink:href="#DejaVuSans-97"/>
      <use x="203.369141" xlink:href="#DejaVuSans-100"/>
      <use x="266.845703" xlink:href="#DejaVuSans-114"/>
      <use x="307.958984" xlink:href="#DejaVuSans-97"/>
      <use x="369.238281" xlink:href="#DejaVuSans-116"/>
      <use x="408.447266" xlink:href="#DejaVuSans-105"/>
      <use x="436.230469" xlink:href="#DejaVuSans-99"/>
      <use x="491.210938" xlink:href="#DejaVuSans-32"/>
      <use x="522.998047" xlink:href="#DejaVuSans-102"/>
      <use x="558.203125" xlink:href="#DejaVuSans-105"/>
      <use x="585.986328" xlink:href="#DejaVuSans-116"/>
      <use x="625.195312" xlink:href="#DejaVuSans-32"/>
      <use x="656.982422" xlink:href="#DejaVuSans-115"/>
      <use x="709.082031" xlink:href="#DejaVuSans-121"/>
      <use x="768.261719" xlink:href="#DejaVuSans-109"/>
      <use x="865.673828" xlink:href="#DejaVuSans-98"/>
      <use x="929.150391" xlink:href="#DejaVuSans-111"/>
      <use x="990.332031" xlink:href="#DejaVuSans-108"/>
      <use x="1018.115234" xlink:href="#DejaVuSans-105"/>
      <use x="1045.898438" xlink:href="#DejaVuSans-99"/>
      <use x="1100.878906" xlink:href="#DejaVuSans-32"/>
      <use x="1132.666016" xlink:href="#DejaVuSans-109"/>
      <use x="1230.078125" xlink:href="#DejaVuSans-97"/>
      <use x="1291.357422" xlink:href="#DejaVuSans-116"/>
      <use x="1330.566406" xlink:href="#DejaVuSans-104"/>
     </g>
    </g>
    <g id="line2d_95">
     <path d="M 66.6 127.961062 
L 86.6 127.961062 
" style="fill:none;stroke:#7f7f7f;stroke-linecap:round;stroke-width:1.5;"/>
    </g>
    <g id="line2d_96"/>
    <g id="text_21">
     <!-- Cubic fit symbolic math -->
     <g style="fill:#262626;" transform="translate(94.6 131.461062)scale(0.1 -0.1)">
      <use xlink:href="#DejaVuSans-67"/>
      <use x="69.824219" xlink:href="#DejaVuSans-117"/>
      <use x="133.203125" xlink:href="#DejaVuSans-98"/>
      <use x="196.679688" xlink:href="#DejaVuSans-105"/>
      <use x="224.462891" xlink:href="#DejaVuSans-99"/>
      <use x="279.443359" xlink:href="#DejaVuSans-32"/>
      <use x="311.230469" xlink:href="#DejaVuSans-102"/>
      <use x="346.435547" xlink:href="#DejaVuSans-105"/>
      <use x="374.21875" xlink:href="#DejaVuSans-116"/>
      <use x="413.427734" xlink:href="#DejaVuSans-32"/>
      <use x="445.214844" xlink:href="#DejaVuSans-115"/>
      <use x="497.314453" xlink:href="#DejaVuSans-121"/>
      <use x="556.494141" xlink:href="#DejaVuSans-109"/>
      <use x="653.90625" xlink:href="#DejaVuSans-98"/>
      <use x="717.382812" xlink:href="#DejaVuSans-111"/>
      <use x="778.564453" xlink:href="#DejaVuSans-108"/>
      <use x="806.347656" xlink:href="#DejaVuSans-105"/>
      <use x="834.130859" xlink:href="#DejaVuSans-99"/>
      <use x="889.111328" xlink:href="#DejaVuSans-32"/>
      <use x="920.898438" xlink:href="#DejaVuSans-109"/>
      <use x="1018.310547" xlink:href="#DejaVuSans-97"/>
      <use x="1079.589844" xlink:href="#DejaVuSans-116"/>
      <use x="1118.798828" xlink:href="#DejaVuSans-104"/>
     </g>
    </g>
    <g id="line2d_97">
     <path d="M 66.6 142.639187 
L 86.6 142.639187 
" style="fill:none;stroke:#17becf;stroke-linecap:round;stroke-width:1.5;"/>
    </g>
    <g id="line2d_98"/>
    <g id="text_22">
     <!-- Exponential fit symbolic numpy -->
     <g style="fill:#262626;" transform="translate(94.6 146.139187)scale(0.1 -0.1)">
      <use xlink:href="#DejaVuSans-69"/>
      <use x="63.183594" xlink:href="#DejaVuSans-120"/>
      <use x="122.363281" xlink:href="#DejaVuSans-112"/>
      <use x="185.839844" xlink:href="#DejaVuSans-111"/>
      <use x="247.021484" xlink:href="#DejaVuSans-110"/>
      <use x="310.400391" xlink:href="#DejaVuSans-101"/>
      <use x="371.923828" xlink:href="#DejaVuSans-110"/>
      <use x="435.302734" xlink:href="#DejaVuSans-116"/>
      <use x="474.511719" xlink:href="#DejaVuSans-105"/>
      <use x="502.294922" xlink:href="#DejaVuSans-97"/>
      <use x="563.574219" xlink:href="#DejaVuSans-108"/>
      <use x="591.357422" xlink:href="#DejaVuSans-32"/>
      <use x="623.144531" xlink:href="#DejaVuSans-102"/>
      <use x="658.349609" xlink:href="#DejaVuSans-105"/>
      <use x="686.132812" xlink:href="#DejaVuSans-116"/>
      <use x="725.341797" xlink:href="#DejaVuSans-32"/>
      <use x="757.128906" xlink:href="#DejaVuSans-115"/>
      <use x="809.228516" xlink:href="#DejaVuSans-121"/>
      <use x="868.408203" xlink:href="#DejaVuSans-109"/>
      <use x="965.820312" xlink:href="#DejaVuSans-98"/>
      <use x="1029.296875" xlink:href="#DejaVuSans-111"/>
      <use x="1090.478516" xlink:href="#DejaVuSans-108"/>
      <use x="1118.261719" xlink:href="#DejaVuSans-105"/>
      <use x="1146.044922" xlink:href="#DejaVuSans-99"/>
      <use x="1201.025391" xlink:href="#DejaVuSans-32"/>
      <use x="1232.8125" xlink:href="#DejaVuSans-110"/>
      <use x="1296.191406" xlink:href="#DejaVuSans-117"/>
      <use x="1359.570312" xlink:href="#DejaVuSans-109"/>
      <use x="1456.982422" xlink:href="#DejaVuSans-112"/>
      <use x="1520.458984" xlink:href="#DejaVuSans-121"/>
     </g>
    </g>
    <g id="line2d_99"/>
    <g id="line2d_100">
     <g>
      <use style="fill:#1f77b4;stroke:#1f77b4;" x="76.6" xlink:href="#m78f123b9b5" y="157.317312"/>
     </g>
    </g>
    <g id="text_23">
     <!-- Quadratic fit symbolic numpy -->
     <g style="fill:#262626;" transform="translate(94.6 160.817312)scale(0.1 -0.1)">
      <use xlink:href="#DejaVuSans-81"/>
      <use x="78.710938" xlink:href="#DejaVuSans-117"/>
      <use x="142.089844" xlink:href="#DejaVuSans-97"/>
      <use x="203.369141" xlink:href="#DejaVuSans-100"/>
      <use x="266.845703" xlink:href="#DejaVuSans-114"/>
      <use x="307.958984" xlink:href="#DejaVuSans-97"/>
      <use x="369.238281" xlink:href="#DejaVuSans-116"/>
      <use x="408.447266" xlink:href="#DejaVuSans-105"/>
      <use x="436.230469" xlink:href="#DejaVuSans-99"/>
      <use x="491.210938" xlink:href="#DejaVuSans-32"/>
      <use x="522.998047" xlink:href="#DejaVuSans-102"/>
      <use x="558.203125" xlink:href="#DejaVuSans-105"/>
      <use x="585.986328" xlink:href="#DejaVuSans-116"/>
      <use x="625.195312" xlink:href="#DejaVuSans-32"/>
      <use x="656.982422" xlink:href="#DejaVuSans-115"/>
      <use x="709.082031" xlink:href="#DejaVuSans-121"/>
      <use x="768.261719" xlink:href="#DejaVuSans-109"/>
      <use x="865.673828" xlink:href="#DejaVuSans-98"/>
      <use x="929.150391" xlink:href="#DejaVuSans-111"/>
      <use x="990.332031" xlink:href="#DejaVuSans-108"/>
      <use x="1018.115234" xlink:href="#DejaVuSans-105"/>
      <use x="1045.898438" xlink:href="#DejaVuSans-99"/>
      <use x="1100.878906" xlink:href="#DejaVuSans-32"/>
      <use x="1132.666016" xlink:href="#DejaVuSans-110"/>
      <use x="1196.044922" xlink:href="#DejaVuSans-117"/>
      <use x="1259.423828" xlink:href="#DejaVuSans-109"/>
      <use x="1356.835938" xlink:href="#DejaVuSans-112"/>
      <use x="1420.3125" xlink:href="#DejaVuSans-121"/>
     </g>
    </g>
    <g id="line2d_101">
     <path d="M 66.6 171.995437 
L 86.6 171.995437 
" style="fill:none;stroke:#ff7f0e;stroke-linecap:round;stroke-width:1.5;"/>
    </g>
    <g id="line2d_102"/>
    <g id="text_24">
     <!-- Cubic fit symbolic numpy -->
     <g style="fill:#262626;" transform="translate(94.6 175.495437)scale(0.1 -0.1)">
      <use xlink:href="#DejaVuSans-67"/>
      <use x="69.824219" xlink:href="#DejaVuSans-117"/>
      <use x="133.203125" xlink:href="#DejaVuSans-98"/>
      <use x="196.679688" xlink:href="#DejaVuSans-105"/>
      <use x="224.462891" xlink:href="#DejaVuSans-99"/>
      <use x="279.443359" xlink:href="#DejaVuSans-32"/>
      <use x="311.230469" xlink:href="#DejaVuSans-102"/>
      <use x="346.435547" xlink:href="#DejaVuSans-105"/>
      <use x="374.21875" xlink:href="#DejaVuSans-116"/>
      <use x="413.427734" xlink:href="#DejaVuSans-32"/>
      <use x="445.214844" xlink:href="#DejaVuSans-115"/>
      <use x="497.314453" xlink:href="#DejaVuSans-121"/>
      <use x="556.494141" xlink:href="#DejaVuSans-109"/>
      <use x="653.90625" xlink:href="#DejaVuSans-98"/>
      <use x="717.382812" xlink:href="#DejaVuSans-111"/>
      <use x="778.564453" xlink:href="#DejaVuSans-108"/>
      <use x="806.347656" xlink:href="#DejaVuSans-105"/>
      <use x="834.130859" xlink:href="#DejaVuSans-99"/>
      <use x="889.111328" xlink:href="#DejaVuSans-32"/>
      <use x="920.898438" xlink:href="#DejaVuSans-110"/>
      <use x="984.277344" xlink:href="#DejaVuSans-117"/>
      <use x="1047.65625" xlink:href="#DejaVuSans-109"/>
      <use x="1145.068359" xlink:href="#DejaVuSans-112"/>
      <use x="1208.544922" xlink:href="#DejaVuSans-121"/>
     </g>
    </g>
    <g id="line2d_103">
     <path d="M 66.6 186.673562 
L 86.6 186.673562 
" style="fill:none;stroke:#d62728;stroke-linecap:round;stroke-width:1.5;"/>
    </g>
    <g id="line2d_104"/>
    <g id="text_25">
     <!-- Exponential fit manual -->
     <g style="fill:#262626;" transform="translate(94.6 190.173562)scale(0.1 -0.1)">
      <use xlink:href="#DejaVuSans-69"/>
      <use x="63.183594" xlink:href="#DejaVuSans-120"/>
      <use x="122.363281" xlink:href="#DejaVuSans-112"/>
      <use x="185.839844" xlink:href="#DejaVuSans-111"/>
      <use x="247.021484" xlink:href="#DejaVuSans-110"/>
      <use x="310.400391" xlink:href="#DejaVuSans-101"/>
      <use x="371.923828" xlink:href="#DejaVuSans-110"/>
      <use x="435.302734" xlink:href="#DejaVuSans-116"/>
      <use x="474.511719" xlink:href="#DejaVuSans-105"/>
      <use x="502.294922" xlink:href="#DejaVuSans-97"/>
      <use x="563.574219" xlink:href="#DejaVuSans-108"/>
      <use x="591.357422" xlink:href="#DejaVuSans-32"/>
      <use x="623.144531" xlink:href="#DejaVuSans-102"/>
      <use x="658.349609" xlink:href="#DejaVuSans-105"/>
      <use x="686.132812" xlink:href="#DejaVuSans-116"/>
      <use x="725.341797" xlink:href="#DejaVuSans-32"/>
      <use x="757.128906" xlink:href="#DejaVuSans-109"/>
      <use x="854.541016" xlink:href="#DejaVuSans-97"/>
      <use x="915.820312" xlink:href="#DejaVuSans-110"/>
      <use x="979.199219" xlink:href="#DejaVuSans-117"/>
      <use x="1042.578125" xlink:href="#DejaVuSans-97"/>
      <use x="1103.857422" xlink:href="#DejaVuSans-108"/>
     </g>
    </g>
    <g id="line2d_105"/>
    <g id="line2d_106">
     <g>
      <use style="fill:#9467bd;stroke:#9467bd;" x="76.6" xlink:href="#m7f918cfeda" y="201.351687"/>
     </g>
    </g>
    <g id="text_26">
     <!-- Quadratic fit manual -->
     <g style="fill:#262626;" transform="translate(94.6 204.851687)scale(0.1 -0.1)">
      <use xlink:href="#DejaVuSans-81"/>
      <use x="78.710938" xlink:href="#DejaVuSans-117"/>
      <use x="142.089844" xlink:href="#DejaVuSans-97"/>
      <use x="203.369141" xlink:href="#DejaVuSans-100"/>
      <use x="266.845703" xlink:href="#DejaVuSans-114"/>
      <use x="307.958984" xlink:href="#DejaVuSans-97"/>
      <use x="369.238281" xlink:href="#DejaVuSans-116"/>
      <use x="408.447266" xlink:href="#DejaVuSans-105"/>
      <use x="436.230469" xlink:href="#DejaVuSans-99"/>
      <use x="491.210938" xlink:href="#DejaVuSans-32"/>
      <use x="522.998047" xlink:href="#DejaVuSans-102"/>
      <use x="558.203125" xlink:href="#DejaVuSans-105"/>
      <use x="585.986328" xlink:href="#DejaVuSans-116"/>
      <use x="625.195312" xlink:href="#DejaVuSans-32"/>
      <use x="656.982422" xlink:href="#DejaVuSans-109"/>
      <use x="754.394531" xlink:href="#DejaVuSans-97"/>
      <use x="815.673828" xlink:href="#DejaVuSans-110"/>
      <use x="879.052734" xlink:href="#DejaVuSans-117"/>
      <use x="942.431641" xlink:href="#DejaVuSans-97"/>
      <use x="1003.710938" xlink:href="#DejaVuSans-108"/>
     </g>
    </g>
    <g id="line2d_107">
     <path d="M 66.6 216.029812 
L 86.6 216.029812 
" style="fill:none;stroke:#8c564b;stroke-linecap:round;stroke-width:1.5;"/>
    </g>
    <g id="line2d_108"/>
    <g id="text_27">
     <!-- Cubic fit manual -->
     <g style="fill:#262626;" transform="translate(94.6 219.529812)scale(0.1 -0.1)">
      <use xlink:href="#DejaVuSans-67"/>
      <use x="69.824219" xlink:href="#DejaVuSans-117"/>
      <use x="133.203125" xlink:href="#DejaVuSans-98"/>
      <use x="196.679688" xlink:href="#DejaVuSans-105"/>
      <use x="224.462891" xlink:href="#DejaVuSans-99"/>
      <use x="279.443359" xlink:href="#DejaVuSans-32"/>
      <use x="311.230469" xlink:href="#DejaVuSans-102"/>
      <use x="346.435547" xlink:href="#DejaVuSans-105"/>
      <use x="374.21875" xlink:href="#DejaVuSans-116"/>
      <use x="413.427734" xlink:href="#DejaVuSans-32"/>
      <use x="445.214844" xlink:href="#DejaVuSans-109"/>
      <use x="542.626953" xlink:href="#DejaVuSans-97"/>
      <use x="603.90625" xlink:href="#DejaVuSans-110"/>
      <use x="667.285156" xlink:href="#DejaVuSans-117"/>
      <use x="730.664062" xlink:href="#DejaVuSans-97"/>
      <use x="791.943359" xlink:href="#DejaVuSans-108"/>
     </g>
    </g>
    <g id="LineCollection_5">
     <path d="M 76.6 235.707937 
L 76.6 225.707937 
" style="fill:none;stroke:#1f77b4;stroke-width:1.5;"/>
    </g>
    <g id="line2d_109">
     <g>
      <use style="fill:#1f77b4;stroke:#1f77b4;" x="76.6" xlink:href="#m700bd57d06" y="235.707937"/>
     </g>
    </g>
    <g id="line2d_110">
     <g>
      <use style="fill:#1f77b4;stroke:#1f77b4;" x="76.6" xlink:href="#m700bd57d06" y="225.707937"/>
     </g>
    </g>
    <g id="line2d_111"/>
    <g id="line2d_112">
     <g>
      <use style="fill:#1f77b4;stroke:#1f77b4;" x="76.6" xlink:href="#m78f123b9b5" y="230.707937"/>
     </g>
    </g>
    <g id="text_28">
     <!-- symbolic -->
     <g style="fill:#262626;" transform="translate(94.6 234.207937)scale(0.1 -0.1)">
      <use xlink:href="#DejaVuSans-115"/>
      <use x="52.099609" xlink:href="#DejaVuSans-121"/>
      <use x="111.279297" xlink:href="#DejaVuSans-109"/>
      <use x="208.691406" xlink:href="#DejaVuSans-98"/>
      <use x="272.167969" xlink:href="#DejaVuSans-111"/>
      <use x="333.349609" xlink:href="#DejaVuSans-108"/>
      <use x="361.132812" xlink:href="#DejaVuSans-105"/>
      <use x="388.916016" xlink:href="#DejaVuSans-99"/>
     </g>
    </g>
    <g id="LineCollection_6">
     <path d="M 76.6 250.386062 
L 76.6 240.386062 
" style="fill:none;stroke:#9467bd;stroke-width:1.5;"/>
    </g>
    <g id="line2d_113">
     <g>
      <use style="fill:#9467bd;stroke:#9467bd;" x="76.6" xlink:href="#m74d7b8749b" y="250.386062"/>
     </g>
    </g>
    <g id="line2d_114">
     <g>
      <use style="fill:#9467bd;stroke:#9467bd;" x="76.6" xlink:href="#m74d7b8749b" y="240.386062"/>
     </g>
    </g>
    <g id="line2d_115"/>
    <g id="line2d_116">
     <g>
      <use style="fill:#9467bd;stroke:#9467bd;" x="76.6" xlink:href="#m7f918cfeda" y="245.386062"/>
     </g>
    </g>
    <g id="text_29">
     <!-- symbolic math -->
     <g style="fill:#262626;" transform="translate(94.6 248.886062)scale(0.1 -0.1)">
      <use xlink:href="#DejaVuSans-115"/>
      <use x="52.099609" xlink:href="#DejaVuSans-121"/>
      <use x="111.279297" xlink:href="#DejaVuSans-109"/>
      <use x="208.691406" xlink:href="#DejaVuSans-98"/>
      <use x="272.167969" xlink:href="#DejaVuSans-111"/>
      <use x="333.349609" xlink:href="#DejaVuSans-108"/>
      <use x="361.132812" xlink:href="#DejaVuSans-105"/>
      <use x="388.916016" xlink:href="#DejaVuSans-99"/>
      <use x="443.896484" xlink:href="#DejaVuSans-32"/>
      <use x="475.683594" xlink:href="#DejaVuSans-109"/>
      <use x="573.095703" xlink:href="#DejaVuSans-97"/>
      <use x="634.375" xlink:href="#DejaVuSans-116"/>
      <use x="673.583984" xlink:href="#DejaVuSans-104"/>
     </g>
    </g>
    <g id="LineCollection_7">
     <path d="M 76.6 265.064187 
L 76.6 255.064187 
" style="fill:none;stroke:#bcbd22;stroke-width:1.5;"/>
    </g>
    <g id="line2d_117">
     <g>
      <use style="fill:#bcbd22;stroke:#bcbd22;" x="76.6" xlink:href="#me440036867" y="265.064187"/>
     </g>
    </g>
    <g id="line2d_118">
     <g>
      <use style="fill:#bcbd22;stroke:#bcbd22;" x="76.6" xlink:href="#me440036867" y="255.064187"/>
     </g>
    </g>
    <g id="line2d_119"/>
    <g id="line2d_120">
     <g>
      <use style="fill:#bcbd22;stroke:#bcbd22;" x="76.6" xlink:href="#m6513cf7ff4" y="260.064187"/>
     </g>
    </g>
    <g id="text_30">
     <!-- symbolic numpy -->
     <g style="fill:#262626;" transform="translate(94.6 263.564187)scale(0.1 -0.1)">
      <use xlink:href="#DejaVuSans-115"/>
      <use x="52.099609" xlink:href="#DejaVuSans-121"/>
      <use x="111.279297" xlink:href="#DejaVuSans-109"/>
      <use x="208.691406" xlink:href="#DejaVuSans-98"/>
      <use x="272.167969" xlink:href="#DejaVuSans-111"/>
      <use x="333.349609" xlink:href="#DejaVuSans-108"/>
      <use x="361.132812" xlink:href="#DejaVuSans-105"/>
      <use x="388.916016" xlink:href="#DejaVuSans-99"/>
      <use x="443.896484" xlink:href="#DejaVuSans-32"/>
      <use x="475.683594" xlink:href="#DejaVuSans-110"/>
      <use x="539.0625" xlink:href="#DejaVuSans-117"/>
      <use x="602.441406" xlink:href="#DejaVuSans-109"/>
      <use x="699.853516" xlink:href="#DejaVuSans-112"/>
      <use x="763.330078" xlink:href="#DejaVuSans-121"/>
     </g>
    </g>
    <g id="LineCollection_8">
     <path d="M 76.6 279.742312 
L 76.6 269.742312 
" style="fill:none;stroke:#2ca02c;stroke-width:1.5;"/>
    </g>
    <g id="line2d_121">
     <g>
      <use style="fill:#2ca02c;stroke:#2ca02c;" x="76.6" xlink:href="#m0bc7def56d" y="279.742312"/>
     </g>
    </g>
    <g id="line2d_122">
     <g>
      <use style="fill:#2ca02c;stroke:#2ca02c;" x="76.6" xlink:href="#m0bc7def56d" y="269.742312"/>
     </g>
    </g>
    <g id="line2d_123"/>
    <g id="line2d_124">
     <g>
      <use style="fill:#2ca02c;stroke:#2ca02c;" x="76.6" xlink:href="#mb9d5c54efb" y="274.742312"/>
     </g>
    </g>
    <g id="text_31">
     <!-- manual -->
     <g style="fill:#262626;" transform="translate(94.6 278.242312)scale(0.1 -0.1)">
      <use xlink:href="#DejaVuSans-109"/>
      <use x="97.412109" xlink:href="#DejaVuSans-97"/>
      <use x="158.691406" xlink:href="#DejaVuSans-110"/>
      <use x="222.070312" xlink:href="#DejaVuSans-117"/>
      <use x="285.449219" xlink:href="#DejaVuSans-97"/>
      <use x="346.728516" xlink:href="#DejaVuSans-108"/>
     </g>
    </g>
   </g>
  </g>
 </g>
 <defs>
  <clipPath id="paf0e3cae16">
   <rect height="266.112" width="357.12" x="57.6" y="41.472"/>
  </clipPath>
 </defs>
</svg>
