<?xml version="1.0" encoding="utf-8" standalone="no"?>
<!DOCTYPE svg PUBLIC "-//W3C//DTD SVG 1.1//EN"
  "http://www.w3.org/Graphics/SVG/1.1/DTD/svg11.dtd">
<!-- Created with matplotlib (https://matplotlib.org/) -->
<svg height="345.6pt" version="1.1" viewBox="0 0 460.8 345.6" width="460.8pt" xmlns="http://www.w3.org/2000/svg" xmlns:xlink="http://www.w3.org/1999/xlink">
 <metadata>
  <rdf:RDF xmlns:cc="http://creativecommons.org/ns#" xmlns:dc="http://purl.org/dc/elements/1.1/" xmlns:rdf="http://www.w3.org/1999/02/22-rdf-syntax-ns#">
   <cc:Work>
    <dc:type rdf:resource="http://purl.org/dc/dcmitype/StillImage"/>
    <dc:date>2022-01-01T16:37:02.664352</dc:date>
    <dc:format>image/svg+xml</dc:format>
    <dc:creator>
     <cc:Agent>
      <dc:title>Matplotlib v3.3.4, https://matplotlib.org/</dc:title>
     </cc:Agent>
    </dc:creator>
   </cc:Work>
  </rdf:RDF>
 </metadata>
 <defs>
  <style type="text/css">*{stroke-linecap:butt;stroke-linejoin:round;}</style>
 </defs>
 <g id="figure_1">
  <g id="patch_1">
   <path d="M 0 345.6 
L 460.8 345.6 
L 460.8 0 
L 0 0 
z
" style="fill:#ffffff;"/>
  </g>
  <g id="axes_1">
   <g id="patch_2">
    <path d="M 57.6 307.584 
L 414.72 307.584 
L 414.72 41.472 
L 57.6 41.472 
z
" style="fill:#ffffff;"/>
   </g>
   <g id="matplotlib.axis_1">
    <g id="xtick_1">
     <g id="line2d_1">
      <path clip-path="url(#p05789eafcc)" d="M 73.832727 307.584 
L 73.832727 41.472 
" style="fill:none;stroke:#cccccc;stroke-linecap:round;stroke-width:0.8;"/>
     </g>
     <g id="line2d_2"/>
     <g id="text_1">
      <!-- 2 -->
      <g style="fill:#262626;" transform="translate(70.651477 318.682437)scale(0.1 -0.1)">
       <defs>
        <path d="M 19.1875 8.296875 
L 53.609375 8.296875 
L 53.609375 0 
L 7.328125 0 
L 7.328125 8.296875 
Q 12.9375 14.109375 22.625 23.890625 
Q 32.328125 33.6875 34.8125 36.53125 
Q 39.546875 41.84375 41.421875 45.53125 
Q 43.3125 49.21875 43.3125 52.78125 
Q 43.3125 58.59375 39.234375 62.25 
Q 35.15625 65.921875 28.609375 65.921875 
Q 23.96875 65.921875 18.8125 64.3125 
Q 13.671875 62.703125 7.8125 59.421875 
L 7.8125 69.390625 
Q 13.765625 71.78125 18.9375 73 
Q 24.125 74.21875 28.421875 74.21875 
Q 39.75 74.21875 46.484375 68.546875 
Q 53.21875 62.890625 53.21875 53.421875 
Q 53.21875 48.921875 51.53125 44.890625 
Q 49.859375 40.875 45.40625 35.40625 
Q 44.1875 33.984375 37.640625 27.21875 
Q 31.109375 20.453125 19.1875 8.296875 
z
" id="DejaVuSans-50"/>
       </defs>
       <use xlink:href="#DejaVuSans-50"/>
      </g>
     </g>
    </g>
    <g id="xtick_2">
     <g id="line2d_3">
      <path clip-path="url(#p05789eafcc)" d="M 114.414545 307.584 
L 114.414545 41.472 
" style="fill:none;stroke:#cccccc;stroke-linecap:round;stroke-width:0.8;"/>
     </g>
     <g id="line2d_4"/>
     <g id="text_2">
      <!-- 4 -->
      <g style="fill:#262626;" transform="translate(111.233295 318.682437)scale(0.1 -0.1)">
       <defs>
        <path d="M 37.796875 64.3125 
L 12.890625 25.390625 
L 37.796875 25.390625 
z
M 35.203125 72.90625 
L 47.609375 72.90625 
L 47.609375 25.390625 
L 58.015625 25.390625 
L 58.015625 17.1875 
L 47.609375 17.1875 
L 47.609375 0 
L 37.796875 0 
L 37.796875 17.1875 
L 4.890625 17.1875 
L 4.890625 26.703125 
z
" id="DejaVuSans-52"/>
       </defs>
       <use xlink:href="#DejaVuSans-52"/>
      </g>
     </g>
    </g>
    <g id="xtick_3">
     <g id="line2d_5">
      <path clip-path="url(#p05789eafcc)" d="M 154.996364 307.584 
L 154.996364 41.472 
" style="fill:none;stroke:#cccccc;stroke-linecap:round;stroke-width:0.8;"/>
     </g>
     <g id="line2d_6"/>
     <g id="text_3">
      <!-- 6 -->
      <g style="fill:#262626;" transform="translate(151.815114 318.682437)scale(0.1 -0.1)">
       <defs>
        <path d="M 33.015625 40.375 
Q 26.375 40.375 22.484375 35.828125 
Q 18.609375 31.296875 18.609375 23.390625 
Q 18.609375 15.53125 22.484375 10.953125 
Q 26.375 6.390625 33.015625 6.390625 
Q 39.65625 6.390625 43.53125 10.953125 
Q 47.40625 15.53125 47.40625 23.390625 
Q 47.40625 31.296875 43.53125 35.828125 
Q 39.65625 40.375 33.015625 40.375 
z
M 52.59375 71.296875 
L 52.59375 62.3125 
Q 48.875 64.0625 45.09375 64.984375 
Q 41.3125 65.921875 37.59375 65.921875 
Q 27.828125 65.921875 22.671875 59.328125 
Q 17.53125 52.734375 16.796875 39.40625 
Q 19.671875 43.65625 24.015625 45.921875 
Q 28.375 48.1875 33.59375 48.1875 
Q 44.578125 48.1875 50.953125 41.515625 
Q 57.328125 34.859375 57.328125 23.390625 
Q 57.328125 12.15625 50.6875 5.359375 
Q 44.046875 -1.421875 33.015625 -1.421875 
Q 20.359375 -1.421875 13.671875 8.265625 
Q 6.984375 17.96875 6.984375 36.375 
Q 6.984375 53.65625 15.1875 63.9375 
Q 23.390625 74.21875 37.203125 74.21875 
Q 40.921875 74.21875 44.703125 73.484375 
Q 48.484375 72.75 52.59375 71.296875 
z
" id="DejaVuSans-54"/>
       </defs>
       <use xlink:href="#DejaVuSans-54"/>
      </g>
     </g>
    </g>
    <g id="xtick_4">
     <g id="line2d_7">
      <path clip-path="url(#p05789eafcc)" d="M 195.578182 307.584 
L 195.578182 41.472 
" style="fill:none;stroke:#cccccc;stroke-linecap:round;stroke-width:0.8;"/>
     </g>
     <g id="line2d_8"/>
     <g id="text_4">
      <!-- 8 -->
      <g style="fill:#262626;" transform="translate(192.396932 318.682437)scale(0.1 -0.1)">
       <defs>
        <path d="M 31.78125 34.625 
Q 24.75 34.625 20.71875 30.859375 
Q 16.703125 27.09375 16.703125 20.515625 
Q 16.703125 13.921875 20.71875 10.15625 
Q 24.75 6.390625 31.78125 6.390625 
Q 38.8125 6.390625 42.859375 10.171875 
Q 46.921875 13.96875 46.921875 20.515625 
Q 46.921875 27.09375 42.890625 30.859375 
Q 38.875 34.625 31.78125 34.625 
z
M 21.921875 38.8125 
Q 15.578125 40.375 12.03125 44.71875 
Q 8.5 49.078125 8.5 55.328125 
Q 8.5 64.0625 14.71875 69.140625 
Q 20.953125 74.21875 31.78125 74.21875 
Q 42.671875 74.21875 48.875 69.140625 
Q 55.078125 64.0625 55.078125 55.328125 
Q 55.078125 49.078125 51.53125 44.71875 
Q 48 40.375 41.703125 38.8125 
Q 48.828125 37.15625 52.796875 32.3125 
Q 56.78125 27.484375 56.78125 20.515625 
Q 56.78125 9.90625 50.3125 4.234375 
Q 43.84375 -1.421875 31.78125 -1.421875 
Q 19.734375 -1.421875 13.25 4.234375 
Q 6.78125 9.90625 6.78125 20.515625 
Q 6.78125 27.484375 10.78125 32.3125 
Q 14.796875 37.15625 21.921875 38.8125 
z
M 18.3125 54.390625 
Q 18.3125 48.734375 21.84375 45.5625 
Q 25.390625 42.390625 31.78125 42.390625 
Q 38.140625 42.390625 41.71875 45.5625 
Q 45.3125 48.734375 45.3125 54.390625 
Q 45.3125 60.0625 41.71875 63.234375 
Q 38.140625 66.40625 31.78125 66.40625 
Q 25.390625 66.40625 21.84375 63.234375 
Q 18.3125 60.0625 18.3125 54.390625 
z
" id="DejaVuSans-56"/>
       </defs>
       <use xlink:href="#DejaVuSans-56"/>
      </g>
     </g>
    </g>
    <g id="xtick_5">
     <g id="line2d_9">
      <path clip-path="url(#p05789eafcc)" d="M 236.16 307.584 
L 236.16 41.472 
" style="fill:none;stroke:#cccccc;stroke-linecap:round;stroke-width:0.8;"/>
     </g>
     <g id="line2d_10"/>
     <g id="text_5">
      <!-- 10 -->
      <g style="fill:#262626;" transform="translate(229.7975 318.682437)scale(0.1 -0.1)">
       <defs>
        <path d="M 12.40625 8.296875 
L 28.515625 8.296875 
L 28.515625 63.921875 
L 10.984375 60.40625 
L 10.984375 69.390625 
L 28.421875 72.90625 
L 38.28125 72.90625 
L 38.28125 8.296875 
L 54.390625 8.296875 
L 54.390625 0 
L 12.40625 0 
z
" id="DejaVuSans-49"/>
        <path d="M 31.78125 66.40625 
Q 24.171875 66.40625 20.328125 58.90625 
Q 16.5 51.421875 16.5 36.375 
Q 16.5 21.390625 20.328125 13.890625 
Q 24.171875 6.390625 31.78125 6.390625 
Q 39.453125 6.390625 43.28125 13.890625 
Q 47.125 21.390625 47.125 36.375 
Q 47.125 51.421875 43.28125 58.90625 
Q 39.453125 66.40625 31.78125 66.40625 
z
M 31.78125 74.21875 
Q 44.046875 74.21875 50.515625 64.515625 
Q 56.984375 54.828125 56.984375 36.375 
Q 56.984375 17.96875 50.515625 8.265625 
Q 44.046875 -1.421875 31.78125 -1.421875 
Q 19.53125 -1.421875 13.0625 8.265625 
Q 6.59375 17.96875 6.59375 36.375 
Q 6.59375 54.828125 13.0625 64.515625 
Q 19.53125 74.21875 31.78125 74.21875 
z
" id="DejaVuSans-48"/>
       </defs>
       <use xlink:href="#DejaVuSans-49"/>
       <use x="63.623047" xlink:href="#DejaVuSans-48"/>
      </g>
     </g>
    </g>
    <g id="xtick_6">
     <g id="line2d_11">
      <path clip-path="url(#p05789eafcc)" d="M 276.741818 307.584 
L 276.741818 41.472 
" style="fill:none;stroke:#cccccc;stroke-linecap:round;stroke-width:0.8;"/>
     </g>
     <g id="line2d_12"/>
     <g id="text_6">
      <!-- 12 -->
      <g style="fill:#262626;" transform="translate(270.379318 318.682437)scale(0.1 -0.1)">
       <use xlink:href="#DejaVuSans-49"/>
       <use x="63.623047" xlink:href="#DejaVuSans-50"/>
      </g>
     </g>
    </g>
    <g id="xtick_7">
     <g id="line2d_13">
      <path clip-path="url(#p05789eafcc)" d="M 317.323636 307.584 
L 317.323636 41.472 
" style="fill:none;stroke:#cccccc;stroke-linecap:round;stroke-width:0.8;"/>
     </g>
     <g id="line2d_14"/>
     <g id="text_7">
      <!-- 14 -->
      <g style="fill:#262626;" transform="translate(310.961136 318.682437)scale(0.1 -0.1)">
       <use xlink:href="#DejaVuSans-49"/>
       <use x="63.623047" xlink:href="#DejaVuSans-52"/>
      </g>
     </g>
    </g>
    <g id="xtick_8">
     <g id="line2d_15">
      <path clip-path="url(#p05789eafcc)" d="M 357.905455 307.584 
L 357.905455 41.472 
" style="fill:none;stroke:#cccccc;stroke-linecap:round;stroke-width:0.8;"/>
     </g>
     <g id="line2d_16"/>
     <g id="text_8">
      <!-- 16 -->
      <g style="fill:#262626;" transform="translate(351.542955 318.682437)scale(0.1 -0.1)">
       <use xlink:href="#DejaVuSans-49"/>
       <use x="63.623047" xlink:href="#DejaVuSans-54"/>
      </g>
     </g>
    </g>
    <g id="xtick_9">
     <g id="line2d_17">
      <path clip-path="url(#p05789eafcc)" d="M 398.487273 307.584 
L 398.487273 41.472 
" style="fill:none;stroke:#cccccc;stroke-linecap:round;stroke-width:0.8;"/>
     </g>
     <g id="line2d_18"/>
     <g id="text_9">
      <!-- 18 -->
      <g style="fill:#262626;" transform="translate(392.124773 318.682437)scale(0.1 -0.1)">
       <use xlink:href="#DejaVuSans-49"/>
       <use x="63.623047" xlink:href="#DejaVuSans-56"/>
      </g>
     </g>
    </g>
    <g id="text_10">
     <!-- number of equations -->
     <g style="fill:#262626;" transform="translate(183.982656 332.360562)scale(0.1 -0.1)">
      <defs>
       <path d="M 54.890625 33.015625 
L 54.890625 0 
L 45.90625 0 
L 45.90625 32.71875 
Q 45.90625 40.484375 42.875 44.328125 
Q 39.84375 48.1875 33.796875 48.1875 
Q 26.515625 48.1875 22.3125 43.546875 
Q 18.109375 38.921875 18.109375 30.90625 
L 18.109375 0 
L 9.078125 0 
L 9.078125 54.6875 
L 18.109375 54.6875 
L 18.109375 46.1875 
Q 21.34375 51.125 25.703125 53.5625 
Q 30.078125 56 35.796875 56 
Q 45.21875 56 50.046875 50.171875 
Q 54.890625 44.34375 54.890625 33.015625 
z
" id="DejaVuSans-110"/>
       <path d="M 8.5 21.578125 
L 8.5 54.6875 
L 17.484375 54.6875 
L 17.484375 21.921875 
Q 17.484375 14.15625 20.5 10.265625 
Q 23.53125 6.390625 29.59375 6.390625 
Q 36.859375 6.390625 41.078125 11.03125 
Q 45.3125 15.671875 45.3125 23.6875 
L 45.3125 54.6875 
L 54.296875 54.6875 
L 54.296875 0 
L 45.3125 0 
L 45.3125 8.40625 
Q 42.046875 3.421875 37.71875 1 
Q 33.40625 -1.421875 27.6875 -1.421875 
Q 18.265625 -1.421875 13.375 4.4375 
Q 8.5 10.296875 8.5 21.578125 
z
M 31.109375 56 
z
" id="DejaVuSans-117"/>
       <path d="M 52 44.1875 
Q 55.375 50.25 60.0625 53.125 
Q 64.75 56 71.09375 56 
Q 79.640625 56 84.28125 50.015625 
Q 88.921875 44.046875 88.921875 33.015625 
L 88.921875 0 
L 79.890625 0 
L 79.890625 32.71875 
Q 79.890625 40.578125 77.09375 44.375 
Q 74.3125 48.1875 68.609375 48.1875 
Q 61.625 48.1875 57.5625 43.546875 
Q 53.515625 38.921875 53.515625 30.90625 
L 53.515625 0 
L 44.484375 0 
L 44.484375 32.71875 
Q 44.484375 40.625 41.703125 44.40625 
Q 38.921875 48.1875 33.109375 48.1875 
Q 26.21875 48.1875 22.15625 43.53125 
Q 18.109375 38.875 18.109375 30.90625 
L 18.109375 0 
L 9.078125 0 
L 9.078125 54.6875 
L 18.109375 54.6875 
L 18.109375 46.1875 
Q 21.1875 51.21875 25.484375 53.609375 
Q 29.78125 56 35.6875 56 
Q 41.65625 56 45.828125 52.96875 
Q 50 49.953125 52 44.1875 
z
" id="DejaVuSans-109"/>
       <path d="M 48.6875 27.296875 
Q 48.6875 37.203125 44.609375 42.84375 
Q 40.53125 48.484375 33.40625 48.484375 
Q 26.265625 48.484375 22.1875 42.84375 
Q 18.109375 37.203125 18.109375 27.296875 
Q 18.109375 17.390625 22.1875 11.75 
Q 26.265625 6.109375 33.40625 6.109375 
Q 40.53125 6.109375 44.609375 11.75 
Q 48.6875 17.390625 48.6875 27.296875 
z
M 18.109375 46.390625 
Q 20.953125 51.265625 25.265625 53.625 
Q 29.59375 56 35.59375 56 
Q 45.5625 56 51.78125 48.09375 
Q 58.015625 40.1875 58.015625 27.296875 
Q 58.015625 14.40625 51.78125 6.484375 
Q 45.5625 -1.421875 35.59375 -1.421875 
Q 29.59375 -1.421875 25.265625 0.953125 
Q 20.953125 3.328125 18.109375 8.203125 
L 18.109375 0 
L 9.078125 0 
L 9.078125 75.984375 
L 18.109375 75.984375 
z
" id="DejaVuSans-98"/>
       <path d="M 56.203125 29.59375 
L 56.203125 25.203125 
L 14.890625 25.203125 
Q 15.484375 15.921875 20.484375 11.0625 
Q 25.484375 6.203125 34.421875 6.203125 
Q 39.59375 6.203125 44.453125 7.46875 
Q 49.3125 8.734375 54.109375 11.28125 
L 54.109375 2.78125 
Q 49.265625 0.734375 44.1875 -0.34375 
Q 39.109375 -1.421875 33.890625 -1.421875 
Q 20.796875 -1.421875 13.15625 6.1875 
Q 5.515625 13.8125 5.515625 26.8125 
Q 5.515625 40.234375 12.765625 48.109375 
Q 20.015625 56 32.328125 56 
Q 43.359375 56 49.78125 48.890625 
Q 56.203125 41.796875 56.203125 29.59375 
z
M 47.21875 32.234375 
Q 47.125 39.59375 43.09375 43.984375 
Q 39.0625 48.390625 32.421875 48.390625 
Q 24.90625 48.390625 20.390625 44.140625 
Q 15.875 39.890625 15.1875 32.171875 
z
" id="DejaVuSans-101"/>
       <path d="M 41.109375 46.296875 
Q 39.59375 47.171875 37.8125 47.578125 
Q 36.03125 48 33.890625 48 
Q 26.265625 48 22.1875 43.046875 
Q 18.109375 38.09375 18.109375 28.8125 
L 18.109375 0 
L 9.078125 0 
L 9.078125 54.6875 
L 18.109375 54.6875 
L 18.109375 46.1875 
Q 20.953125 51.171875 25.484375 53.578125 
Q 30.03125 56 36.53125 56 
Q 37.453125 56 38.578125 55.875 
Q 39.703125 55.765625 41.0625 55.515625 
z
" id="DejaVuSans-114"/>
       <path id="DejaVuSans-32"/>
       <path d="M 30.609375 48.390625 
Q 23.390625 48.390625 19.1875 42.75 
Q 14.984375 37.109375 14.984375 27.296875 
Q 14.984375 17.484375 19.15625 11.84375 
Q 23.34375 6.203125 30.609375 6.203125 
Q 37.796875 6.203125 41.984375 11.859375 
Q 46.1875 17.53125 46.1875 27.296875 
Q 46.1875 37.015625 41.984375 42.703125 
Q 37.796875 48.390625 30.609375 48.390625 
z
M 30.609375 56 
Q 42.328125 56 49.015625 48.375 
Q 55.71875 40.765625 55.71875 27.296875 
Q 55.71875 13.875 49.015625 6.21875 
Q 42.328125 -1.421875 30.609375 -1.421875 
Q 18.84375 -1.421875 12.171875 6.21875 
Q 5.515625 13.875 5.515625 27.296875 
Q 5.515625 40.765625 12.171875 48.375 
Q 18.84375 56 30.609375 56 
z
" id="DejaVuSans-111"/>
       <path d="M 37.109375 75.984375 
L 37.109375 68.5 
L 28.515625 68.5 
Q 23.6875 68.5 21.796875 66.546875 
Q 19.921875 64.59375 19.921875 59.515625 
L 19.921875 54.6875 
L 34.71875 54.6875 
L 34.71875 47.703125 
L 19.921875 47.703125 
L 19.921875 0 
L 10.890625 0 
L 10.890625 47.703125 
L 2.296875 47.703125 
L 2.296875 54.6875 
L 10.890625 54.6875 
L 10.890625 58.5 
Q 10.890625 67.625 15.140625 71.796875 
Q 19.390625 75.984375 28.609375 75.984375 
z
" id="DejaVuSans-102"/>
       <path d="M 14.796875 27.296875 
Q 14.796875 17.390625 18.875 11.75 
Q 22.953125 6.109375 30.078125 6.109375 
Q 37.203125 6.109375 41.296875 11.75 
Q 45.40625 17.390625 45.40625 27.296875 
Q 45.40625 37.203125 41.296875 42.84375 
Q 37.203125 48.484375 30.078125 48.484375 
Q 22.953125 48.484375 18.875 42.84375 
Q 14.796875 37.203125 14.796875 27.296875 
z
M 45.40625 8.203125 
Q 42.578125 3.328125 38.25 0.953125 
Q 33.9375 -1.421875 27.875 -1.421875 
Q 17.96875 -1.421875 11.734375 6.484375 
Q 5.515625 14.40625 5.515625 27.296875 
Q 5.515625 40.1875 11.734375 48.09375 
Q 17.96875 56 27.875 56 
Q 33.9375 56 38.25 53.625 
Q 42.578125 51.265625 45.40625 46.390625 
L 45.40625 54.6875 
L 54.390625 54.6875 
L 54.390625 -20.796875 
L 45.40625 -20.796875 
z
" id="DejaVuSans-113"/>
       <path d="M 34.28125 27.484375 
Q 23.390625 27.484375 19.1875 25 
Q 14.984375 22.515625 14.984375 16.5 
Q 14.984375 11.71875 18.140625 8.90625 
Q 21.296875 6.109375 26.703125 6.109375 
Q 34.1875 6.109375 38.703125 11.40625 
Q 43.21875 16.703125 43.21875 25.484375 
L 43.21875 27.484375 
z
M 52.203125 31.203125 
L 52.203125 0 
L 43.21875 0 
L 43.21875 8.296875 
Q 40.140625 3.328125 35.546875 0.953125 
Q 30.953125 -1.421875 24.3125 -1.421875 
Q 15.921875 -1.421875 10.953125 3.296875 
Q 6 8.015625 6 15.921875 
Q 6 25.140625 12.171875 29.828125 
Q 18.359375 34.515625 30.609375 34.515625 
L 43.21875 34.515625 
L 43.21875 35.40625 
Q 43.21875 41.609375 39.140625 45 
Q 35.0625 48.390625 27.6875 48.390625 
Q 23 48.390625 18.546875 47.265625 
Q 14.109375 46.140625 10.015625 43.890625 
L 10.015625 52.203125 
Q 14.9375 54.109375 19.578125 55.046875 
Q 24.21875 56 28.609375 56 
Q 40.484375 56 46.34375 49.84375 
Q 52.203125 43.703125 52.203125 31.203125 
z
" id="DejaVuSans-97"/>
       <path d="M 18.3125 70.21875 
L 18.3125 54.6875 
L 36.8125 54.6875 
L 36.8125 47.703125 
L 18.3125 47.703125 
L 18.3125 18.015625 
Q 18.3125 11.328125 20.140625 9.421875 
Q 21.96875 7.515625 27.59375 7.515625 
L 36.8125 7.515625 
L 36.8125 0 
L 27.59375 0 
Q 17.1875 0 13.234375 3.875 
Q 9.28125 7.765625 9.28125 18.015625 
L 9.28125 47.703125 
L 2.6875 47.703125 
L 2.6875 54.6875 
L 9.28125 54.6875 
L 9.28125 70.21875 
z
" id="DejaVuSans-116"/>
       <path d="M 9.421875 54.6875 
L 18.40625 54.6875 
L 18.40625 0 
L 9.421875 0 
z
M 9.421875 75.984375 
L 18.40625 75.984375 
L 18.40625 64.59375 
L 9.421875 64.59375 
z
" id="DejaVuSans-105"/>
       <path d="M 44.28125 53.078125 
L 44.28125 44.578125 
Q 40.484375 46.53125 36.375 47.5 
Q 32.28125 48.484375 27.875 48.484375 
Q 21.1875 48.484375 17.84375 46.4375 
Q 14.5 44.390625 14.5 40.28125 
Q 14.5 37.15625 16.890625 35.375 
Q 19.28125 33.59375 26.515625 31.984375 
L 29.59375 31.296875 
Q 39.15625 29.25 43.1875 25.515625 
Q 47.21875 21.78125 47.21875 15.09375 
Q 47.21875 7.46875 41.1875 3.015625 
Q 35.15625 -1.421875 24.609375 -1.421875 
Q 20.21875 -1.421875 15.453125 -0.5625 
Q 10.6875 0.296875 5.421875 2 
L 5.421875 11.28125 
Q 10.40625 8.6875 15.234375 7.390625 
Q 20.0625 6.109375 24.8125 6.109375 
Q 31.15625 6.109375 34.5625 8.28125 
Q 37.984375 10.453125 37.984375 14.40625 
Q 37.984375 18.0625 35.515625 20.015625 
Q 33.0625 21.96875 24.703125 23.78125 
L 21.578125 24.515625 
Q 13.234375 26.265625 9.515625 29.90625 
Q 5.8125 33.546875 5.8125 39.890625 
Q 5.8125 47.609375 11.28125 51.796875 
Q 16.75 56 26.8125 56 
Q 31.78125 56 36.171875 55.265625 
Q 40.578125 54.546875 44.28125 53.078125 
z
" id="DejaVuSans-115"/>
      </defs>
      <use xlink:href="#DejaVuSans-110"/>
      <use x="63.378906" xlink:href="#DejaVuSans-117"/>
      <use x="126.757812" xlink:href="#DejaVuSans-109"/>
      <use x="224.169922" xlink:href="#DejaVuSans-98"/>
      <use x="287.646484" xlink:href="#DejaVuSans-101"/>
      <use x="349.169922" xlink:href="#DejaVuSans-114"/>
      <use x="390.283203" xlink:href="#DejaVuSans-32"/>
      <use x="422.070312" xlink:href="#DejaVuSans-111"/>
      <use x="483.251953" xlink:href="#DejaVuSans-102"/>
      <use x="518.457031" xlink:href="#DejaVuSans-32"/>
      <use x="550.244141" xlink:href="#DejaVuSans-101"/>
      <use x="611.767578" xlink:href="#DejaVuSans-113"/>
      <use x="675.244141" xlink:href="#DejaVuSans-117"/>
      <use x="738.623047" xlink:href="#DejaVuSans-97"/>
      <use x="799.902344" xlink:href="#DejaVuSans-116"/>
      <use x="839.111328" xlink:href="#DejaVuSans-105"/>
      <use x="866.894531" xlink:href="#DejaVuSans-111"/>
      <use x="928.076172" xlink:href="#DejaVuSans-110"/>
      <use x="991.455078" xlink:href="#DejaVuSans-115"/>
     </g>
    </g>
   </g>
   <g id="matplotlib.axis_2">
    <g id="ytick_1">
     <g id="line2d_19">
      <path clip-path="url(#p05789eafcc)" d="M 57.6 303.067812 
L 414.72 303.067812 
" style="fill:none;stroke:#cccccc;stroke-linecap:round;stroke-width:0.8;"/>
     </g>
     <g id="line2d_20"/>
     <g id="text_11">
      <!-- $\mathdefault{10^{-4}}$ -->
      <g style="fill:#262626;" transform="translate(30.6 306.867031)scale(0.1 -0.1)">
       <defs>
        <path d="M 10.59375 35.5 
L 73.1875 35.5 
L 73.1875 27.203125 
L 10.59375 27.203125 
z
" id="DejaVuSans-8722"/>
       </defs>
       <use transform="translate(0 0.684375)" xlink:href="#DejaVuSans-49"/>
       <use transform="translate(63.623047 0.684375)" xlink:href="#DejaVuSans-48"/>
       <use transform="translate(128.203125 38.965625)scale(0.7)" xlink:href="#DejaVuSans-8722"/>
       <use transform="translate(186.855469 38.965625)scale(0.7)" xlink:href="#DejaVuSans-52"/>
      </g>
     </g>
    </g>
    <g id="ytick_2">
     <g id="line2d_21">
      <path clip-path="url(#p05789eafcc)" d="M 57.6 251.727614 
L 414.72 251.727614 
" style="fill:none;stroke:#cccccc;stroke-linecap:round;stroke-width:0.8;"/>
     </g>
     <g id="line2d_22"/>
     <g id="text_12">
      <!-- $\mathdefault{10^{-3}}$ -->
      <g style="fill:#262626;" transform="translate(30.6 255.526833)scale(0.1 -0.1)">
       <defs>
        <path d="M 40.578125 39.3125 
Q 47.65625 37.796875 51.625 33 
Q 55.609375 28.21875 55.609375 21.1875 
Q 55.609375 10.40625 48.1875 4.484375 
Q 40.765625 -1.421875 27.09375 -1.421875 
Q 22.515625 -1.421875 17.65625 -0.515625 
Q 12.796875 0.390625 7.625 2.203125 
L 7.625 11.71875 
Q 11.71875 9.328125 16.59375 8.109375 
Q 21.484375 6.890625 26.8125 6.890625 
Q 36.078125 6.890625 40.9375 10.546875 
Q 45.796875 14.203125 45.796875 21.1875 
Q 45.796875 27.640625 41.28125 31.265625 
Q 36.765625 34.90625 28.71875 34.90625 
L 20.21875 34.90625 
L 20.21875 43.015625 
L 29.109375 43.015625 
Q 36.375 43.015625 40.234375 45.921875 
Q 44.09375 48.828125 44.09375 54.296875 
Q 44.09375 59.90625 40.109375 62.90625 
Q 36.140625 65.921875 28.71875 65.921875 
Q 24.65625 65.921875 20.015625 65.03125 
Q 15.375 64.15625 9.8125 62.3125 
L 9.8125 71.09375 
Q 15.4375 72.65625 20.34375 73.4375 
Q 25.25 74.21875 29.59375 74.21875 
Q 40.828125 74.21875 47.359375 69.109375 
Q 53.90625 64.015625 53.90625 55.328125 
Q 53.90625 49.265625 50.4375 45.09375 
Q 46.96875 40.921875 40.578125 39.3125 
z
" id="DejaVuSans-51"/>
       </defs>
       <use transform="translate(0 0.765625)" xlink:href="#DejaVuSans-49"/>
       <use transform="translate(63.623047 0.765625)" xlink:href="#DejaVuSans-48"/>
       <use transform="translate(128.203125 39.046875)scale(0.7)" xlink:href="#DejaVuSans-8722"/>
       <use transform="translate(186.855469 39.046875)scale(0.7)" xlink:href="#DejaVuSans-51"/>
      </g>
     </g>
    </g>
    <g id="ytick_3">
     <g id="line2d_23">
      <path clip-path="url(#p05789eafcc)" d="M 57.6 200.387416 
L 414.72 200.387416 
" style="fill:none;stroke:#cccccc;stroke-linecap:round;stroke-width:0.8;"/>
     </g>
     <g id="line2d_24"/>
     <g id="text_13">
      <!-- $\mathdefault{10^{-2}}$ -->
      <g style="fill:#262626;" transform="translate(30.6 204.186634)scale(0.1 -0.1)">
       <use transform="translate(0 0.765625)" xlink:href="#DejaVuSans-49"/>
       <use transform="translate(63.623047 0.765625)" xlink:href="#DejaVuSans-48"/>
       <use transform="translate(128.203125 39.046875)scale(0.7)" xlink:href="#DejaVuSans-8722"/>
       <use transform="translate(186.855469 39.046875)scale(0.7)" xlink:href="#DejaVuSans-50"/>
      </g>
     </g>
    </g>
    <g id="ytick_4">
     <g id="line2d_25">
      <path clip-path="url(#p05789eafcc)" d="M 57.6 149.047218 
L 414.72 149.047218 
" style="fill:none;stroke:#cccccc;stroke-linecap:round;stroke-width:0.8;"/>
     </g>
     <g id="line2d_26"/>
     <g id="text_14">
      <!-- $\mathdefault{10^{-1}}$ -->
      <g style="fill:#262626;" transform="translate(30.6 152.846436)scale(0.1 -0.1)">
       <use transform="translate(0 0.684375)" xlink:href="#DejaVuSans-49"/>
       <use transform="translate(63.623047 0.684375)" xlink:href="#DejaVuSans-48"/>
       <use transform="translate(128.203125 38.965625)scale(0.7)" xlink:href="#DejaVuSans-8722"/>
       <use transform="translate(186.855469 38.965625)scale(0.7)" xlink:href="#DejaVuSans-49"/>
      </g>
     </g>
    </g>
    <g id="ytick_5">
     <g id="line2d_27">
      <path clip-path="url(#p05789eafcc)" d="M 57.6 97.707019 
L 414.72 97.707019 
" style="fill:none;stroke:#cccccc;stroke-linecap:round;stroke-width:0.8;"/>
     </g>
     <g id="line2d_28"/>
     <g id="text_15">
      <!-- $\mathdefault{10^{0}}$ -->
      <g style="fill:#262626;" transform="translate(36.5 101.506238)scale(0.1 -0.1)">
       <use transform="translate(0 0.765625)" xlink:href="#DejaVuSans-49"/>
       <use transform="translate(63.623047 0.765625)" xlink:href="#DejaVuSans-48"/>
       <use transform="translate(128.203125 39.046875)scale(0.7)" xlink:href="#DejaVuSans-48"/>
      </g>
     </g>
    </g>
    <g id="ytick_6">
     <g id="line2d_29">
      <path clip-path="url(#p05789eafcc)" d="M 57.6 46.366821 
L 414.72 46.366821 
" style="fill:none;stroke:#cccccc;stroke-linecap:round;stroke-width:0.8;"/>
     </g>
     <g id="line2d_30"/>
     <g id="text_16">
      <!-- $\mathdefault{10^{1}}$ -->
      <g style="fill:#262626;" transform="translate(36.5 50.16604)scale(0.1 -0.1)">
       <use transform="translate(0 0.684375)" xlink:href="#DejaVuSans-49"/>
       <use transform="translate(63.623047 0.684375)" xlink:href="#DejaVuSans-48"/>
       <use transform="translate(128.203125 38.965625)scale(0.7)" xlink:href="#DejaVuSans-49"/>
      </g>
     </g>
    </g>
    <g id="ytick_7">
     <g id="line2d_31"/>
    </g>
    <g id="ytick_8">
     <g id="line2d_32"/>
    </g>
    <g id="ytick_9">
     <g id="line2d_33"/>
    </g>
    <g id="ytick_10">
     <g id="line2d_34"/>
    </g>
    <g id="ytick_11">
     <g id="line2d_35"/>
    </g>
    <g id="ytick_12">
     <g id="line2d_36"/>
    </g>
    <g id="ytick_13">
     <g id="line2d_37"/>
    </g>
    <g id="ytick_14">
     <g id="line2d_38"/>
    </g>
    <g id="ytick_15">
     <g id="line2d_39"/>
    </g>
    <g id="ytick_16">
     <g id="line2d_40"/>
    </g>
    <g id="ytick_17">
     <g id="line2d_41"/>
    </g>
    <g id="ytick_18">
     <g id="line2d_42"/>
    </g>
    <g id="ytick_19">
     <g id="line2d_43"/>
    </g>
    <g id="ytick_20">
     <g id="line2d_44"/>
    </g>
    <g id="ytick_21">
     <g id="line2d_45"/>
    </g>
    <g id="ytick_22">
     <g id="line2d_46"/>
    </g>
    <g id="ytick_23">
     <g id="line2d_47"/>
    </g>
    <g id="ytick_24">
     <g id="line2d_48"/>
    </g>
    <g id="ytick_25">
     <g id="line2d_49"/>
    </g>
    <g id="ytick_26">
     <g id="line2d_50"/>
    </g>
    <g id="ytick_27">
     <g id="line2d_51"/>
    </g>
    <g id="ytick_28">
     <g id="line2d_52"/>
    </g>
    <g id="ytick_29">
     <g id="line2d_53"/>
    </g>
    <g id="ytick_30">
     <g id="line2d_54"/>
    </g>
    <g id="ytick_31">
     <g id="line2d_55"/>
    </g>
    <g id="ytick_32">
     <g id="line2d_56"/>
    </g>
    <g id="ytick_33">
     <g id="line2d_57"/>
    </g>
    <g id="ytick_34">
     <g id="line2d_58"/>
    </g>
    <g id="ytick_35">
     <g id="line2d_59"/>
    </g>
    <g id="ytick_36">
     <g id="line2d_60"/>
    </g>
    <g id="ytick_37">
     <g id="line2d_61"/>
    </g>
    <g id="ytick_38">
     <g id="line2d_62"/>
    </g>
    <g id="ytick_39">
     <g id="line2d_63"/>
    </g>
    <g id="ytick_40">
     <g id="line2d_64"/>
    </g>
    <g id="ytick_41">
     <g id="line2d_65"/>
    </g>
    <g id="ytick_42">
     <g id="line2d_66"/>
    </g>
    <g id="ytick_43">
     <g id="line2d_67"/>
    </g>
    <g id="ytick_44">
     <g id="line2d_68"/>
    </g>
    <g id="ytick_45">
     <g id="line2d_69"/>
    </g>
    <g id="ytick_46">
     <g id="line2d_70"/>
    </g>
    <g id="ytick_47">
     <g id="line2d_71"/>
    </g>
    <g id="text_17">
     <!-- time [s] -->
     <g style="fill:#262626;" transform="translate(24.520312 193.919406)rotate(-90)scale(0.1 -0.1)">
      <defs>
       <path d="M 8.59375 75.984375 
L 29.296875 75.984375 
L 29.296875 69 
L 17.578125 69 
L 17.578125 -6.203125 
L 29.296875 -6.203125 
L 29.296875 -13.1875 
L 8.59375 -13.1875 
z
" id="DejaVuSans-91"/>
       <path d="M 30.421875 75.984375 
L 30.421875 -13.1875 
L 9.71875 -13.1875 
L 9.71875 -6.203125 
L 21.390625 -6.203125 
L 21.390625 69 
L 9.71875 69 
L 9.71875 75.984375 
z
" id="DejaVuSans-93"/>
      </defs>
      <use xlink:href="#DejaVuSans-116"/>
      <use x="39.208984" xlink:href="#DejaVuSans-105"/>
      <use x="66.992188" xlink:href="#DejaVuSans-109"/>
      <use x="164.404297" xlink:href="#DejaVuSans-101"/>
      <use x="225.927734" xlink:href="#DejaVuSans-32"/>
      <use x="257.714844" xlink:href="#DejaVuSans-91"/>
      <use x="296.728516" xlink:href="#DejaVuSans-115"/>
      <use x="348.828125" xlink:href="#DejaVuSans-93"/>
     </g>
    </g>
   </g>
   <g id="LineCollection_1">
    <path clip-path="url(#p05789eafcc)" d="M 73.832727 185.996024 
L 73.832727 182.501336 
" style="fill:none;stroke:#1f77b4;stroke-width:1.5;"/>
    <path clip-path="url(#p05789eafcc)" d="M 114.414545 150.474769 
L 114.414545 149.449704 
" style="fill:none;stroke:#1f77b4;stroke-width:1.5;"/>
    <path clip-path="url(#p05789eafcc)" d="M 154.996364 127.888504 
L 154.996364 127.167961 
" style="fill:none;stroke:#1f77b4;stroke-width:1.5;"/>
    <path clip-path="url(#p05789eafcc)" d="M 195.578182 107.018418 
L 195.578182 106.651818 
" style="fill:none;stroke:#1f77b4;stroke-width:1.5;"/>
    <path clip-path="url(#p05789eafcc)" d="M 236.16 92.763428 
L 236.16 92.491374 
" style="fill:none;stroke:#1f77b4;stroke-width:1.5;"/>
    <path clip-path="url(#p05789eafcc)" d="M 276.741818 81.906943 
L 276.741818 81.710425 
" style="fill:none;stroke:#1f77b4;stroke-width:1.5;"/>
    <path clip-path="url(#p05789eafcc)" d="M 317.323636 71.913901 
L 317.323636 71.752035 
" style="fill:none;stroke:#1f77b4;stroke-width:1.5;"/>
    <path clip-path="url(#p05789eafcc)" d="M 357.905455 61.369747 
L 357.905455 61.146801 
" style="fill:none;stroke:#1f77b4;stroke-width:1.5;"/>
    <path clip-path="url(#p05789eafcc)" d="M 398.487273 53.652353 
L 398.487273 53.568 
" style="fill:none;stroke:#1f77b4;stroke-width:1.5;"/>
   </g>
   <g id="LineCollection_2">
    <path clip-path="url(#p05789eafcc)" d="M 73.832727 256.306769 
L 73.832727 254.500644 
" style="fill:none;stroke:#ff7f0e;stroke-width:1.5;"/>
    <path clip-path="url(#p05789eafcc)" d="M 114.414545 253.823658 
L 114.414545 253.382776 
" style="fill:none;stroke:#ff7f0e;stroke-width:1.5;"/>
    <path clip-path="url(#p05789eafcc)" d="M 154.996364 248.474187 
L 154.996364 247.532499 
" style="fill:none;stroke:#ff7f0e;stroke-width:1.5;"/>
    <path clip-path="url(#p05789eafcc)" d="M 195.578182 242.283017 
L 195.578182 240.854799 
" style="fill:none;stroke:#ff7f0e;stroke-width:1.5;"/>
    <path clip-path="url(#p05789eafcc)" d="M 236.16 237.944785 
L 236.16 236.589447 
" style="fill:none;stroke:#ff7f0e;stroke-width:1.5;"/>
    <path clip-path="url(#p05789eafcc)" d="M 276.741818 234.883198 
L 276.741818 220.230691 
" style="fill:none;stroke:#ff7f0e;stroke-width:1.5;"/>
    <path clip-path="url(#p05789eafcc)" d="M 317.323636 228.216777 
L 317.323636 226.453493 
" style="fill:none;stroke:#ff7f0e;stroke-width:1.5;"/>
    <path clip-path="url(#p05789eafcc)" d="M 357.905455 223.05187 
L 357.905455 220.732355 
" style="fill:none;stroke:#ff7f0e;stroke-width:1.5;"/>
    <path clip-path="url(#p05789eafcc)" d="M 398.487273 217.007288 
L 398.487273 215.696198 
" style="fill:none;stroke:#ff7f0e;stroke-width:1.5;"/>
   </g>
   <g id="LineCollection_3">
    <path clip-path="url(#p05789eafcc)" d="M 73.832727 295.488 
L 73.832727 292.282615 
" style="fill:none;stroke:#2ca02c;stroke-width:1.5;"/>
    <path clip-path="url(#p05789eafcc)" d="M 114.414545 290.120744 
L 114.414545 287.925557 
" style="fill:none;stroke:#2ca02c;stroke-width:1.5;"/>
    <path clip-path="url(#p05789eafcc)" d="M 154.996364 283.773639 
L 154.996364 277.28769 
" style="fill:none;stroke:#2ca02c;stroke-width:1.5;"/>
    <path clip-path="url(#p05789eafcc)" d="M 195.578182 280.917343 
L 195.578182 279.520074 
" style="fill:none;stroke:#2ca02c;stroke-width:1.5;"/>
    <path clip-path="url(#p05789eafcc)" d="M 236.16 277.56847 
L 236.16 275.758136 
" style="fill:none;stroke:#2ca02c;stroke-width:1.5;"/>
    <path clip-path="url(#p05789eafcc)" d="M 276.741818 275.673821 
L 276.741818 274.71962 
" style="fill:none;stroke:#2ca02c;stroke-width:1.5;"/>
    <path clip-path="url(#p05789eafcc)" d="M 317.323636 269.256945 
L 317.323636 246.242347 
" style="fill:none;stroke:#2ca02c;stroke-width:1.5;"/>
    <path clip-path="url(#p05789eafcc)" d="M 357.905455 266.920881 
L 357.905455 260.92591 
" style="fill:none;stroke:#2ca02c;stroke-width:1.5;"/>
    <path clip-path="url(#p05789eafcc)" d="M 398.487273 264.165099 
L 398.487273 261.875416 
" style="fill:none;stroke:#2ca02c;stroke-width:1.5;"/>
   </g>
   <g id="LineCollection_4">
    <path clip-path="url(#p05789eafcc)" d="M 73.832727 258.615141 
L 73.832727 256.953721 
" style="fill:none;stroke:#d62728;stroke-width:1.5;"/>
    <path clip-path="url(#p05789eafcc)" d="M 114.414545 255.461015 
L 114.414545 255.11988 
" style="fill:none;stroke:#d62728;stroke-width:1.5;"/>
    <path clip-path="url(#p05789eafcc)" d="M 154.996364 250.445533 
L 154.996364 249.397016 
" style="fill:none;stroke:#d62728;stroke-width:1.5;"/>
    <path clip-path="url(#p05789eafcc)" d="M 195.578182 244.576105 
L 195.578182 243.66594 
" style="fill:none;stroke:#d62728;stroke-width:1.5;"/>
    <path clip-path="url(#p05789eafcc)" d="M 236.16 239.383977 
L 236.16 237.480889 
" style="fill:none;stroke:#d62728;stroke-width:1.5;"/>
    <path clip-path="url(#p05789eafcc)" d="M 276.741818 237.169564 
L 276.741818 235.990278 
" style="fill:none;stroke:#d62728;stroke-width:1.5;"/>
    <path clip-path="url(#p05789eafcc)" d="M 317.323636 230.017703 
L 317.323636 228.161012 
" style="fill:none;stroke:#d62728;stroke-width:1.5;"/>
    <path clip-path="url(#p05789eafcc)" d="M 357.905455 224.88296 
L 357.905455 223.660358 
" style="fill:none;stroke:#d62728;stroke-width:1.5;"/>
    <path clip-path="url(#p05789eafcc)" d="M 398.487273 219.212738 
L 398.487273 218.555994 
" style="fill:none;stroke:#d62728;stroke-width:1.5;"/>
   </g>
   <g id="line2d_72">
    <defs>
     <path d="M 3 0 
L -3 -0 
" id="m703bc514d7" style="stroke:#1f77b4;"/>
    </defs>
    <g clip-path="url(#p05789eafcc)">
     <use style="fill:#1f77b4;stroke:#1f77b4;" x="73.832727" xlink:href="#m703bc514d7" y="185.996024"/>
     <use style="fill:#1f77b4;stroke:#1f77b4;" x="114.414545" xlink:href="#m703bc514d7" y="150.474769"/>
     <use style="fill:#1f77b4;stroke:#1f77b4;" x="154.996364" xlink:href="#m703bc514d7" y="127.888504"/>
     <use style="fill:#1f77b4;stroke:#1f77b4;" x="195.578182" xlink:href="#m703bc514d7" y="107.018418"/>
     <use style="fill:#1f77b4;stroke:#1f77b4;" x="236.16" xlink:href="#m703bc514d7" y="92.763428"/>
     <use style="fill:#1f77b4;stroke:#1f77b4;" x="276.741818" xlink:href="#m703bc514d7" y="81.906943"/>
     <use style="fill:#1f77b4;stroke:#1f77b4;" x="317.323636" xlink:href="#m703bc514d7" y="71.913901"/>
     <use style="fill:#1f77b4;stroke:#1f77b4;" x="357.905455" xlink:href="#m703bc514d7" y="61.369747"/>
     <use style="fill:#1f77b4;stroke:#1f77b4;" x="398.487273" xlink:href="#m703bc514d7" y="53.652353"/>
    </g>
   </g>
   <g id="line2d_73">
    <g clip-path="url(#p05789eafcc)">
     <use style="fill:#1f77b4;stroke:#1f77b4;" x="73.832727" xlink:href="#m703bc514d7" y="182.501336"/>
     <use style="fill:#1f77b4;stroke:#1f77b4;" x="114.414545" xlink:href="#m703bc514d7" y="149.449704"/>
     <use style="fill:#1f77b4;stroke:#1f77b4;" x="154.996364" xlink:href="#m703bc514d7" y="127.167961"/>
     <use style="fill:#1f77b4;stroke:#1f77b4;" x="195.578182" xlink:href="#m703bc514d7" y="106.651818"/>
     <use style="fill:#1f77b4;stroke:#1f77b4;" x="236.16" xlink:href="#m703bc514d7" y="92.491374"/>
     <use style="fill:#1f77b4;stroke:#1f77b4;" x="276.741818" xlink:href="#m703bc514d7" y="81.710425"/>
     <use style="fill:#1f77b4;stroke:#1f77b4;" x="317.323636" xlink:href="#m703bc514d7" y="71.752035"/>
     <use style="fill:#1f77b4;stroke:#1f77b4;" x="357.905455" xlink:href="#m703bc514d7" y="61.146801"/>
     <use style="fill:#1f77b4;stroke:#1f77b4;" x="398.487273" xlink:href="#m703bc514d7" y="53.568"/>
    </g>
   </g>
   <g id="line2d_74">
    <defs>
     <path d="M 3 0 
L -3 -0 
" id="mda7de69cea" style="stroke:#ff7f0e;"/>
    </defs>
    <g clip-path="url(#p05789eafcc)">
     <use style="fill:#ff7f0e;stroke:#ff7f0e;" x="73.832727" xlink:href="#mda7de69cea" y="256.306769"/>
     <use style="fill:#ff7f0e;stroke:#ff7f0e;" x="114.414545" xlink:href="#mda7de69cea" y="253.823658"/>
     <use style="fill:#ff7f0e;stroke:#ff7f0e;" x="154.996364" xlink:href="#mda7de69cea" y="248.474187"/>
     <use style="fill:#ff7f0e;stroke:#ff7f0e;" x="195.578182" xlink:href="#mda7de69cea" y="242.283017"/>
     <use style="fill:#ff7f0e;stroke:#ff7f0e;" x="236.16" xlink:href="#mda7de69cea" y="237.944785"/>
     <use style="fill:#ff7f0e;stroke:#ff7f0e;" x="276.741818" xlink:href="#mda7de69cea" y="234.883198"/>
     <use style="fill:#ff7f0e;stroke:#ff7f0e;" x="317.323636" xlink:href="#mda7de69cea" y="228.216777"/>
     <use style="fill:#ff7f0e;stroke:#ff7f0e;" x="357.905455" xlink:href="#mda7de69cea" y="223.05187"/>
     <use style="fill:#ff7f0e;stroke:#ff7f0e;" x="398.487273" xlink:href="#mda7de69cea" y="217.007288"/>
    </g>
   </g>
   <g id="line2d_75">
    <g clip-path="url(#p05789eafcc)">
     <use style="fill:#ff7f0e;stroke:#ff7f0e;" x="73.832727" xlink:href="#mda7de69cea" y="254.500644"/>
     <use style="fill:#ff7f0e;stroke:#ff7f0e;" x="114.414545" xlink:href="#mda7de69cea" y="253.382776"/>
     <use style="fill:#ff7f0e;stroke:#ff7f0e;" x="154.996364" xlink:href="#mda7de69cea" y="247.532499"/>
     <use style="fill:#ff7f0e;stroke:#ff7f0e;" x="195.578182" xlink:href="#mda7de69cea" y="240.854799"/>
     <use style="fill:#ff7f0e;stroke:#ff7f0e;" x="236.16" xlink:href="#mda7de69cea" y="236.589447"/>
     <use style="fill:#ff7f0e;stroke:#ff7f0e;" x="276.741818" xlink:href="#mda7de69cea" y="220.230691"/>
     <use style="fill:#ff7f0e;stroke:#ff7f0e;" x="317.323636" xlink:href="#mda7de69cea" y="226.453493"/>
     <use style="fill:#ff7f0e;stroke:#ff7f0e;" x="357.905455" xlink:href="#mda7de69cea" y="220.732355"/>
     <use style="fill:#ff7f0e;stroke:#ff7f0e;" x="398.487273" xlink:href="#mda7de69cea" y="215.696198"/>
    </g>
   </g>
   <g id="line2d_76">
    <defs>
     <path d="M 3 0 
L -3 -0 
" id="m887bf43152" style="stroke:#2ca02c;"/>
    </defs>
    <g clip-path="url(#p05789eafcc)">
     <use style="fill:#2ca02c;stroke:#2ca02c;" x="73.832727" xlink:href="#m887bf43152" y="295.488"/>
     <use style="fill:#2ca02c;stroke:#2ca02c;" x="114.414545" xlink:href="#m887bf43152" y="290.120744"/>
     <use style="fill:#2ca02c;stroke:#2ca02c;" x="154.996364" xlink:href="#m887bf43152" y="283.773639"/>
     <use style="fill:#2ca02c;stroke:#2ca02c;" x="195.578182" xlink:href="#m887bf43152" y="280.917343"/>
     <use style="fill:#2ca02c;stroke:#2ca02c;" x="236.16" xlink:href="#m887bf43152" y="277.56847"/>
     <use style="fill:#2ca02c;stroke:#2ca02c;" x="276.741818" xlink:href="#m887bf43152" y="275.673821"/>
     <use style="fill:#2ca02c;stroke:#2ca02c;" x="317.323636" xlink:href="#m887bf43152" y="269.256945"/>
     <use style="fill:#2ca02c;stroke:#2ca02c;" x="357.905455" xlink:href="#m887bf43152" y="266.920881"/>
     <use style="fill:#2ca02c;stroke:#2ca02c;" x="398.487273" xlink:href="#m887bf43152" y="264.165099"/>
    </g>
   </g>
   <g id="line2d_77">
    <g clip-path="url(#p05789eafcc)">
     <use style="fill:#2ca02c;stroke:#2ca02c;" x="73.832727" xlink:href="#m887bf43152" y="292.282615"/>
     <use style="fill:#2ca02c;stroke:#2ca02c;" x="114.414545" xlink:href="#m887bf43152" y="287.925557"/>
     <use style="fill:#2ca02c;stroke:#2ca02c;" x="154.996364" xlink:href="#m887bf43152" y="277.28769"/>
     <use style="fill:#2ca02c;stroke:#2ca02c;" x="195.578182" xlink:href="#m887bf43152" y="279.520074"/>
     <use style="fill:#2ca02c;stroke:#2ca02c;" x="236.16" xlink:href="#m887bf43152" y="275.758136"/>
     <use style="fill:#2ca02c;stroke:#2ca02c;" x="276.741818" xlink:href="#m887bf43152" y="274.71962"/>
     <use style="fill:#2ca02c;stroke:#2ca02c;" x="317.323636" xlink:href="#m887bf43152" y="246.242347"/>
     <use style="fill:#2ca02c;stroke:#2ca02c;" x="357.905455" xlink:href="#m887bf43152" y="260.92591"/>
     <use style="fill:#2ca02c;stroke:#2ca02c;" x="398.487273" xlink:href="#m887bf43152" y="261.875416"/>
    </g>
   </g>
   <g id="line2d_78">
    <defs>
     <path d="M 3 0 
L -3 -0 
" id="m3237acf784" style="stroke:#d62728;"/>
    </defs>
    <g clip-path="url(#p05789eafcc)">
     <use style="fill:#d62728;stroke:#d62728;" x="73.832727" xlink:href="#m3237acf784" y="258.615141"/>
     <use style="fill:#d62728;stroke:#d62728;" x="114.414545" xlink:href="#m3237acf784" y="255.461015"/>
     <use style="fill:#d62728;stroke:#d62728;" x="154.996364" xlink:href="#m3237acf784" y="250.445533"/>
     <use style="fill:#d62728;stroke:#d62728;" x="195.578182" xlink:href="#m3237acf784" y="244.576105"/>
     <use style="fill:#d62728;stroke:#d62728;" x="236.16" xlink:href="#m3237acf784" y="239.383977"/>
     <use style="fill:#d62728;stroke:#d62728;" x="276.741818" xlink:href="#m3237acf784" y="237.169564"/>
     <use style="fill:#d62728;stroke:#d62728;" x="317.323636" xlink:href="#m3237acf784" y="230.017703"/>
     <use style="fill:#d62728;stroke:#d62728;" x="357.905455" xlink:href="#m3237acf784" y="224.88296"/>
     <use style="fill:#d62728;stroke:#d62728;" x="398.487273" xlink:href="#m3237acf784" y="219.212738"/>
    </g>
   </g>
   <g id="line2d_79">
    <g clip-path="url(#p05789eafcc)">
     <use style="fill:#d62728;stroke:#d62728;" x="73.832727" xlink:href="#m3237acf784" y="256.953721"/>
     <use style="fill:#d62728;stroke:#d62728;" x="114.414545" xlink:href="#m3237acf784" y="255.11988"/>
     <use style="fill:#d62728;stroke:#d62728;" x="154.996364" xlink:href="#m3237acf784" y="249.397016"/>
     <use style="fill:#d62728;stroke:#d62728;" x="195.578182" xlink:href="#m3237acf784" y="243.66594"/>
     <use style="fill:#d62728;stroke:#d62728;" x="236.16" xlink:href="#m3237acf784" y="237.480889"/>
     <use style="fill:#d62728;stroke:#d62728;" x="276.741818" xlink:href="#m3237acf784" y="235.990278"/>
     <use style="fill:#d62728;stroke:#d62728;" x="317.323636" xlink:href="#m3237acf784" y="228.161012"/>
     <use style="fill:#d62728;stroke:#d62728;" x="357.905455" xlink:href="#m3237acf784" y="223.660358"/>
     <use style="fill:#d62728;stroke:#d62728;" x="398.487273" xlink:href="#m3237acf784" y="218.555994"/>
    </g>
   </g>
   <g id="line2d_80">
    <defs>
     <path d="M 0 1.5 
C 0.397805 1.5 0.77937 1.341951 1.06066 1.06066 
C 1.341951 0.77937 1.5 0.397805 1.5 0 
C 1.5 -0.397805 1.341951 -0.77937 1.06066 -1.06066 
C 0.77937 -1.341951 0.397805 -1.5 0 -1.5 
C -0.397805 -1.5 -0.77937 -1.341951 -1.06066 -1.06066 
C -1.341951 -0.77937 -1.5 -0.397805 -1.5 0 
C -1.5 0.397805 -1.341951 0.77937 -1.06066 1.06066 
C -0.77937 1.341951 -0.397805 1.5 0 1.5 
z
" id="m0c9385a9f3" style="stroke:#1f77b4;"/>
    </defs>
    <g clip-path="url(#p05789eafcc)">
     <use style="fill:#1f77b4;stroke:#1f77b4;" x="73.832727" xlink:href="#m0c9385a9f3" y="184.180282"/>
     <use style="fill:#1f77b4;stroke:#1f77b4;" x="114.414545" xlink:href="#m0c9385a9f3" y="149.956346"/>
     <use style="fill:#1f77b4;stroke:#1f77b4;" x="154.996364" xlink:href="#m0c9385a9f3" y="127.525322"/>
     <use style="fill:#1f77b4;stroke:#1f77b4;" x="195.578182" xlink:href="#m0c9385a9f3" y="106.834365"/>
     <use style="fill:#1f77b4;stroke:#1f77b4;" x="236.16" xlink:href="#m0c9385a9f3" y="92.626986"/>
     <use style="fill:#1f77b4;stroke:#1f77b4;" x="276.741818" xlink:href="#m0c9385a9f3" y="81.808467"/>
     <use style="fill:#1f77b4;stroke:#1f77b4;" x="317.323636" xlink:href="#m0c9385a9f3" y="71.832821"/>
     <use style="fill:#1f77b4;stroke:#1f77b4;" x="357.905455" xlink:href="#m0c9385a9f3" y="61.257995"/>
     <use style="fill:#1f77b4;stroke:#1f77b4;" x="398.487273" xlink:href="#m0c9385a9f3" y="53.610137"/>
    </g>
   </g>
   <g id="line2d_81">
    <defs>
     <path d="M 0 1.5 
C 0.397805 1.5 0.77937 1.341951 1.06066 1.06066 
C 1.341951 0.77937 1.5 0.397805 1.5 0 
C 1.5 -0.397805 1.341951 -0.77937 1.06066 -1.06066 
C 0.77937 -1.341951 0.397805 -1.5 0 -1.5 
C -0.397805 -1.5 -0.77937 -1.341951 -1.06066 -1.06066 
C -1.341951 -0.77937 -1.5 -0.397805 -1.5 0 
C -1.5 0.397805 -1.341951 0.77937 -1.06066 1.06066 
C -0.77937 1.341951 -0.397805 1.5 0 1.5 
z
" id="m587921a7aa" style="stroke:#ff7f0e;"/>
    </defs>
    <g clip-path="url(#p05789eafcc)">
     <use style="fill:#ff7f0e;stroke:#ff7f0e;" x="73.832727" xlink:href="#m587921a7aa" y="255.385424"/>
     <use style="fill:#ff7f0e;stroke:#ff7f0e;" x="114.414545" xlink:href="#m587921a7aa" y="253.602127"/>
     <use style="fill:#ff7f0e;stroke:#ff7f0e;" x="154.996364" xlink:href="#m587921a7aa" y="247.998372"/>
     <use style="fill:#ff7f0e;stroke:#ff7f0e;" x="195.578182" xlink:href="#m587921a7aa" y="241.557474"/>
     <use style="fill:#ff7f0e;stroke:#ff7f0e;" x="236.16" xlink:href="#m587921a7aa" y="237.25682"/>
     <use style="fill:#ff7f0e;stroke:#ff7f0e;" x="276.741818" xlink:href="#m587921a7aa" y="226.374371"/>
     <use style="fill:#ff7f0e;stroke:#ff7f0e;" x="317.323636" xlink:href="#m587921a7aa" y="227.317709"/>
     <use style="fill:#ff7f0e;stroke:#ff7f0e;" x="357.905455" xlink:href="#m587921a7aa" y="221.861964"/>
     <use style="fill:#ff7f0e;stroke:#ff7f0e;" x="398.487273" xlink:href="#m587921a7aa" y="216.342107"/>
    </g>
   </g>
   <g id="line2d_82">
    <defs>
     <path d="M 0 1.5 
C 0.397805 1.5 0.77937 1.341951 1.06066 1.06066 
C 1.341951 0.77937 1.5 0.397805 1.5 0 
C 1.5 -0.397805 1.341951 -0.77937 1.06066 -1.06066 
C 0.77937 -1.341951 0.397805 -1.5 0 -1.5 
C -0.397805 -1.5 -0.77937 -1.341951 -1.06066 -1.06066 
C -1.341951 -0.77937 -1.5 -0.397805 -1.5 0 
C -1.5 0.397805 -1.341951 0.77937 -1.06066 1.06066 
C -0.77937 1.341951 -0.397805 1.5 0 1.5 
z
" id="mb1093ff1fc" style="stroke:#2ca02c;"/>
    </defs>
    <g clip-path="url(#p05789eafcc)">
     <use style="fill:#2ca02c;stroke:#2ca02c;" x="73.832727" xlink:href="#mb1093ff1fc" y="293.827756"/>
     <use style="fill:#2ca02c;stroke:#2ca02c;" x="114.414545" xlink:href="#mb1093ff1fc" y="288.996146"/>
     <use style="fill:#2ca02c;stroke:#2ca02c;" x="154.996364" xlink:href="#mb1093ff1fc" y="280.295653"/>
     <use style="fill:#2ca02c;stroke:#2ca02c;" x="195.578182" xlink:href="#mb1093ff1fc" y="280.207765"/>
     <use style="fill:#2ca02c;stroke:#2ca02c;" x="236.16" xlink:href="#mb1093ff1fc" y="276.644935"/>
     <use style="fill:#2ca02c;stroke:#2ca02c;" x="276.741818" xlink:href="#mb1093ff1fc" y="275.191616"/>
     <use style="fill:#2ca02c;stroke:#2ca02c;" x="317.323636" xlink:href="#mb1093ff1fc" y="254.903359"/>
     <use style="fill:#2ca02c;stroke:#2ca02c;" x="357.905455" xlink:href="#mb1093ff1fc" y="263.722515"/>
     <use style="fill:#2ca02c;stroke:#2ca02c;" x="398.487273" xlink:href="#mb1093ff1fc" y="262.990879"/>
    </g>
   </g>
   <g id="line2d_83">
    <defs>
     <path d="M 0 1.5 
C 0.397805 1.5 0.77937 1.341951 1.06066 1.06066 
C 1.341951 0.77937 1.5 0.397805 1.5 0 
C 1.5 -0.397805 1.341951 -0.77937 1.06066 -1.06066 
C 0.77937 -1.341951 0.397805 -1.5 0 -1.5 
C -0.397805 -1.5 -0.77937 -1.341951 -1.06066 -1.06066 
C -1.341951 -0.77937 -1.5 -0.397805 -1.5 0 
C -1.5 0.397805 -1.341951 0.77937 -1.06066 1.06066 
C -0.77937 1.341951 -0.397805 1.5 0 1.5 
z
" id="m8a8328a7d0" style="stroke:#d62728;"/>
    </defs>
    <g clip-path="url(#p05789eafcc)">
     <use style="fill:#d62728;stroke:#d62728;" x="73.832727" xlink:href="#m8a8328a7d0" y="257.76896"/>
     <use style="fill:#d62728;stroke:#d62728;" x="114.414545" xlink:href="#m8a8328a7d0" y="255.289795"/>
     <use style="fill:#d62728;stroke:#d62728;" x="154.996364" xlink:href="#m8a8328a7d0" y="249.915112"/>
     <use style="fill:#d62728;stroke:#d62728;" x="195.578182" xlink:href="#m8a8328a7d0" y="244.116379"/>
     <use style="fill:#d62728;stroke:#d62728;" x="236.16" xlink:href="#m8a8328a7d0" y="238.412135"/>
     <use style="fill:#d62728;stroke:#d62728;" x="276.741818" xlink:href="#m8a8328a7d0" y="236.572125"/>
     <use style="fill:#d62728;stroke:#d62728;" x="317.323636" xlink:href="#m8a8328a7d0" y="229.070037"/>
     <use style="fill:#d62728;stroke:#d62728;" x="357.905455" xlink:href="#m8a8328a7d0" y="224.26328"/>
     <use style="fill:#d62728;stroke:#d62728;" x="398.487273" xlink:href="#m8a8328a7d0" y="218.881948"/>
    </g>
   </g>
   <g id="patch_3">
    <path d="M 57.6 307.584 
L 57.6 41.472 
" style="fill:none;stroke:#cccccc;stroke-linecap:square;stroke-linejoin:miter;"/>
   </g>
   <g id="patch_4">
    <path d="M 414.72 307.584 
L 414.72 41.472 
" style="fill:none;stroke:#cccccc;stroke-linecap:square;stroke-linejoin:miter;"/>
   </g>
   <g id="patch_5">
    <path d="M 57.6 307.584 
L 414.72 307.584 
" style="fill:none;stroke:#cccccc;stroke-linecap:square;stroke-linejoin:miter;"/>
   </g>
   <g id="patch_6">
    <path d="M 57.6 41.472 
L 414.72 41.472 
" style="fill:none;stroke:#cccccc;stroke-linecap:square;stroke-linejoin:miter;"/>
   </g>
   <g id="legend_1">
    <g id="LineCollection_5">
     <path d="M 76.6 59.570438 
L 76.6 49.570438 
" style="fill:none;stroke:#1f77b4;stroke-width:1.5;"/>
    </g>
    <g id="line2d_84">
     <g>
      <use style="fill:#1f77b4;stroke:#1f77b4;" x="76.6" xlink:href="#m703bc514d7" y="59.570438"/>
     </g>
    </g>
    <g id="line2d_85">
     <g>
      <use style="fill:#1f77b4;stroke:#1f77b4;" x="76.6" xlink:href="#m703bc514d7" y="49.570438"/>
     </g>
    </g>
    <g id="line2d_86"/>
    <g id="line2d_87">
     <g>
      <use style="fill:#1f77b4;stroke:#1f77b4;" x="76.6" xlink:href="#m0c9385a9f3" y="54.570438"/>
     </g>
    </g>
    <g id="text_18">
     <!-- symbolic -->
     <g style="fill:#262626;" transform="translate(94.6 58.070438)scale(0.1 -0.1)">
      <defs>
       <path d="M 32.171875 -5.078125 
Q 28.375 -14.84375 24.75 -17.8125 
Q 21.140625 -20.796875 15.09375 -20.796875 
L 7.90625 -20.796875 
L 7.90625 -13.28125 
L 13.1875 -13.28125 
Q 16.890625 -13.28125 18.9375 -11.515625 
Q 21 -9.765625 23.484375 -3.21875 
L 25.09375 0.875 
L 2.984375 54.6875 
L 12.5 54.6875 
L 29.59375 11.921875 
L 46.6875 54.6875 
L 56.203125 54.6875 
z
" id="DejaVuSans-121"/>
       <path d="M 9.421875 75.984375 
L 18.40625 75.984375 
L 18.40625 0 
L 9.421875 0 
z
" id="DejaVuSans-108"/>
       <path d="M 48.78125 52.59375 
L 48.78125 44.1875 
Q 44.96875 46.296875 41.140625 47.34375 
Q 37.3125 48.390625 33.40625 48.390625 
Q 24.65625 48.390625 19.8125 42.84375 
Q 14.984375 37.3125 14.984375 27.296875 
Q 14.984375 17.28125 19.8125 11.734375 
Q 24.65625 6.203125 33.40625 6.203125 
Q 37.3125 6.203125 41.140625 7.25 
Q 44.96875 8.296875 48.78125 10.40625 
L 48.78125 2.09375 
Q 45.015625 0.34375 40.984375 -0.53125 
Q 36.96875 -1.421875 32.421875 -1.421875 
Q 20.0625 -1.421875 12.78125 6.34375 
Q 5.515625 14.109375 5.515625 27.296875 
Q 5.515625 40.671875 12.859375 48.328125 
Q 20.21875 56 33.015625 56 
Q 37.15625 56 41.109375 55.140625 
Q 45.0625 54.296875 48.78125 52.59375 
z
" id="DejaVuSans-99"/>
      </defs>
      <use xlink:href="#DejaVuSans-115"/>
      <use x="52.099609" xlink:href="#DejaVuSans-121"/>
      <use x="111.279297" xlink:href="#DejaVuSans-109"/>
      <use x="208.691406" xlink:href="#DejaVuSans-98"/>
      <use x="272.167969" xlink:href="#DejaVuSans-111"/>
      <use x="333.349609" xlink:href="#DejaVuSans-108"/>
      <use x="361.132812" xlink:href="#DejaVuSans-105"/>
      <use x="388.916016" xlink:href="#DejaVuSans-99"/>
     </g>
    </g>
    <g id="LineCollection_6">
     <path d="M 76.6 74.248563 
L 76.6 64.248563 
" style="fill:none;stroke:#ff7f0e;stroke-width:1.5;"/>
    </g>
    <g id="line2d_88">
     <g>
      <use style="fill:#ff7f0e;stroke:#ff7f0e;" x="76.6" xlink:href="#mda7de69cea" y="74.248563"/>
     </g>
    </g>
    <g id="line2d_89">
     <g>
      <use style="fill:#ff7f0e;stroke:#ff7f0e;" x="76.6" xlink:href="#mda7de69cea" y="64.248563"/>
     </g>
    </g>
    <g id="line2d_90"/>
    <g id="line2d_91">
     <g>
      <use style="fill:#ff7f0e;stroke:#ff7f0e;" x="76.6" xlink:href="#m587921a7aa" y="69.248563"/>
     </g>
    </g>
    <g id="text_19">
     <!-- symbolic math -->
     <g style="fill:#262626;" transform="translate(94.6 72.748563)scale(0.1 -0.1)">
      <defs>
       <path d="M 54.890625 33.015625 
L 54.890625 0 
L 45.90625 0 
L 45.90625 32.71875 
Q 45.90625 40.484375 42.875 44.328125 
Q 39.84375 48.1875 33.796875 48.1875 
Q 26.515625 48.1875 22.3125 43.546875 
Q 18.109375 38.921875 18.109375 30.90625 
L 18.109375 0 
L 9.078125 0 
L 9.078125 75.984375 
L 18.109375 75.984375 
L 18.109375 46.1875 
Q 21.34375 51.125 25.703125 53.5625 
Q 30.078125 56 35.796875 56 
Q 45.21875 56 50.046875 50.171875 
Q 54.890625 44.34375 54.890625 33.015625 
z
" id="DejaVuSans-104"/>
      </defs>
      <use xlink:href="#DejaVuSans-115"/>
      <use x="52.099609" xlink:href="#DejaVuSans-121"/>
      <use x="111.279297" xlink:href="#DejaVuSans-109"/>
      <use x="208.691406" xlink:href="#DejaVuSans-98"/>
      <use x="272.167969" xlink:href="#DejaVuSans-111"/>
      <use x="333.349609" xlink:href="#DejaVuSans-108"/>
      <use x="361.132812" xlink:href="#DejaVuSans-105"/>
      <use x="388.916016" xlink:href="#DejaVuSans-99"/>
      <use x="443.896484" xlink:href="#DejaVuSans-32"/>
      <use x="475.683594" xlink:href="#DejaVuSans-109"/>
      <use x="573.095703" xlink:href="#DejaVuSans-97"/>
      <use x="634.375" xlink:href="#DejaVuSans-116"/>
      <use x="673.583984" xlink:href="#DejaVuSans-104"/>
     </g>
    </g>
    <g id="LineCollection_7">
     <path d="M 76.6 88.926688 
L 76.6 78.926688 
" style="fill:none;stroke:#2ca02c;stroke-width:1.5;"/>
    </g>
    <g id="line2d_92">
     <g>
      <use style="fill:#2ca02c;stroke:#2ca02c;" x="76.6" xlink:href="#m887bf43152" y="88.926688"/>
     </g>
    </g>
    <g id="line2d_93">
     <g>
      <use style="fill:#2ca02c;stroke:#2ca02c;" x="76.6" xlink:href="#m887bf43152" y="78.926688"/>
     </g>
    </g>
    <g id="line2d_94"/>
    <g id="line2d_95">
     <g>
      <use style="fill:#2ca02c;stroke:#2ca02c;" x="76.6" xlink:href="#mb1093ff1fc" y="83.926688"/>
     </g>
    </g>
    <g id="text_20">
     <!-- symbolic numpy -->
     <g style="fill:#262626;" transform="translate(94.6 87.426688)scale(0.1 -0.1)">
      <defs>
       <path d="M 18.109375 8.203125 
L 18.109375 -20.796875 
L 9.078125 -20.796875 
L 9.078125 54.6875 
L 18.109375 54.6875 
L 18.109375 46.390625 
Q 20.953125 51.265625 25.265625 53.625 
Q 29.59375 56 35.59375 56 
Q 45.5625 56 51.78125 48.09375 
Q 58.015625 40.1875 58.015625 27.296875 
Q 58.015625 14.40625 51.78125 6.484375 
Q 45.5625 -1.421875 35.59375 -1.421875 
Q 29.59375 -1.421875 25.265625 0.953125 
Q 20.953125 3.328125 18.109375 8.203125 
z
M 48.6875 27.296875 
Q 48.6875 37.203125 44.609375 42.84375 
Q 40.53125 48.484375 33.40625 48.484375 
Q 26.265625 48.484375 22.1875 42.84375 
Q 18.109375 37.203125 18.109375 27.296875 
Q 18.109375 17.390625 22.1875 11.75 
Q 26.265625 6.109375 33.40625 6.109375 
Q 40.53125 6.109375 44.609375 11.75 
Q 48.6875 17.390625 48.6875 27.296875 
z
" id="DejaVuSans-112"/>
      </defs>
      <use xlink:href="#DejaVuSans-115"/>
      <use x="52.099609" xlink:href="#DejaVuSans-121"/>
      <use x="111.279297" xlink:href="#DejaVuSans-109"/>
      <use x="208.691406" xlink:href="#DejaVuSans-98"/>
      <use x="272.167969" xlink:href="#DejaVuSans-111"/>
      <use x="333.349609" xlink:href="#DejaVuSans-108"/>
      <use x="361.132812" xlink:href="#DejaVuSans-105"/>
      <use x="388.916016" xlink:href="#DejaVuSans-99"/>
      <use x="443.896484" xlink:href="#DejaVuSans-32"/>
      <use x="475.683594" xlink:href="#DejaVuSans-110"/>
      <use x="539.0625" xlink:href="#DejaVuSans-117"/>
      <use x="602.441406" xlink:href="#DejaVuSans-109"/>
      <use x="699.853516" xlink:href="#DejaVuSans-112"/>
      <use x="763.330078" xlink:href="#DejaVuSans-121"/>
     </g>
    </g>
    <g id="LineCollection_8">
     <path d="M 76.6 103.604813 
L 76.6 93.604813 
" style="fill:none;stroke:#d62728;stroke-width:1.5;"/>
    </g>
    <g id="line2d_96">
     <g>
      <use style="fill:#d62728;stroke:#d62728;" x="76.6" xlink:href="#m3237acf784" y="103.604813"/>
     </g>
    </g>
    <g id="line2d_97">
     <g>
      <use style="fill:#d62728;stroke:#d62728;" x="76.6" xlink:href="#m3237acf784" y="93.604813"/>
     </g>
    </g>
    <g id="line2d_98"/>
    <g id="line2d_99">
     <g>
      <use style="fill:#d62728;stroke:#d62728;" x="76.6" xlink:href="#m8a8328a7d0" y="98.604813"/>
     </g>
    </g>
    <g id="text_21">
     <!-- manual -->
     <g style="fill:#262626;" transform="translate(94.6 102.104813)scale(0.1 -0.1)">
      <use xlink:href="#DejaVuSans-109"/>
      <use x="97.412109" xlink:href="#DejaVuSans-97"/>
      <use x="158.691406" xlink:href="#DejaVuSans-110"/>
      <use x="222.070312" xlink:href="#DejaVuSans-117"/>
      <use x="285.449219" xlink:href="#DejaVuSans-97"/>
      <use x="346.728516" xlink:href="#DejaVuSans-108"/>
     </g>
    </g>
   </g>
  </g>
 </g>
 <defs>
  <clipPath id="p05789eafcc">
   <rect height="266.112" width="357.12" x="57.6" y="41.472"/>
  </clipPath>
 </defs>
</svg>
