<svg width="1280" height="1745" xmlns="http://www.w3.org/2000/svg" xmlns:xlink="http://www.w3.org/1999/xlink" overflow="hidden"><defs><clipPath id="clip0"><rect x="154" y="27" width="1280" height="1745"/></clipPath></defs><g clip-path="url(#clip0)" transform="translate(-154 -27)"><path d="M157 664.556C157 637.739 178.739 616 205.556 616L1329.44 616C1356.26 616 1378 637.739 1378 664.556L1378 1586.44C1378 1613.26 1356.26 1635 1329.44 1635L205.556 1635C178.739 1635 157 1613.26 157 1586.44Z" stroke="#000000" stroke-width="4" stroke-miterlimit="8" fill="none" fill-rule="evenodd"/><path d="M533.5 66.5001C533.5 45.5132 550.513 28.5001 571.5 28.5001 592.487 28.5001 609.5 45.5132 609.5 66.5001 609.5 87.4869 592.487 104.5 571.5 104.5 550.513 104.5 533.5 87.4869 533.5 66.5001Z" stroke="#FFFFFF" stroke-width="1.33333" stroke-miterlimit="8" fill-rule="evenodd"/><path d="M574 99.5 574 143.595 571 143.595 571 99.5001ZM579.046 135.351 572.5 146.572 565.955 135.351C565.537 134.635 565.779 133.717 566.495 133.299 567.21 132.882 568.129 133.123 568.546 133.839L573.796 142.839 571.205 142.839 576.455 133.839C576.872 133.123 577.791 132.882 578.506 133.299 579.222 133.717 579.463 134.635 579.046 135.351Z"/><path d="M533.5 673C533.5 652.289 550.513 635.5 571.5 635.5 592.487 635.5 609.5 652.289 609.5 673 609.5 693.711 592.487 710.5 571.5 710.5 550.513 710.5 533.5 693.711 533.5 673Z" stroke="#FFFFFF" stroke-width="1.33333" stroke-miterlimit="8" fill-rule="evenodd"/><path d="M574 708.5 574 752.283 571 752.283 571 708.5ZM579.046 744.039 572.5 755.26 565.954 744.039C565.537 743.324 565.779 742.405 566.494 741.988 567.21 741.57 568.128 741.812 568.546 742.528L573.796 751.528 571.204 751.528 576.454 742.528C576.872 741.812 577.79 741.57 578.506 741.988 579.221 742.405 579.463 743.324 579.046 744.039Z"/><path d="M520 806 571.5 755 623 806 571.5 857Z" stroke="#000000" stroke-width="4" stroke-miterlimit="8" fill="none" fill-rule="evenodd"/><text font-family="Calibri,Calibri_MSFontService,sans-serif" font-weight="300" font-size="21" transform="translate(195.702 744)">current<tspan font-size="21" x="67.8133" y="0">iterations</tspan><tspan font-size="21" x="153.647" y="0">&lt; maximum </tspan>iterations<tspan font-weight="700" font-size="21" x="154.307" y="26">and</tspan><tspan font-size="21" x="83.94" y="51">increase</tspan><tspan font-size="21" x="159.96" y="51">&gt; </tspan>tolerance</text><path d="M623.5 805 847.238 805 847.238 808 623.5 808ZM838.993 799.954 850.215 806.5 838.993 813.046C838.278 813.463 837.359 813.222 836.942 812.506 836.524 811.79 836.766 810.872 837.482 810.454L846.482 805.204 846.482 807.796 837.482 802.546C836.766 802.128 836.524 801.21 836.942 800.494 837.359 799.779 838.278 799.537 838.993 799.954Z"/><text font-family="Calibri,Calibri_MSFontService,sans-serif" font-weight="300" font-size="19" transform="matrix(-1.83697e-16 -1 1 -1.83697e-16 563.602 915)">TRUE</text><text font-family="Calibri,Calibri_MSFontService,sans-serif" font-weight="300" font-size="19" transform="translate(714.202 797)">FALSE</text><path d="M574 857.5 574 929.628 571 929.628 571 857.5ZM579.046 921.384 572.5 932.605 565.955 921.384C565.537 920.668 565.779 919.75 566.495 919.332 567.21 918.915 568.129 919.157 568.546 919.872L573.796 928.872 571.205 928.872 576.455 919.872C576.872 919.156 577.791 918.915 578.506 919.332 579.222 919.75 579.463 920.668 579.046 921.384Z"/><path d="M480 955.5C480 942.521 490.521 932 503.5 932L639.5 932C652.479 932 663 942.521 663 955.5L663 955.5C663 968.479 652.479 979 639.5 979L503.5 979C490.521 979 480 968.479 480 955.5Z" stroke="#000000" stroke-width="4" stroke-miterlimit="8" fill="none" fill-rule="evenodd"/><text font-family="Calibri,Calibri_MSFontService,sans-serif" font-weight="300" font-size="19" transform="translate(500.148 950)">Evaluate functional <tspan font-size="19" x="47.9467" y="23">values</tspan></text><path d="M574 979.5 574 1024 571 1024 571 979.5ZM579.046 1015.75 572.5 1026.98 565.954 1015.75C565.537 1015.04 565.779 1014.12 566.494 1013.7 567.21 1013.29 568.128 1013.53 568.546 1014.24L573.796 1023.24 571.204 1023.24 576.454 1014.24C576.872 1013.53 577.79 1013.29 578.506 1013.7 579.221 1014.12 579.463 1015.04 579.046 1015.75Z"/><path d="M480 1050C480 1037.3 490.297 1027 503 1027L640 1027C652.703 1027 663 1037.3 663 1050L663 1050C663 1062.7 652.703 1073 640 1073L503 1073C490.297 1073 480 1062.7 480 1050Z" stroke="#000000" stroke-width="4" stroke-miterlimit="8" fill="none" fill-rule="evenodd"/><text font-family="Calibri,Calibri_MSFontService,sans-serif" font-weight="300" font-size="19" transform="translate(505.655 1045)">Evaluate Jacobian <tspan font-size="19" x="41.8067" y="23">matrix</tspan></text><path d="M520 1172 571.5 1121 623 1172 571.5 1223Z" stroke="#000000" stroke-width="4" stroke-miterlimit="8" fill="none" fill-rule="evenodd"/><path d="M1.5-9.95278e-06 1.5003 44.4982-1.4997 44.4983-1.5 9.95278e-06ZM6.54591 36.254 0.000314769 47.4752-6.54543 36.2541C-6.96285 35.5385-6.72115 34.62-6.00558 34.2026-5.29 33.7852-4.37153 34.0269-3.9541 34.7425L1.29596 43.7424-1.29538 43.7424 3.95456 34.7424C4.37198 34.0268 5.29045 33.7851 6.00603 34.2025 6.72161 34.6199 6.96332 35.5384 6.54591 36.254Z" transform="matrix(-1 0 0 1 572.5 1073.5)"/><path d="M849 806 900.5 755 952 806 900.5 857Z" stroke="#000000" stroke-width="4" stroke-miterlimit="8" fill="none" fill-rule="evenodd"/><text font-family="Calibri,Calibri_MSFontService,sans-serif" font-weight="300" font-size="21" transform="translate(727.608 739)">current<tspan font-size="21" x="67.8134" y="0">iterations</tspan><tspan font-size="21" x="153.647" y="0">&lt; maximum </tspan>iterations</text><path d="M6.94641e-07-1.5 223.738-1.4999 223.738 1.5001-6.94641e-07 1.5ZM215.493-6.54557 226.714 0.000104741 215.493 6.54577C214.778 6.96319 213.859 6.72148 213.442 6.00591 213.024 5.29033 213.266 4.37185 213.982 3.95443L222.982-1.29556 222.982 1.29577 213.982-3.95423C213.266-4.37165 213.024-5.29013 213.442-6.00571 213.859-6.72129 214.778-6.96299 215.493-6.54557Z" transform="matrix(1 0 0 -1 952.5 806.5)"/><text font-family="Calibri,Calibri_MSFontService,sans-serif" font-weight="300" font-size="19" transform="translate(1043.14 797)">FALSE</text><path d="M1178 806.5C1178 793.521 1188.52 783 1201.5 783L1338.5 783C1351.48 783 1362 793.521 1362 806.5L1362 806.5C1362 819.479 1351.48 830 1338.5 830L1201.5 830C1188.52 830 1178 819.479 1178 806.5Z" stroke="#000000" stroke-width="4" stroke-miterlimit="8" fill="none" fill-rule="evenodd"/><text font-family="Calibri,Calibri_MSFontService,sans-serif" font-weight="300" font-size="16" transform="translate(1200.69 802)">Raise error: Exceeded <tspan font-size="16" x="7.49341" y="19">maximum </tspan><tspan font-size="15" x="75.0067" y="19">iterations</tspan></text><text font-family="Calibri,Calibri_MSFontService,sans-serif" font-weight="300" font-size="19" transform="matrix(-1.83697e-16 -1 1 -1.83697e-16 891.602 915)">TRUE</text><text font-family="Calibri,Calibri_MSFontService,sans-serif" font-weight="300" font-size="21" transform="translate(247.349 1179)">Is<tspan font-size="21" x="18.3333" y="0">Jacobian</tspan><tspan font-size="21" x="96.7934" y="0">matrix</tspan><tspan font-size="21" x="156.253" y="0">singular</tspan><tspan font-size="21" x="223.587" y="0">?</tspan></text><path d="M0.00293941-1.5 222.049-1.06487 222.043 1.93512-0.00293941 1.5ZM213.816-6.12669 225.024 0.440958 213.79 6.96462C213.074 7.38064 212.156 7.13714 211.739 6.42074 211.323 5.70435 211.567 4.78635 212.283 4.37033L221.294-0.862022 221.289 1.72931 212.299-3.53832C211.584-3.95714 211.344-4.87609 211.763-5.59085 212.182-6.3056 213.101-6.54551 213.816-6.12669Z" transform="matrix(1 0 0 -1 623.5 1172.94)"/><text font-family="Calibri,Calibri_MSFontService,sans-serif" font-weight="300" font-size="19" transform="matrix(-1.83697e-16 -1 1 -1.83697e-16 563.333 1283)">FALSE</text><text font-family="Calibri,Calibri_MSFontService,sans-serif" font-weight="300" font-size="19" transform="translate(716.012 1163)">TRUE</text><path d="M848 1171.5C848 1158.52 858.521 1148 871.5 1148L1007.5 1148C1020.48 1148 1031 1158.52 1031 1171.5L1031 1171.5C1031 1184.48 1020.48 1195 1007.5 1195L871.5 1195C858.521 1195 848 1184.48 848 1171.5Z" stroke="#000000" stroke-width="4" stroke-miterlimit="8" fill="none" fill-rule="evenodd"/><text font-family="Calibri,Calibri_MSFontService,sans-serif" font-weight="300" font-size="16" transform="translate(873.044 1167)">Raise error: Jacobian <tspan font-size="16" x="18.76" y="19">matrix singular</tspan></text><path d="M573 1223.49 573.258 1296.14 570.258 1296.15 570 1223.51ZM578.275 1287.88 571.769 1299.12 565.183 1287.93C564.763 1287.21 565.002 1286.29 565.716 1285.87 566.43 1285.45 567.349 1285.69 567.769 1286.41L573.051 1295.39 570.46 1295.4 575.678 1286.38C576.093 1285.66 577.01 1285.42 577.728 1285.83 578.445 1286.24 578.69 1287.16 578.275 1287.88Z"/><path d="M480 1322.5C480 1309.52 490.521 1299 503.5 1299L639.5 1299C652.479 1299 663 1309.52 663 1322.5L663 1322.5C663 1335.48 652.479 1346 639.5 1346L503.5 1346C490.521 1346 480 1335.48 480 1322.5Z" stroke="#000000" stroke-width="4" stroke-miterlimit="8" fill="none" fill-rule="evenodd"/><text font-family="Calibri,Calibri_MSFontService,sans-serif" font-weight="300" font-size="12" transform="translate(510.792 1312)">Solve SLE* from Jacobian <tspan font-size="12" x="-12.8333" y="15">matrix and negative functional </tspan><tspan font-size="12" x="45.5" y="29">values</tspan></text><path d="M1.5-9.95278e-06 1.50027 39.9682-1.49973 39.9682-1.5 9.95278e-06ZM4.50026 38.4682 0.000314961 47.4682-4.49974 38.4683Z" transform="matrix(-1 0 0 1 572.5 1346.5)"/><text font-family="Calibri,Calibri_MSFontService,sans-serif" font-weight="300" font-size="21" transform="translate(255.981 1438)">c<tspan font-size="21" x="9.00002" y="0">urrent</tspan><tspan font-size="21" x="67.8133" y="0">iteration</tspan><tspan font-size="21" x="145.313" y="0">increase</tspan><tspan font-size="21" x="3.53999" y="26">&lt;= last </tspan><tspan font-size="21" x="64.28" y="26">iteration</tspan><tspan font-size="21" x="141.78" y="26">increase</tspan></text><path d="M520 1444 571.5 1393 623 1444 571.5 1495Z" stroke="#000000" stroke-width="4" stroke-miterlimit="8" fill="none" fill-rule="evenodd"/><path d="M1.5-1.6588e-05 1.50049 44.4981-1.49951 44.4982-1.5 1.6588e-05ZM6.54607 36.2539 0.000525163 47.4751-6.54527 36.254C-6.9627 35.5384-6.721 34.62-6.00543 34.2025-5.28986 33.7851-4.37138 34.0268-3.95395 34.7424L1.29615 43.7423-1.29518 43.7423 3.95472 34.7423C4.37213 34.0267 5.2906 33.785 6.00618 34.2024 6.72177 34.6198 6.96348 35.5383 6.54607 36.2539Z" transform="matrix(-1 0 0 1 572.501 1346.5)"/><path d="M573 1495.49 573.258 1568.14 570.258 1568.15 570 1495.51ZM578.275 1559.88 571.769 1571.12 565.183 1559.93C564.763 1559.21 565.002 1558.29 565.716 1557.87 566.43 1557.45 567.349 1557.69 567.769 1558.41L573.051 1567.39 570.46 1567.4 575.678 1558.38C576.093 1557.66 577.01 1557.42 577.728 1557.83 578.445 1558.24 578.69 1559.16 578.275 1559.88Z"/><text font-family="Calibri,Calibri_MSFontService,sans-serif" font-weight="300" font-size="19" transform="matrix(-1.83697e-16 -1 1 -1.83697e-16 563.602 1546)">TRUE</text><path d="M623.509 1443 845.558 1444.39 845.539 1447.39 623.491 1446ZM837.344 1439.29 848.524 1445.91 837.262 1452.38C836.544 1452.8 835.627 1452.55 835.214 1451.83 834.801 1451.11 835.048 1450.19 835.767 1449.78L844.799 1444.59 844.783 1447.18 835.816 1441.87C835.103 1441.45 834.867 1440.53 835.289 1439.82 835.711 1439.11 836.631 1438.87 837.344 1439.29Z"/><text font-family="Calibri,Calibri_MSFontService,sans-serif" font-weight="300" font-size="19" transform="translate(714.202 1435)">FALSE</text><path d="M848 1445.5C848 1432.52 858.521 1422 871.5 1422L1007.5 1422C1020.48 1422 1031 1432.52 1031 1445.5L1031 1445.5C1031 1458.48 1020.48 1469 1007.5 1469L871.5 1469C858.521 1469 848 1458.48 848 1445.5Z" stroke="#000000" stroke-width="4" stroke-miterlimit="8" fill="none" fill-rule="evenodd"/><text font-family="Calibri,Calibri_MSFontService,sans-serif" font-weight="300" font-size="15" transform="translate(875.728 1442)">Raise error: Newton’s <tspan font-size="15" x="-5.5" y="17">method not converging</tspan></text><path d="M480 1593.5C480 1580.52 490.521 1570 503.5 1570L639.5 1570C652.479 1570 663 1580.52 663 1593.5L663 1593.5C663 1606.48 652.479 1617 639.5 1617L503.5 1617C490.521 1617 480 1606.48 480 1593.5Z" stroke="#000000" stroke-width="4" stroke-miterlimit="8" fill="none" fill-rule="evenodd"/><text font-family="Calibri,Calibri_MSFontService,sans-serif" font-weight="300" font-size="19" transform="translate(502.222 1599)">Update x positions</text><path d="M480.729 1593.5 194.5 1593.5" stroke="#000000" stroke-width="3" stroke-miterlimit="8" fill="none" fill-rule="evenodd"/><path d="M195.324 1594.32 191.5 804.5" stroke="#000000" stroke-width="3" stroke-miterlimit="8" fill="none" fill-rule="evenodd"/><path d="M190.505 804 517.986 805.096 517.976 808.096 190.495 807ZM509.756 800.023 520.955 806.606 509.712 813.114C508.995 813.529 508.078 813.284 507.663 812.567 507.248 811.85 507.492 810.933 508.209 810.518L517.227 805.298 517.218 807.889 508.236 802.609C507.522 802.189 507.283 801.27 507.703 800.556 508.123 799.842 509.042 799.603 509.756 800.023Z"/><path d="M0-1.5 99.9745-1.5 99.9745 341.547 96.9745 341.547 96.9745 0 98.4745 1.5 0 1.5ZM105.02 333.302 98.4745 344.523 91.9289 333.302C91.5114 332.587 91.7532 331.668 92.4687 331.251 93.1843 330.833 94.1028 331.075 94.5202 331.791L99.7702 340.791 97.1789 340.791 102.429 331.791C102.846 331.075 103.765 330.833 104.48 331.251 105.196 331.668 105.438 332.587 105.02 333.302Z" transform="matrix(1.83697e-16 1 1 -1.83697e-16 900.5 857.5)"/><rect x="1245.5" y="932.5" width="183" height="47" stroke="#000000" stroke-width="3" stroke-miterlimit="8" fill="#FFFFFF"/><text font-family="Calibri,Calibri_MSFontService,sans-serif" font-weight="400" font-size="24" transform="translate(1258.72 963)">Final x positions</text><path d="M520 343.5 571.5 292 623 343.5 571.5 395Z" stroke="#000000" stroke-width="4" stroke-miterlimit="8" fill="none" fill-rule="evenodd"/><path d="M157 217.835C157 179.266 188.266 148 226.835 148L1308.17 148C1346.73 148 1378 179.266 1378 217.835L1378 497.165C1378 535.734 1346.73 567 1308.17 567L226.835 567C188.266 567 157 535.734 157 497.165Z" stroke="#000000" stroke-width="4" stroke-miterlimit="8" fill="none" fill-rule="evenodd"/><text font-family="Calibri,Calibri_MSFontService,sans-serif" font-weight="300" font-size="32" transform="translate(260.755 181)">Create case<tspan font-size="32" x="0" y="466">Approximate</tspan></text><path d="M533.5 207.5C533.5 186.513 550.513 169.5 571.5 169.5 592.487 169.5 609.5 186.513 609.5 207.5 609.5 228.487 592.487 245.5 571.5 245.5 550.513 245.5 533.5 228.487 533.5 207.5Z" stroke="#FFFFFF" stroke-width="1.33333" stroke-miterlimit="8" fill-rule="evenodd"/><path d="M573 244.491 573.251 288.388 570.252 288.405 570 244.509ZM578.25 280.115 571.769 291.373 565.159 280.19C564.737 279.477 564.974 278.557 565.687 278.135 566.4 277.714 567.32 277.95 567.741 278.663L573.043 287.633 570.452 287.648 575.65 278.618C576.063 277.9 576.98 277.653 577.698 278.066 578.416 278.48 578.663 279.397 578.25 280.115Z"/><path d="M986 343.5C986 330.521 996.521 320 1009.5 320L1146.5 320C1159.48 320 1170 330.521 1170 343.5L1170 343.5C1170 356.479 1159.48 367 1146.5 367L1009.5 367C996.521 367 986 356.479 986 343.5Z" stroke="#000000" stroke-width="4" stroke-miterlimit="8" fill="none" fill-rule="evenodd"/><text font-family="Calibri,Calibri_MSFontService,sans-serif" font-weight="300" font-size="19" transform="translate(1019.05 338)">Create Jacobian <tspan font-size="19" x="34.8466" y="23">matrix</tspan></text><path d="M756 343.5C756 330.521 766.521 320 779.5 320L915.5 320C928.479 320 939 330.521 939 343.5L939 343.5C939 356.479 928.479 367 915.5 367L779.5 367C766.521 367 756 356.479 756 343.5Z" stroke="#000000" stroke-width="4" stroke-miterlimit="8" fill="none" fill-rule="evenodd"/><text font-family="Calibri,Calibri_MSFontService,sans-serif" font-weight="300" font-size="19" transform="translate(797.221 338)">Create <tspan font-size="19" x="53.3667" y="0">sympy</tspan><tspan font-size="19" x="20.22" y="23">symbols</tspan></text><path d="M939.5 342 983.556 342 983.556 345 939.5 345ZM975.311 336.954 986.533 343.5 975.311 350.046C974.596 350.463 973.677 350.222 973.26 349.506 972.842 348.79 973.084 347.872 973.8 347.454L982.8 342.204 982.8 344.796 973.8 339.546C973.084 339.128 972.843 338.21 973.26 337.494 973.677 336.779 974.596 336.537 975.311 336.954Z"/><path d="M1221.5 342.5C1221.5 324.275 1236.5 309.5 1255 309.5 1273.5 309.5 1288.5 324.275 1288.5 342.5 1288.5 360.725 1273.5 375.5 1255 375.5 1236.5 375.5 1221.5 360.725 1221.5 342.5Z" stroke="#FFFFFF" stroke-width="1.33333" stroke-miterlimit="8" fill-rule="evenodd"/><path d="M1217.5 343C1217.5 322.289 1234.29 305.5 1255 305.5 1275.71 305.5 1292.5 322.289 1292.5 343 1292.5 363.711 1275.71 380.5 1255 380.5 1234.29 380.5 1217.5 363.711 1217.5 343Z" stroke="#000000" stroke-width="3" stroke-miterlimit="8" fill="none" fill-rule="evenodd"/><path d="M574 569.5 574 613.595 571 613.595 571 569.5ZM579.046 605.351 572.5 616.572 565.955 605.351C565.537 604.635 565.779 603.717 566.495 603.299 567.21 602.882 568.129 603.123 568.546 603.839L573.796 612.839 571.205 612.839 576.455 603.839C576.872 603.123 577.791 602.882 578.506 603.299 579.222 603.717 579.463 604.635 579.046 605.351Z"/><text font-family="Calibri,Calibri_MSFontService,sans-serif" font-weight="300" font-size="21" transform="translate(243.029 351)">Is<tspan font-size="21" x="18.3333" y="0">Jacobian</tspan><tspan font-size="21" x="96.7933" y="0">matrix</tspan><tspan font-size="21" x="156.253" y="0">provided</tspan><tspan font-size="21" x="232.227" y="0">?</tspan></text><path d="M0.00366011-1.5 130.413-1.18179 130.406 1.81821-0.00366011 1.5ZM122.182-6.24755 133.388 0.325476 122.15 6.84374C121.434 7.25942 120.516 7.01547 120.1 6.29888 119.685 5.58228 119.929 4.6644 120.645 4.24873L129.658-0.979296 129.652 1.61203 120.664-3.65991C119.95-4.07908 119.71-4.99814 120.13-5.7127 120.549-6.42726 121.468-6.66672 122.182-6.24755Z" transform="matrix(1 0 0 -1 623.5 343.826)"/><text font-family="Calibri,Calibri_MSFontService,sans-serif" font-weight="300" font-size="19" transform="translate(667.209 334)">FALSE</text><text font-family="Calibri,Calibri_MSFontService,sans-serif" font-weight="300" font-size="19" transform="matrix(-1.83697e-16 -1 1 -1.83697e-16 563.602 452)">TRUE</text><path d="M574 395.5 574 467.628 571 467.628 571 395.5ZM579.046 459.384 572.5 470.605 565.955 459.384C565.537 458.668 565.779 457.75 566.495 457.332 567.21 456.915 568.129 457.157 568.546 457.872L573.796 466.872 571.205 466.872 576.455 457.872C576.872 457.156 577.791 456.915 578.506 457.332 579.222 457.75 579.463 458.668 579.046 459.384Z"/><path d="M538.5 508.5C538.5 490.275 553.275 475.5 571.5 475.5 589.725 475.5 604.5 490.275 604.5 508.5 604.5 526.725 589.725 541.5 571.5 541.5 553.275 541.5 538.5 526.725 538.5 508.5Z" stroke="#FFFFFF" stroke-width="1.33333" stroke-miterlimit="8" fill-rule="evenodd"/><path d="M533.5 509C533.5 488.289 550.513 471.5 571.5 471.5 592.487 471.5 609.5 488.289 609.5 509 609.5 529.711 592.487 546.5 571.5 546.5 550.513 546.5 533.5 529.711 533.5 509Z" stroke="#000000" stroke-width="3" stroke-miterlimit="8" fill="none" fill-rule="evenodd"/><path d="M1.5-1.6588e-05 1.50049 44.4981-1.49951 44.4982-1.5 1.6588e-05ZM6.54607 36.2539 0.000525163 47.4751-6.54527 36.254C-6.9627 35.5384-6.721 34.62-6.00543 34.2025-5.28986 33.7851-4.37138 34.0268-3.95395 34.7424L1.29615 43.7423-1.29518 43.7423 3.95472 34.7423C4.37213 34.0267 5.2906 33.785 6.00618 34.2024 6.72177 34.6198 6.96348 35.5383 6.54607 36.2539Z" transform="matrix(-1 0 0 1 572.501 1637.5)"/><path d="M538.5 1724.5C538.5 1706.27 553.275 1691.5 571.5 1691.5 589.725 1691.5 604.5 1706.27 604.5 1724.5 604.5 1742.73 589.725 1757.5 571.5 1757.5 553.275 1757.5 538.5 1742.73 538.5 1724.5Z" stroke="#FFFFFF" stroke-width="1.33333" stroke-miterlimit="8" fill-rule="evenodd"/><path d="M533.5 1724C533.5 1703.29 550.513 1686.5 571.5 1686.5 592.487 1686.5 609.5 1703.29 609.5 1724 609.5 1744.71 592.487 1761.5 571.5 1761.5 550.513 1761.5 533.5 1744.71 533.5 1724Z" stroke="#000000" stroke-width="3" stroke-miterlimit="8" fill="none" fill-rule="evenodd"/><text font-family="Calibri,Calibri_MSFontService,sans-serif" font-weight="400" font-size="24" transform="translate(1144.49 1749)">*System of<tspan font-size="24" x="112.293" y="0">Linear </tspan><tspan font-size="24" x="177.96" y="0">Equations</tspan></text><path d="M1170.5 342 1214.56 342 1214.56 345 1170.5 345ZM1206.31 336.954 1217.53 343.5 1206.31 350.046C1205.6 350.463 1204.68 350.222 1204.26 349.506 1203.84 348.79 1204.08 347.872 1204.8 347.454L1213.8 342.204 1213.8 344.796 1204.8 339.546C1204.08 339.128 1203.84 338.21 1204.26 337.494 1204.68 336.779 1205.6 336.537 1206.31 336.954Z"/></g></svg>